{"glyphs":{"0":{"ha":867,"x_min":75,"x_max":799,"o":"m 376 -11 q 149 79 222 -11 q 75 310 75 169 q 131 553 75 444 q 284 725 188 663 q 499 788 381 788 q 726 700 654 788 q 799 467 799 613 q 744 228 799 338 q 592 53 689 118 q 376 -11 496 -11 m 389 56 q 531 117 474 56 q 617 272 589 178 q 644 463 644 365 q 605 653 644 583 q 481 722 565 722 q 336 659 393 722 q 253 502 279 596 q 226 315 226 408 q 266 128 226 200 q 389 56 306 56 z "},"1":{"ha":626,"x_min":67,"x_max":525,"o":"m 219 72 l 301 636 q 115 588 181 600 l 106 651 q 256 706 172 665 q 400 788 339 746 l 469 771 l 369 74 l 525 57 l 519 0 l 67 0 l 72 57 l 219 72 z "},"2":{"ha":821,"x_min":31,"x_max":744,"o":"m 31 56 q 280 218 164 124 q 465 417 396 313 q 535 613 535 521 q 491 737 535 688 q 371 786 447 786 q 238 754 301 786 q 128 682 174 722 l 92 744 q 226 838 139 794 q 421 881 314 881 q 577 840 517 881 q 664 738 638 799 q 690 617 690 678 q 617 422 690 525 q 428 228 543 319 q 193 76 314 136 l 606 104 l 674 229 l 744 206 l 686 0 l 44 0 l 31 56 z "},"3":{"ha":740,"x_min":8,"x_max":646,"o":"m 139 -222 q 8 -208 86 -222 l 24 -132 q 117 -140 69 -140 q 303 -99 218 -140 q 437 10 388 -57 q 486 153 486 78 q 436 278 486 229 q 282 322 386 326 q 228 307 267 317 q 178 294 189 297 l 189 371 q 407 469 321 400 q 493 629 493 538 q 460 738 493 694 q 356 781 428 781 q 234 758 288 781 q 125 693 181 735 l 96 757 q 222 840 139 801 q 406 878 306 878 q 581 822 517 878 q 646 667 646 765 q 572 497 646 579 q 397 375 497 415 q 581 324 521 383 q 642 169 642 264 q 569 -25 642 65 q 381 -169 497 -115 q 139 -222 264 -222 z "},"4":{"ha":853,"x_min":7,"x_max":781,"o":"m 469 0 l 36 0 l 7 53 q 244 436 103 179 q 474 910 385 693 l 497 910 l 624 846 q 608 818 617 832 q 593 790 600 804 q 386 424 475 575 q 219 172 297 272 q 135 67 151 89 l 481 83 l 515 357 l 657 396 l 621 94 l 781 104 l 767 0 l 606 0 l 574 -254 l 436 -254 l 469 0 z "},"5":{"ha":758,"x_min":60,"x_max":746,"o":"m 69 -110 q 136 -117 101 -117 q 331 -74 242 -117 q 473 39 421 -32 q 525 189 525 110 q 478 333 525 281 q 338 386 432 386 q 156 343 260 386 l 124 367 l 235 865 l 646 865 l 661 878 l 746 878 l 711 754 l 339 754 l 257 433 q 337 459 288 447 q 428 471 386 471 q 619 400 549 471 q 689 213 689 329 q 614 3 689 94 q 418 -140 539 -89 q 165 -190 297 -190 q 110 -186 144 -190 q 60 -178 76 -182 l 69 -110 z "},"6":{"ha":838,"x_min":81,"x_max":756,"o":"m 382 -14 q 222 31 290 -14 q 117 152 153 75 q 81 325 81 229 q 157 644 81 490 q 368 909 233 797 q 669 1065 503 1021 l 693 1003 q 508 901 596 969 q 356 744 419 832 q 263 565 292 656 q 360 638 300 608 q 501 667 419 667 q 690 594 624 667 q 756 407 756 521 q 708 201 756 299 q 574 45 660 104 q 382 -14 489 -14 m 396 58 q 513 107 465 58 q 585 228 561 156 q 608 375 608 301 q 568 526 608 474 q 458 579 528 579 q 330 546 379 579 q 247 468 281 513 q 228 294 228 378 q 269 121 228 183 q 396 58 310 58 z "},"7":{"ha":743,"x_min":60,"x_max":744,"o":"m 214 681 l 156 529 l 60 531 l 106 778 l 724 778 l 744 749 l 336 -229 l 193 -182 l 626 681 l 214 681 z "},"8":{"ha":828,"x_min":72,"x_max":779,"o":"m 72 231 q 147 406 72 329 q 340 532 222 483 q 231 648 272 589 q 189 779 189 707 q 231 916 189 856 q 346 1010 272 976 q 514 1044 419 1044 q 710 989 640 1044 q 779 835 779 933 q 715 674 779 747 q 540 549 650 601 q 683 418 629 485 q 738 274 738 351 q 685 122 738 188 q 549 21 633 56 q 372 -14 465 -14 q 226 12 294 -14 q 115 92 158 38 q 72 231 72 147 m 481 592 q 605 688 558 628 q 651 826 651 749 q 610 942 651 901 q 506 983 568 983 q 375 933 426 983 q 324 803 324 883 q 364 693 324 742 q 481 592 404 644 m 213 240 q 260 107 213 160 q 392 54 307 54 q 492 78 446 54 q 567 147 539 103 q 594 249 594 190 q 569 334 594 296 q 506 403 544 372 q 396 486 468 435 q 266 385 318 449 q 213 240 214 322 z "},"9":{"ha":844,"x_min":88,"x_max":761,"o":"m 461 788 q 621 746 553 788 q 725 628 689 704 q 761 456 761 553 q 684 132 761 288 q 472 -135 607 -24 q 171 -292 338 -247 l 147 -229 q 334 -129 244 -197 q 488 28 424 -61 q 582 208 553 117 q 481 135 542 165 q 340 106 421 106 q 201 145 258 106 q 115 250 143 185 q 88 393 88 315 q 134 583 88 492 q 265 731 181 674 q 461 788 350 788 m 447 717 q 329 672 378 717 q 256 558 281 626 q 232 422 232 490 q 274 253 232 311 q 383 194 315 194 q 596 306 510 194 q 615 471 615 383 q 574 650 615 583 q 447 717 532 717 z "},"\u0000":{"ha":0,"x_min":0,"x_max":0,"o":""},"\r":{"ha":329,"x_min":0,"x_max":0,"o":""}," ":{"ha":329,"x_min":0,"x_max":0,"o":""},"A":{"ha":913,"x_min":-92,"x_max":913,"o":"m 626 1033 l 801 75 l 913 57 l 910 0 l 522 0 l 525 57 l 644 74 l 607 301 l 232 301 l 128 74 l 254 57 l 249 0 l -92 0 l -86 57 l 8 74 l 475 1033 l 626 1033 m 268 381 l 596 381 l 525 825 l 517 924 l 268 381 z "},"Á":{"ha":913,"x_min":-92,"x_max":913,"o":"m 626 1033 l 801 75 l 913 57 l 910 0 l 522 0 l 525 57 l 644 74 l 607 301 l 232 301 l 128 74 l 254 57 l 249 0 l -92 0 l -86 57 l 8 74 l 475 1033 l 626 1033 m 268 381 l 596 381 l 525 825 l 517 924 l 268 381 m 686 1365 l 772 1289 q 665 1194 742 1246 q 535 1121 589 1143 l 478 1158 l 686 1365 z "},"Ă":{"ha":913,"x_min":-92,"x_max":913,"o":"m 626 1033 l 801 75 l 913 57 l 910 0 l 522 0 l 525 57 l 644 74 l 607 301 l 232 301 l 128 74 l 254 57 l 249 0 l -92 0 l -86 57 l 8 74 l 475 1033 l 626 1033 m 268 381 l 596 381 l 525 825 l 517 924 l 268 381 m 567 1108 q 414 1169 461 1108 q 367 1317 367 1231 q 369 1350 367 1340 l 450 1350 q 476 1251 451 1290 q 569 1211 500 1211 q 676 1253 640 1211 q 718 1350 711 1296 l 796 1350 q 766 1231 796 1286 q 683 1142 736 1175 q 567 1108 631 1108 z "},"Ắ":{"ha":913,"x_min":-92,"x_max":913,"o":"m 626 1033 l 801 75 l 913 57 l 910 0 l 522 0 l 525 57 l 644 74 l 607 301 l 232 301 l 128 74 l 254 57 l 249 0 l -92 0 l -86 57 l 8 74 l 475 1033 l 626 1033 m 268 381 l 596 381 l 525 825 l 517 924 l 268 381 m 511 1219 l 654 1365 l 735 1303 q 663 1236 710 1272 q 560 1171 617 1200 l 511 1219 m 556 1018 q 408 1052 463 1018 q 358 1143 353 1086 q 364 1183 358 1164 l 440 1183 l 439 1168 q 467 1128 436 1144 q 560 1113 499 1113 q 656 1128 621 1113 q 693 1167 690 1143 q 694 1183 696 1181 l 767 1183 q 767 1163 768 1176 q 767 1144 767 1150 q 707 1051 761 1085 q 556 1018 653 1018 z "},"Ặ":{"ha":913,"x_min":-92,"x_max":913,"o":"m 626 1033 l 801 75 l 913 57 l 910 0 l 522 0 l 525 57 l 644 74 l 607 301 l 232 301 l 128 74 l 254 57 l 249 0 l -92 0 l -86 57 l 8 74 l 475 1033 l 626 1033 m 268 381 l 596 381 l 525 825 l 517 924 l 268 381 m 351 -321 q 297 -298 318 -321 q 275 -239 275 -275 q 304 -164 275 -194 q 374 -133 333 -133 q 432 -156 411 -133 q 453 -212 453 -178 q 424 -289 453 -257 q 351 -321 396 -321 m 567 1108 q 414 1169 461 1108 q 367 1317 367 1231 q 369 1350 367 1340 l 450 1350 q 476 1251 451 1290 q 569 1211 500 1211 q 676 1253 640 1211 q 718 1350 711 1296 l 796 1350 q 766 1231 796 1286 q 683 1142 736 1175 q 567 1108 631 1108 z "},"Ằ":{"ha":913,"x_min":-92,"x_max":913,"o":"m 626 1033 l 801 75 l 913 57 l 910 0 l 522 0 l 525 57 l 644 74 l 607 301 l 232 301 l 128 74 l 254 57 l 249 0 l -92 0 l -86 57 l 8 74 l 475 1033 l 626 1033 m 268 381 l 596 381 l 525 825 l 517 924 l 268 381 m 585 1161 q 500 1226 536 1192 q 447 1290 464 1260 l 540 1360 l 651 1218 l 585 1161 m 550 1018 q 412 1048 463 1018 q 361 1128 361 1078 q 363 1143 361 1138 q 371 1183 367 1175 l 447 1183 q 447 1176 447 1181 q 446 1163 446 1171 q 476 1126 446 1140 q 563 1113 506 1113 q 660 1128 624 1113 q 700 1167 696 1143 q 701 1183 703 1181 l 774 1183 l 771 1144 q 705 1052 764 1086 q 550 1018 646 1018 z "},"Ẳ":{"ha":913,"x_min":-92,"x_max":913,"o":"m 626 1033 l 801 75 l 913 57 l 910 0 l 522 0 l 525 57 l 644 74 l 607 301 l 232 301 l 128 74 l 254 57 l 249 0 l -92 0 l -86 57 l 8 74 l 475 1033 l 626 1033 m 268 381 l 596 381 l 525 825 l 517 924 l 268 381 m 529 1144 q 522 1155 525 1147 q 519 1169 519 1163 q 526 1187 519 1179 q 547 1208 532 1194 q 571 1231 563 1221 q 579 1257 579 1242 q 567 1278 579 1271 q 532 1286 554 1286 q 464 1272 496 1286 l 472 1354 q 508 1362 476 1358 q 560 1365 540 1365 q 656 1345 621 1365 q 692 1286 692 1325 q 679 1240 692 1258 q 640 1204 667 1221 q 612 1178 624 1194 q 604 1146 600 1163 l 529 1144 m 550 1018 q 417 1047 464 1018 q 369 1126 369 1076 q 371 1143 369 1138 q 379 1183 375 1175 l 456 1183 l 453 1168 q 475 1128 449 1143 q 561 1113 501 1113 q 653 1128 621 1113 q 690 1167 686 1143 l 692 1183 l 764 1183 l 761 1144 q 699 1051 753 1085 q 550 1018 646 1018 z "},"Ẵ":{"ha":913,"x_min":-92,"x_max":913,"o":"m 626 1033 l 801 75 l 913 57 l 910 0 l 522 0 l 525 57 l 644 74 l 607 301 l 232 301 l 128 74 l 254 57 l 249 0 l -92 0 l -86 57 l 8 74 l 475 1033 l 626 1033 m 268 381 l 596 381 l 525 825 l 517 924 l 268 381 m 382 1247 q 406 1299 386 1272 q 457 1343 426 1325 q 522 1361 488 1361 q 567 1352 551 1361 q 601 1325 583 1343 q 628 1303 618 1310 q 656 1297 639 1297 q 697 1306 683 1297 q 721 1328 710 1314 q 738 1349 732 1342 l 779 1315 q 723 1236 764 1269 q 635 1203 682 1203 q 593 1212 608 1203 q 558 1240 578 1221 q 531 1264 544 1256 q 500 1272 518 1272 q 467 1261 481 1272 q 440 1235 453 1250 q 422 1215 428 1221 l 382 1247 m 551 1018 q 413 1052 463 1018 q 368 1143 364 1086 q 370 1162 368 1147 q 375 1183 372 1176 l 450 1183 l 449 1168 q 473 1128 446 1143 q 560 1113 500 1113 q 651 1128 619 1113 q 686 1167 683 1143 q 686 1183 688 1178 l 760 1183 l 760 1144 q 699 1052 754 1086 q 551 1018 644 1018 z "},"Ǎ":{"ha":913,"x_min":-92,"x_max":913,"o":"m 626 1033 l 801 75 l 913 57 l 910 0 l 522 0 l 525 57 l 644 74 l 607 301 l 232 301 l 128 74 l 254 57 l 249 0 l -92 0 l -86 57 l 8 74 l 475 1033 l 626 1033 m 268 381 l 596 381 l 525 825 l 517 924 l 268 381 m 424 1360 l 574 1196 l 788 1360 l 836 1326 l 615 1099 l 515 1099 l 368 1325 l 424 1360 z "},"Â":{"ha":913,"x_min":-92,"x_max":913,"o":"m 626 1033 l 801 75 l 913 57 l 910 0 l 522 0 l 525 57 l 644 74 l 607 301 l 232 301 l 128 74 l 254 57 l 249 0 l -92 0 l -86 57 l 8 74 l 475 1033 l 626 1033 m 268 381 l 596 381 l 525 825 l 517 924 l 268 381 m 540 1360 l 643 1360 l 790 1131 l 738 1096 l 583 1258 l 358 1097 l 311 1132 l 540 1360 z "},"Ấ":{"ha":913,"x_min":-92,"x_max":1029,"o":"m 626 1033 l 801 75 l 913 57 l 910 0 l 522 0 l 525 57 l 644 74 l 607 301 l 232 301 l 128 74 l 254 57 l 249 0 l -92 0 l -86 57 l 8 74 l 475 1033 l 626 1033 m 268 381 l 596 381 l 525 825 l 517 924 l 268 381 m 804 1224 l 957 1365 l 1029 1296 q 853 1168 969 1226 l 804 1224 m 656 1321 l 799 1131 l 738 1079 l 579 1215 l 375 1079 l 331 1131 l 535 1321 l 656 1321 z "},"Ậ":{"ha":913,"x_min":-92,"x_max":913,"o":"m 626 1033 l 801 75 l 913 57 l 910 0 l 522 0 l 525 57 l 644 74 l 607 301 l 232 301 l 128 74 l 254 57 l 249 0 l -92 0 l -86 57 l 8 74 l 475 1033 l 626 1033 m 268 381 l 596 381 l 525 825 l 517 924 l 268 381 m 351 -321 q 297 -298 318 -321 q 275 -239 275 -275 q 304 -164 275 -194 q 374 -133 333 -133 q 432 -156 411 -133 q 453 -212 453 -178 q 424 -289 453 -257 q 351 -321 396 -321 m 540 1360 l 643 1360 l 790 1131 l 738 1096 l 583 1258 l 358 1097 l 311 1132 l 540 1360 z "},"Ầ":{"ha":913,"x_min":-92,"x_max":954,"o":"m 626 1033 l 801 75 l 913 57 l 910 0 l 522 0 l 525 57 l 644 74 l 607 301 l 232 301 l 128 74 l 254 57 l 249 0 l -92 0 l -86 57 l 8 74 l 475 1033 l 626 1033 m 268 381 l 596 381 l 525 825 l 517 924 l 268 381 m 917 1132 q 826 1215 879 1156 q 750 1314 774 1274 l 824 1365 l 954 1161 l 917 1132 m 646 1319 l 789 1107 l 731 1067 l 574 1217 l 363 1067 l 319 1106 l 535 1319 l 646 1319 z "},"Ẩ":{"ha":913,"x_min":-92,"x_max":1026,"o":"m 626 1033 l 801 75 l 913 57 l 910 0 l 522 0 l 525 57 l 644 74 l 607 301 l 232 301 l 128 74 l 254 57 l 249 0 l -92 0 l -86 57 l 8 74 l 475 1033 l 626 1033 m 268 381 l 596 381 l 525 825 l 517 924 l 268 381 m 850 1082 q 836 1133 833 1115 q 851 1163 839 1151 q 883 1186 863 1174 q 917 1210 906 1199 q 928 1243 928 1222 q 915 1275 928 1261 q 874 1289 903 1289 q 844 1285 860 1289 q 819 1276 828 1282 l 828 1356 q 855 1363 831 1360 q 896 1365 879 1365 q 1026 1275 1026 1365 q 1008 1207 1026 1231 q 951 1158 989 1183 q 921 1136 924 1139 q 904 1093 903 1119 l 850 1082 m 653 1307 l 796 1126 l 736 1076 l 575 1203 l 374 1075 l 329 1126 l 531 1307 l 653 1307 z "},"Ẫ":{"ha":913,"x_min":-92,"x_max":913,"o":"m 626 1033 l 801 75 l 913 57 l 910 0 l 522 0 l 525 57 l 644 74 l 607 301 l 232 301 l 128 74 l 254 57 l 249 0 l -92 0 l -86 57 l 8 74 l 475 1033 l 626 1033 m 268 381 l 596 381 l 525 825 l 517 924 l 268 381 m 381 1339 q 406 1392 385 1364 q 458 1438 426 1419 q 529 1457 490 1457 q 581 1445 558 1457 q 632 1411 604 1433 q 669 1384 654 1393 q 703 1375 685 1375 q 751 1386 735 1375 q 793 1426 767 1397 l 835 1393 q 775 1315 818 1346 q 678 1283 732 1283 q 633 1294 653 1283 q 583 1326 613 1306 q 542 1355 558 1346 q 507 1364 525 1364 q 465 1349 485 1364 q 421 1307 446 1335 l 381 1339 m 642 1250 l 813 1122 l 754 1068 l 568 1158 l 347 1067 l 313 1122 l 522 1250 l 642 1250 z "},"Ä":{"ha":913,"x_min":-92,"x_max":913,"o":"m 626 1033 l 801 75 l 913 57 l 910 0 l 522 0 l 525 57 l 644 74 l 607 301 l 232 301 l 128 74 l 254 57 l 249 0 l -92 0 l -86 57 l 8 74 l 475 1033 l 626 1033 m 268 381 l 596 381 l 525 825 l 517 924 l 268 381 m 418 1157 q 369 1178 389 1157 q 349 1232 349 1200 q 374 1302 349 1274 q 438 1331 400 1331 q 493 1310 474 1331 q 513 1256 513 1289 q 486 1185 513 1213 q 418 1157 460 1157 m 722 1157 q 672 1179 692 1157 q 651 1235 651 1201 q 678 1303 651 1276 q 742 1331 706 1331 q 795 1310 775 1331 q 815 1258 815 1290 q 790 1185 815 1214 q 722 1157 764 1157 z "},"Ạ":{"ha":913,"x_min":-92,"x_max":913,"o":"m 626 1033 l 801 75 l 913 57 l 910 0 l 522 0 l 525 57 l 644 74 l 607 301 l 232 301 l 128 74 l 254 57 l 249 0 l -92 0 l -86 57 l 8 74 l 475 1033 l 626 1033 m 268 381 l 596 381 l 525 825 l 517 924 l 268 381 m 351 -321 q 297 -298 318 -321 q 275 -239 275 -275 q 304 -164 275 -194 q 374 -133 333 -133 q 432 -156 411 -133 q 453 -212 453 -178 q 424 -289 453 -257 q 351 -321 396 -321 z "},"À":{"ha":913,"x_min":-92,"x_max":913,"o":"m 626 1033 l 801 75 l 913 57 l 910 0 l 522 0 l 525 57 l 644 74 l 607 301 l 232 301 l 128 74 l 254 57 l 249 0 l -92 0 l -86 57 l 8 74 l 475 1033 l 626 1033 m 268 381 l 596 381 l 525 825 l 517 924 l 268 381 m 582 1096 q 458 1178 526 1122 q 363 1285 389 1235 l 449 1357 l 635 1132 l 582 1096 z "},"Ả":{"ha":913,"x_min":-92,"x_max":913,"o":"m 626 1033 l 801 75 l 913 57 l 910 0 l 522 0 l 525 57 l 644 74 l 607 301 l 232 301 l 128 74 l 254 57 l 249 0 l -92 0 l -86 57 l 8 74 l 475 1033 l 626 1033 m 268 381 l 596 381 l 525 825 l 517 924 l 268 381 m 521 1082 q 513 1114 513 1094 q 517 1136 513 1126 q 531 1155 521 1149 q 563 1169 542 1161 q 602 1191 589 1182 q 619 1221 615 1200 q 608 1260 622 1244 q 556 1279 593 1276 q 510 1275 517 1279 l 521 1356 q 544 1362 524 1358 q 581 1365 565 1365 q 736 1260 736 1365 q 735 1240 736 1247 q 708 1189 729 1210 q 646 1142 686 1168 l 619 1124 q 594 1104 601 1113 q 588 1082 586 1096 l 521 1082 z "},"Ā":{"ha":913,"x_min":-92,"x_max":913,"o":"m 626 1033 l 801 75 l 913 57 l 910 0 l 522 0 l 525 57 l 644 74 l 607 301 l 232 301 l 128 74 l 254 57 l 249 0 l -92 0 l -86 57 l 8 74 l 475 1033 l 626 1033 m 268 381 l 596 381 l 525 825 l 517 924 l 268 381 m 764 1276 l 751 1174 l 392 1174 l 404 1276 l 764 1276 z "},"Ą":{"ha":913,"x_min":-92,"x_max":913,"o":"m 769 0 q 672 -80 707 -43 q 636 -150 636 -117 q 647 -192 635 -179 q 681 -206 660 -206 q 788 -158 732 -206 l 806 -219 q 613 -297 722 -297 q 530 -270 558 -297 q 501 -201 501 -243 q 509 -160 501 -183 q 529 -119 517 -137 q 592 -52 558 -78 q 676 0 626 -26 l 522 0 l 525 57 l 644 74 l 607 301 l 232 301 l 128 74 l 254 57 l 249 0 l -92 0 l -86 57 l 8 74 l 475 1032 l 626 1032 l 801 75 l 913 57 l 910 0 l 769 0 m 268 381 l 596 381 l 525 825 l 517 924 l 268 381 z "},"Å":{"ha":913,"x_min":-92,"x_max":913,"o":"m 472 1026 q 384 1078 415 1040 q 353 1171 353 1117 q 390 1276 353 1233 q 484 1338 428 1318 q 597 1358 540 1358 q 735 1318 682 1358 q 789 1211 789 1278 q 743 1092 789 1139 q 628 1028 697 1044 l 801 75 l 913 57 l 910 0 l 522 0 l 525 57 l 644 74 l 607 301 l 232 301 l 128 74 l 254 57 l 249 0 l -92 0 l -86 57 l 8 74 l 472 1026 m 586 1297 q 488 1267 532 1297 q 444 1182 444 1236 q 477 1108 444 1138 q 558 1079 510 1079 q 656 1109 615 1079 q 696 1201 696 1139 q 664 1270 696 1243 q 586 1297 632 1297 m 268 381 l 596 381 l 525 825 l 517 924 l 268 381 z "},"Ǻ":{"ha":913,"x_min":-92,"x_max":913,"o":"m -86 57 l 8 74 l 457 994 q 368 1033 400 1006 q 336 1103 336 1060 q 386 1203 336 1168 q 522 1247 436 1239 l 626 1364 l 754 1319 q 704 1273 726 1290 q 658 1244 682 1256 q 751 1209 717 1236 q 785 1136 785 1182 q 744 1043 785 1079 q 633 994 704 1007 l 801 75 l 913 57 l 910 0 l 522 0 l 525 57 l 644 74 l 607 301 l 232 301 l 128 74 l 254 57 l 249 0 l -92 0 l -86 57 m 443 1111 q 472 1071 443 1085 q 551 1057 501 1057 q 644 1076 613 1057 q 676 1128 676 1094 q 649 1170 676 1156 q 569 1185 622 1185 q 476 1165 510 1185 q 443 1111 443 1146 m 596 381 l 525 825 l 517 924 l 268 381 l 596 381 z "},"Ã":{"ha":913,"x_min":-92,"x_max":913,"o":"m 626 1033 l 801 75 l 913 57 l 910 0 l 522 0 l 525 57 l 644 74 l 607 301 l 232 301 l 128 74 l 254 57 l 249 0 l -92 0 l -86 57 l 8 74 l 475 1033 l 626 1033 m 268 381 l 596 381 l 525 825 l 517 924 l 268 381 m 329 1225 q 390 1305 349 1272 q 489 1338 432 1338 q 546 1324 522 1338 q 599 1282 569 1310 q 642 1248 625 1258 q 681 1238 658 1238 q 740 1257 715 1238 q 786 1306 765 1276 l 829 1254 q 769 1174 811 1210 q 675 1138 728 1138 q 613 1151 638 1138 q 558 1193 589 1165 q 514 1228 532 1217 q 471 1239 496 1239 q 416 1222 439 1239 q 369 1175 393 1206 l 329 1225 z "},"Æ":{"ha":1281,"x_min":-121,"x_max":1244,"o":"m 468 57 l 564 74 l 594 318 l 258 318 l 133 74 l 278 57 l 274 0 l -121 0 l -114 57 l -3 74 l 483 954 l 278 968 l 286 1032 l 1244 1032 l 1232 815 l 1142 815 l 1119 954 l 828 965 l 776 574 l 1081 593 l 1068 479 l 768 492 l 715 74 l 1085 90 l 1156 256 l 1243 240 l 1194 0 l 461 0 l 468 57 m 300 399 l 603 399 l 672 957 l 589 960 l 300 399 z "},"Ǽ":{"ha":1281,"x_min":-121,"x_max":1244,"o":"m 468 57 l 564 74 l 594 318 l 258 318 l 133 74 l 278 57 l 274 0 l -121 0 l -114 57 l -3 74 l 483 954 l 278 968 l 286 1032 l 1244 1032 l 1232 815 l 1142 815 l 1119 954 l 828 965 l 776 574 l 1081 593 l 1068 479 l 768 492 l 715 74 l 1085 90 l 1156 256 l 1243 240 l 1194 0 l 461 0 l 468 57 m 300 399 l 603 399 l 672 957 l 589 960 l 300 399 m 925 1365 l 1011 1289 q 904 1194 981 1246 q 774 1121 828 1143 l 717 1158 l 925 1365 z "},"B":{"ha":897,"x_min":8,"x_max":843,"o":"m 325 1032 q 373 1033 346 1032 q 414 1036 400 1035 q 535 1042 492 1042 q 771 978 699 1042 q 843 815 843 914 q 784 642 843 710 q 614 546 725 575 q 774 479 711 540 q 838 329 838 418 q 711 72 838 154 q 369 -11 585 -11 q 268 -6 338 -11 q 175 0 199 0 l 8 0 l 14 57 l 113 74 l 226 956 l 132 971 l 139 1032 l 325 1032 m 367 574 l 457 574 q 630 631 563 574 q 697 800 697 688 q 650 928 697 886 q 500 971 603 971 q 436 969 475 971 q 374 963 397 967 l 324 574 l 367 574 m 260 76 q 323 66 281 69 q 394 63 365 63 q 602 122 526 63 q 678 308 678 181 q 626 449 678 403 q 465 496 574 496 q 314 493 372 496 l 260 76 z "},"Ḃ":{"ha":897,"x_min":8,"x_max":843,"o":"m 325 1032 q 373 1033 346 1032 q 414 1036 400 1035 q 535 1042 492 1042 q 771 978 699 1042 q 843 815 843 914 q 784 642 843 710 q 614 546 725 575 q 774 479 711 540 q 838 329 838 418 q 711 72 838 154 q 369 -11 585 -11 q 268 -6 338 -11 q 175 0 199 0 l 8 0 l 14 57 l 113 74 l 226 956 l 132 971 l 139 1032 l 325 1032 m 367 574 l 457 574 q 630 631 563 574 q 697 800 697 688 q 650 928 697 886 q 500 971 603 971 q 436 969 475 971 q 374 963 397 967 l 324 574 l 367 574 m 260 76 q 323 66 281 69 q 394 63 365 63 q 602 122 526 63 q 678 308 678 181 q 626 449 678 403 q 465 496 574 496 q 314 493 372 496 l 260 76 m 535 1140 q 481 1163 504 1140 q 457 1218 457 1186 q 486 1290 457 1260 q 554 1319 515 1319 q 614 1297 590 1319 q 638 1244 638 1275 q 608 1171 638 1201 q 535 1140 579 1140 z "},"Ḅ":{"ha":897,"x_min":8,"x_max":843,"o":"m 325 1032 q 373 1033 346 1032 q 414 1036 400 1035 q 535 1042 492 1042 q 771 978 699 1042 q 843 815 843 914 q 784 642 843 710 q 614 546 725 575 q 774 479 711 540 q 838 329 838 418 q 711 72 838 154 q 369 -11 585 -11 q 268 -6 338 -11 q 175 0 199 0 l 8 0 l 14 57 l 113 74 l 226 956 l 132 971 l 139 1032 l 325 1032 m 367 574 l 457 574 q 630 631 563 574 q 697 800 697 688 q 650 928 697 886 q 500 971 603 971 q 436 969 475 971 q 374 963 397 967 l 324 574 l 367 574 m 260 76 q 323 66 281 69 q 394 63 365 63 q 602 122 526 63 q 678 308 678 181 q 626 449 678 403 q 465 496 574 496 q 314 493 372 496 l 260 76 m 333 -321 q 278 -298 300 -321 q 257 -239 257 -275 q 286 -164 257 -194 q 356 -133 315 -133 q 414 -156 393 -133 q 435 -212 435 -178 q 406 -289 435 -257 q 333 -321 378 -321 z "},"C":{"ha":853,"x_min":54,"x_max":857,"o":"m 703 943 q 569 971 650 971 q 376 894 456 971 q 258 698 297 817 q 218 457 218 579 q 276 179 218 288 q 456 71 335 71 q 560 85 507 71 q 640 131 613 100 q 688 276 658 174 l 778 276 l 749 64 q 431 -11 603 -11 q 215 53 300 -11 q 92 219 131 117 q 54 440 54 321 q 125 758 54 621 q 318 969 196 894 q 590 1043 440 1043 q 717 1035 668 1043 q 795 1020 767 1028 q 831 1011 824 1013 l 857 1003 l 815 749 l 714 749 l 703 943 z "},"Ć":{"ha":853,"x_min":54,"x_max":857,"o":"m 703 943 q 569 971 650 971 q 376 894 456 971 q 258 698 297 817 q 218 457 218 579 q 276 179 218 288 q 456 71 335 71 q 560 85 507 71 q 640 131 613 100 q 688 276 658 174 l 778 276 l 749 64 q 431 -11 603 -11 q 215 53 300 -11 q 92 219 131 117 q 54 440 54 321 q 125 758 54 621 q 318 969 196 894 q 590 1043 440 1043 q 717 1035 668 1043 q 795 1020 767 1028 q 831 1011 824 1013 l 857 1003 l 815 749 l 714 749 l 703 943 m 728 1365 l 814 1289 q 707 1194 783 1246 q 576 1121 631 1143 l 519 1158 l 728 1365 z "},"Č":{"ha":853,"x_min":54,"x_max":878,"o":"m 703 943 q 569 971 650 971 q 376 894 456 971 q 258 698 297 817 q 218 457 218 579 q 276 179 218 288 q 456 71 335 71 q 560 85 507 71 q 640 131 613 100 q 688 276 658 174 l 778 276 l 749 64 q 431 -11 603 -11 q 215 53 300 -11 q 92 219 131 117 q 54 440 54 321 q 125 758 54 621 q 318 969 196 894 q 590 1043 440 1043 q 717 1035 668 1043 q 795 1020 767 1028 q 831 1011 824 1013 l 857 1003 l 815 749 l 714 749 l 703 943 m 465 1360 l 615 1196 l 829 1360 l 878 1326 l 657 1099 l 557 1099 l 410 1325 l 465 1360 z "},"Ç":{"ha":853,"x_min":51,"x_max":857,"o":"m 54 428 q 122 752 51 613 q 315 967 192 892 q 590 1043 438 1043 q 717 1035 668 1043 q 795 1020 767 1028 q 831 1011 824 1013 l 857 1003 l 815 749 l 714 749 l 703 943 q 569 971 650 971 q 376 894 456 971 q 258 698 297 817 q 218 457 218 579 q 276 179 218 288 q 456 71 335 71 q 560 85 507 71 q 640 131 613 100 q 688 276 658 174 l 778 276 l 749 64 q 483 -10 626 1 q 499 -111 499 -56 q 447 -265 499 -211 q 306 -318 396 -318 q 251 -312 278 -318 q 210 -296 224 -306 l 226 -203 q 253 -210 235 -207 q 290 -214 271 -214 q 381 -176 353 -214 q 410 -64 410 -139 q 404 -10 410 -40 q 206 58 285 -4 q 92 218 128 121 q 54 428 56 315 z "},"Ĉ":{"ha":853,"x_min":54,"x_max":857,"o":"m 703 943 q 569 971 650 971 q 376 894 456 971 q 258 698 297 817 q 218 457 218 579 q 276 179 218 288 q 456 71 335 71 q 560 85 507 71 q 640 131 613 100 q 688 276 658 174 l 778 276 l 749 64 q 431 -11 603 -11 q 215 53 300 -11 q 92 219 131 117 q 54 440 54 321 q 125 758 54 621 q 318 969 196 894 q 590 1043 440 1043 q 717 1035 668 1043 q 795 1020 767 1028 q 831 1011 824 1013 l 857 1003 l 815 749 l 714 749 l 703 943 m 582 1360 l 685 1360 l 832 1131 l 779 1096 l 625 1258 l 400 1097 l 353 1132 l 582 1360 z "},"Ċ":{"ha":853,"x_min":54,"x_max":857,"o":"m 703 943 q 569 971 650 971 q 376 894 456 971 q 258 698 297 817 q 218 457 218 579 q 276 179 218 288 q 456 71 335 71 q 560 85 507 71 q 640 131 613 100 q 688 276 658 174 l 778 276 l 749 64 q 431 -11 603 -11 q 215 53 300 -11 q 92 219 131 117 q 54 440 54 321 q 125 758 54 621 q 318 969 196 894 q 590 1043 440 1043 q 717 1035 668 1043 q 795 1020 767 1028 q 831 1011 824 1013 l 857 1003 l 815 749 l 714 749 l 703 943 m 611 1140 q 557 1163 581 1140 q 533 1218 533 1186 q 563 1290 533 1260 q 631 1319 592 1319 q 690 1297 667 1319 q 714 1244 714 1275 q 685 1171 714 1201 q 611 1140 656 1140 z "},"D":{"ha":985,"x_min":3,"x_max":953,"o":"m 331 1032 q 425 1038 361 1032 q 543 1043 503 1043 q 855 930 757 1043 q 953 618 953 817 q 887 292 953 436 q 695 67 821 149 q 396 -11 569 -14 q 364 -9 388 -11 q 329 -6 340 -7 q 190 0 268 0 l 3 0 l 8 57 l 113 74 l 226 956 l 132 971 l 139 1032 l 331 1032 m 264 79 q 344 67 299 72 q 418 61 390 61 q 627 144 543 65 q 752 344 711 222 q 793 601 793 467 q 728 885 793 799 q 517 971 664 971 q 376 957 460 971 l 264 79 z "},"Ǳ":{"ha":1803,"x_min":3,"x_max":1825,"o":"m 331 1032 q 425 1038 361 1032 q 543 1043 503 1043 q 855 930 757 1043 q 953 618 953 817 q 887 292 953 436 q 695 67 821 149 q 396 -11 569 -14 q 364 -9 388 -11 q 329 -6 340 -7 q 190 0 268 0 l 3 0 l 8 57 l 113 74 l 226 956 l 132 971 l 139 1032 l 331 1032 m 264 79 q 344 67 299 72 q 418 61 390 61 q 627 144 543 65 q 752 344 711 222 q 793 601 793 467 q 728 885 793 799 q 517 971 664 971 q 376 957 460 971 l 264 79 m 1810 1032 l 1825 981 l 1242 176 l 1151 71 l 1586 85 l 1685 282 l 1767 258 l 1703 0 l 992 0 l 974 54 l 1550 844 l 1658 961 l 1263 954 l 1190 774 l 1108 786 l 1149 1032 l 1810 1032 z "},"Ǆ":{"ha":1803,"x_min":3,"x_max":1825,"o":"m 331 1032 q 425 1038 361 1032 q 543 1043 503 1043 q 855 930 757 1043 q 953 618 953 817 q 887 292 953 436 q 695 67 821 149 q 396 -11 569 -14 q 364 -9 388 -11 q 329 -6 340 -7 q 190 0 268 0 l 3 0 l 8 57 l 113 74 l 226 956 l 132 971 l 139 1032 l 331 1032 m 264 79 q 344 67 299 72 q 418 61 390 61 q 627 144 543 65 q 752 344 711 222 q 793 601 793 467 q 728 885 793 799 q 517 971 664 971 q 376 957 460 971 l 264 79 m 1810 1032 l 1825 981 l 1242 176 l 1151 71 l 1586 85 l 1685 282 l 1767 258 l 1703 0 l 992 0 l 974 54 l 1550 844 l 1658 961 l 1263 954 l 1190 774 l 1108 786 l 1149 1032 l 1810 1032 m 1353 1438 l 1503 1274 l 1717 1438 l 1765 1404 l 1544 1176 l 1444 1176 l 1297 1403 l 1353 1438 z "},"Ð":{"ha":990,"x_min":8,"x_max":958,"o":"m 332 1033 q 428 1039 364 1033 q 549 1044 508 1044 q 860 931 763 1044 q 958 619 958 818 q 892 294 958 438 q 701 69 826 150 q 400 -10 575 -12 q 374 -8 392 -8 q 333 -4 356 -7 q 189 1 269 1 l 8 1 l 14 58 l 118 75 l 171 489 l 68 489 l 81 576 l 183 576 l 232 957 l 138 972 l 144 1033 l 332 1033 m 269 81 q 349 68 303 74 q 425 63 396 63 q 633 147 549 67 q 758 349 718 226 q 799 608 799 472 q 733 888 799 803 q 521 972 668 972 q 382 958 463 972 l 333 576 l 592 576 l 579 489 l 322 489 l 269 81 z "},"Ď":{"ha":985,"x_min":3,"x_max":953,"o":"m 331 1032 q 425 1038 361 1032 q 543 1043 503 1043 q 855 930 757 1043 q 953 618 953 817 q 887 292 953 436 q 695 67 821 149 q 396 -11 569 -14 q 364 -9 388 -11 q 329 -6 340 -7 q 190 0 268 0 l 3 0 l 8 57 l 113 74 l 226 956 l 132 971 l 139 1032 l 331 1032 m 264 79 q 344 67 299 72 q 418 61 390 61 q 627 144 543 65 q 752 344 711 222 q 793 601 793 467 q 728 885 793 799 q 517 971 664 971 q 376 957 460 971 l 264 79 m 414 1358 l 564 1194 l 778 1358 l 826 1325 l 606 1097 l 506 1097 l 358 1324 l 414 1358 z "},"Đ":{"ha":990,"x_min":8,"x_max":958,"o":"m 332 1033 q 428 1039 364 1033 q 549 1044 508 1044 q 860 931 763 1044 q 958 619 958 818 q 892 294 958 438 q 701 69 826 150 q 400 -10 575 -12 q 374 -8 392 -8 q 333 -4 356 -7 q 189 1 269 1 l 8 1 l 14 58 l 118 75 l 171 489 l 69 489 l 81 576 l 183 576 l 232 957 l 138 972 l 144 1033 l 332 1033 m 269 81 q 349 68 303 74 q 425 63 396 63 q 633 147 549 67 q 758 349 718 226 q 799 608 799 472 q 733 888 799 803 q 521 972 668 972 q 382 958 463 972 l 333 576 l 592 576 l 581 489 l 322 489 l 269 81 z "},"Ḋ":{"ha":986,"x_min":0,"x_max":950,"o":"m 554 1140 q 500 1163 524 1140 q 476 1218 476 1186 q 506 1290 476 1260 q 574 1319 535 1319 q 633 1297 610 1319 q 657 1244 657 1275 q 628 1171 657 1201 q 554 1140 599 1140 m 328 1032 q 422 1038 358 1032 q 540 1043 500 1043 q 852 930 754 1043 q 950 618 950 817 q 884 292 950 436 q 692 67 818 149 q 393 -11 567 -14 q 361 -9 385 -11 q 326 -6 338 -7 q 188 0 265 0 l 0 0 l 6 57 l 110 74 l 224 956 l 129 971 l 136 1032 l 328 1032 m 261 79 q 342 67 296 72 q 415 61 388 61 q 624 144 540 65 q 749 344 708 222 q 790 601 790 467 q 726 885 790 799 q 514 971 661 971 q 374 957 457 971 l 261 79 z "},"Ḍ":{"ha":985,"x_min":3,"x_max":953,"o":"m 331 1032 q 425 1038 361 1032 q 543 1043 503 1043 q 855 930 757 1043 q 953 618 953 817 q 887 292 953 436 q 695 67 821 149 q 396 -11 569 -14 q 364 -9 388 -11 q 329 -6 340 -7 q 190 0 268 0 l 3 0 l 8 57 l 113 74 l 226 956 l 132 971 l 139 1032 l 331 1032 m 264 79 q 344 67 299 72 q 418 61 390 61 q 627 144 543 65 q 752 344 711 222 q 793 601 793 467 q 728 885 793 799 q 517 971 664 971 q 376 957 460 971 l 264 79 m 354 -321 q 299 -298 321 -321 q 278 -239 278 -275 q 307 -164 278 -194 q 376 -133 336 -133 q 435 -156 414 -133 q 456 -212 456 -178 q 427 -289 456 -257 q 354 -321 399 -321 z "},"ǲ":{"ha":1681,"x_min":3,"x_max":1688,"o":"m 331 1032 q 425 1038 361 1032 q 543 1043 503 1043 q 855 930 757 1043 q 953 618 953 817 q 887 292 953 436 q 695 67 821 149 q 396 -11 569 -14 q 364 -9 388 -11 q 329 -6 340 -7 q 190 0 268 0 l 3 0 l 8 57 l 113 74 l 226 956 l 132 971 l 139 1032 l 331 1032 m 264 79 q 344 67 299 72 q 418 61 390 61 q 627 144 543 65 q 752 344 711 222 q 793 601 793 467 q 728 885 793 799 q 517 971 664 971 q 376 957 460 971 l 264 79 m 1411 656 q 1226 657 1247 658 q 1160 619 1186 656 q 1132 532 1135 582 l 1082 532 l 1081 565 q 1092 696 1081 633 q 1132 772 1104 758 q 1196 788 1153 788 q 1408 775 1268 788 q 1499 769 1439 774 q 1588 765 1560 765 q 1656 786 1629 765 l 1688 751 l 1321 281 l 1164 118 l 1442 114 q 1563 239 1547 114 l 1613 239 q 1599 89 1611 158 q 1557 -1 1588 19 q 1488 -15 1532 -15 q 1267 -3 1449 -15 q 1088 8 1122 8 q 1019 -15 1047 8 l 982 22 l 1431 569 l 1517 654 l 1411 656 z "},"ǅ":{"ha":1681,"x_min":3,"x_max":1688,"o":"m 331 1032 q 425 1038 361 1032 q 543 1043 503 1043 q 855 930 757 1043 q 953 618 953 817 q 887 292 953 436 q 695 67 821 149 q 396 -11 569 -14 q 364 -9 388 -11 q 329 -6 340 -7 q 190 0 268 0 l 3 0 l 8 57 l 113 74 l 226 956 l 132 971 l 139 1032 l 331 1032 m 264 79 q 344 67 299 72 q 418 61 390 61 q 627 144 543 65 q 752 344 711 222 q 793 601 793 467 q 728 885 793 799 q 517 971 664 971 q 376 957 460 971 l 264 79 m 1411 656 q 1226 657 1247 658 q 1160 619 1186 656 q 1132 532 1135 582 l 1082 532 l 1081 565 q 1092 696 1081 633 q 1132 772 1104 758 q 1196 788 1153 788 q 1408 775 1268 788 q 1499 769 1439 774 q 1588 765 1560 765 q 1656 786 1629 765 l 1688 751 l 1321 281 l 1164 118 l 1442 114 q 1563 239 1547 114 l 1613 239 q 1599 89 1611 158 q 1557 -1 1588 19 q 1488 -15 1532 -15 q 1267 -3 1449 -15 q 1088 8 1122 8 q 1019 -15 1047 8 l 982 22 l 1431 569 l 1517 654 l 1411 656 m 1267 1160 l 1411 990 l 1631 1160 l 1681 1125 l 1451 886 l 1350 886 l 1210 1125 l 1267 1160 z "},"E":{"ha":849,"x_min":3,"x_max":810,"o":"m 808 1032 l 797 808 l 710 808 l 686 954 l 379 965 l 328 579 l 649 593 l 636 482 l 319 496 l 265 78 l 647 94 l 724 263 l 810 249 l 754 0 l 3 0 l 8 57 l 114 74 l 225 956 l 131 971 l 138 1032 l 808 1032 z "},"É":{"ha":849,"x_min":3,"x_max":810,"o":"m 671 1365 l 757 1289 q 650 1194 726 1246 q 519 1121 574 1143 l 463 1158 l 671 1365 m 808 1032 l 797 808 l 710 808 l 686 954 l 379 965 l 328 579 l 649 593 l 636 482 l 319 496 l 265 78 l 647 94 l 724 263 l 810 249 l 754 0 l 3 0 l 8 57 l 114 74 l 225 956 l 131 971 l 138 1032 l 808 1032 z "},"Ĕ":{"ha":849,"x_min":3,"x_max":810,"o":"m 808 1032 l 797 808 l 710 808 l 686 954 l 379 965 l 328 579 l 649 593 l 636 482 l 319 496 l 265 78 l 647 94 l 724 263 l 810 249 l 754 0 l 3 0 l 8 57 l 114 74 l 225 956 l 131 971 l 138 1032 l 808 1032 m 518 1108 q 365 1169 413 1108 q 318 1317 318 1231 q 321 1350 318 1340 l 401 1350 q 427 1251 403 1290 q 521 1211 451 1211 q 627 1253 592 1211 q 669 1350 663 1296 l 747 1350 q 717 1231 747 1286 q 635 1142 688 1175 q 518 1108 582 1108 z "},"Ě":{"ha":849,"x_min":3,"x_max":810,"o":"m 808 1032 l 797 808 l 710 808 l 686 954 l 379 965 l 328 579 l 649 593 l 636 482 l 319 496 l 265 78 l 647 94 l 724 263 l 810 249 l 754 0 l 3 0 l 8 57 l 114 74 l 225 956 l 131 971 l 138 1032 l 808 1032 m 375 1360 l 525 1196 l 739 1360 l 788 1326 l 567 1099 l 467 1099 l 319 1325 l 375 1360 z "},"Ȩ":{"ha":849,"x_min":3,"x_max":810,"o":"m 8 57 l 114 74 l 225 956 l 131 971 l 138 1032 l 808 1032 l 797 808 l 710 808 l 686 954 l 379 965 l 328 579 l 649 593 l 636 482 l 319 496 l 265 78 l 647 94 l 724 263 l 810 249 l 754 0 l 479 0 q 499 -111 499 -46 q 447 -265 499 -211 q 306 -318 396 -318 q 251 -312 278 -318 q 210 -296 224 -306 l 226 -203 q 253 -210 235 -207 q 290 -214 271 -214 q 381 -176 353 -214 q 410 -64 410 -139 q 403 0 410 -42 l 3 0 l 8 57 z "},"Ê":{"ha":849,"x_min":3,"x_max":810,"o":"m 808 1032 l 797 808 l 710 808 l 686 954 l 379 965 l 328 579 l 649 593 l 636 482 l 319 496 l 265 78 l 647 94 l 724 263 l 810 249 l 754 0 l 3 0 l 8 57 l 114 74 l 225 956 l 131 971 l 138 1032 l 808 1032 m 492 1360 l 594 1360 l 742 1131 l 689 1096 l 535 1258 l 310 1097 l 263 1132 l 492 1360 z "},"Ế":{"ha":849,"x_min":3,"x_max":981,"o":"m 808 1032 l 797 808 l 710 808 l 686 954 l 379 965 l 328 579 l 649 593 l 636 482 l 319 496 l 265 78 l 647 94 l 724 263 l 810 249 l 754 0 l 3 0 l 8 57 l 114 74 l 225 956 l 131 971 l 138 1032 l 808 1032 m 756 1224 l 908 1365 l 981 1296 q 804 1168 921 1226 l 756 1224 m 607 1321 l 750 1131 l 689 1079 l 531 1215 l 326 1079 l 282 1131 l 486 1321 l 607 1321 z "},"Ệ":{"ha":849,"x_min":3,"x_max":810,"o":"m 808 1032 l 797 808 l 710 808 l 686 954 l 379 965 l 328 579 l 649 593 l 636 482 l 319 496 l 265 78 l 647 94 l 724 263 l 810 249 l 754 0 l 3 0 l 8 57 l 114 74 l 225 956 l 131 971 l 138 1032 l 808 1032 m 353 -321 q 298 -298 319 -321 q 276 -239 276 -275 q 306 -164 276 -194 q 375 -133 335 -133 q 433 -156 413 -133 q 454 -212 454 -178 q 426 -289 454 -257 q 353 -321 397 -321 m 492 1360 l 594 1360 l 742 1131 l 689 1096 l 535 1258 l 310 1097 l 263 1132 l 492 1360 z "},"Ề":{"ha":849,"x_min":3,"x_max":906,"o":"m 808 1032 l 797 808 l 710 808 l 686 954 l 379 965 l 328 579 l 649 593 l 636 482 l 319 496 l 265 78 l 647 94 l 724 263 l 810 249 l 754 0 l 3 0 l 8 57 l 114 74 l 225 956 l 131 971 l 138 1032 l 808 1032 m 868 1132 q 778 1215 831 1156 q 701 1314 725 1274 l 775 1365 l 906 1161 l 868 1132 m 597 1319 l 740 1107 l 682 1067 l 525 1217 l 314 1067 l 271 1106 l 486 1319 l 597 1319 z "},"Ể":{"ha":849,"x_min":3,"x_max":978,"o":"m 808 1032 l 797 808 l 710 808 l 686 954 l 379 965 l 328 579 l 649 593 l 636 482 l 319 496 l 265 78 l 647 94 l 724 263 l 810 249 l 754 0 l 3 0 l 8 57 l 114 74 l 225 956 l 131 971 l 138 1032 l 808 1032 m 801 1082 q 788 1133 785 1115 q 802 1163 790 1151 q 835 1186 814 1174 q 868 1210 857 1199 q 879 1243 879 1222 q 867 1275 879 1261 q 825 1289 854 1289 q 795 1285 811 1289 q 771 1276 779 1282 l 779 1356 q 806 1363 782 1360 q 847 1365 831 1365 q 978 1275 978 1365 q 959 1207 978 1231 q 903 1158 940 1183 q 872 1136 875 1139 q 856 1093 854 1119 l 801 1082 m 604 1307 l 747 1126 l 688 1076 l 526 1203 l 325 1075 l 281 1126 l 482 1307 l 604 1307 z "},"Ễ":{"ha":849,"x_min":3,"x_max":810,"o":"m 808 1032 l 797 808 l 710 808 l 686 954 l 379 965 l 328 579 l 649 593 l 636 482 l 319 496 l 265 78 l 647 94 l 724 263 l 810 249 l 754 0 l 3 0 l 8 57 l 114 74 l 225 956 l 131 971 l 138 1032 l 808 1032 m 332 1339 q 357 1392 336 1364 q 410 1438 378 1419 q 481 1457 442 1457 q 533 1445 510 1457 q 583 1411 556 1433 q 621 1384 606 1393 q 654 1375 636 1375 q 702 1386 686 1375 q 744 1426 718 1397 l 786 1393 q 726 1315 769 1346 q 629 1283 683 1283 q 584 1294 604 1283 q 535 1326 564 1306 q 493 1355 510 1346 q 458 1364 476 1364 q 417 1349 436 1364 q 372 1307 397 1335 l 332 1339 m 593 1250 l 764 1122 l 706 1068 l 519 1158 l 299 1067 l 264 1122 l 474 1250 l 593 1250 z "},"Ë":{"ha":849,"x_min":3,"x_max":810,"o":"m 808 1032 l 797 808 l 710 808 l 686 954 l 379 965 l 328 579 l 649 593 l 636 482 l 319 496 l 265 78 l 647 94 l 724 263 l 810 249 l 754 0 l 3 0 l 8 57 l 114 74 l 225 956 l 131 971 l 138 1032 l 808 1032 m 369 1157 q 320 1178 340 1157 q 300 1232 300 1200 q 326 1302 300 1274 q 389 1331 351 1331 q 444 1310 425 1331 q 464 1256 464 1289 q 438 1185 464 1213 q 369 1157 411 1157 m 674 1157 q 623 1179 643 1157 q 603 1235 603 1201 q 630 1303 603 1276 q 693 1331 657 1331 q 747 1310 726 1331 q 767 1258 767 1290 q 741 1185 767 1214 q 674 1157 715 1157 z "},"Ė":{"ha":849,"x_min":3,"x_max":810,"o":"m 808 1032 l 797 808 l 710 808 l 686 954 l 379 965 l 328 579 l 649 593 l 636 482 l 319 496 l 265 78 l 647 94 l 724 263 l 810 249 l 754 0 l 3 0 l 8 57 l 114 74 l 225 956 l 131 971 l 138 1032 l 808 1032 m 521 1140 q 467 1163 490 1140 q 443 1218 443 1186 q 472 1290 443 1260 q 540 1319 501 1319 q 600 1297 576 1319 q 624 1244 624 1275 q 594 1171 624 1201 q 521 1140 565 1140 z "},"Ẹ":{"ha":849,"x_min":3,"x_max":810,"o":"m 808 1032 l 797 808 l 710 808 l 686 954 l 379 965 l 328 579 l 649 593 l 636 482 l 319 496 l 265 78 l 647 94 l 724 263 l 810 249 l 754 0 l 3 0 l 8 57 l 114 74 l 225 956 l 131 971 l 138 1032 l 808 1032 m 353 -321 q 298 -298 319 -321 q 276 -239 276 -275 q 306 -164 276 -194 q 375 -133 335 -133 q 433 -156 413 -133 q 454 -212 454 -178 q 426 -289 454 -257 q 353 -321 397 -321 z "},"È":{"ha":849,"x_min":3,"x_max":810,"o":"m 808 1032 l 797 808 l 710 808 l 686 954 l 379 965 l 328 579 l 649 593 l 636 482 l 319 496 l 265 78 l 647 94 l 724 263 l 810 249 l 754 0 l 3 0 l 8 57 l 114 74 l 225 956 l 131 971 l 138 1032 l 808 1032 m 533 1096 q 409 1178 478 1122 q 314 1285 340 1235 l 400 1357 l 586 1132 l 533 1096 z "},"Ẻ":{"ha":849,"x_min":3,"x_max":810,"o":"m 808 1032 l 797 808 l 710 808 l 686 954 l 379 965 l 328 579 l 649 593 l 636 482 l 319 496 l 265 78 l 647 94 l 724 263 l 810 249 l 754 0 l 3 0 l 8 57 l 114 74 l 225 956 l 131 971 l 138 1032 l 808 1032 m 472 1082 q 464 1114 464 1094 q 468 1136 464 1126 q 483 1155 472 1149 q 514 1169 493 1161 q 553 1191 540 1182 q 571 1221 567 1200 q 559 1260 574 1244 q 507 1279 544 1276 q 461 1275 468 1279 l 472 1356 q 496 1362 475 1358 q 532 1365 517 1365 q 688 1260 688 1365 q 686 1240 688 1247 q 659 1189 681 1210 q 597 1142 638 1168 l 571 1124 q 545 1104 553 1113 q 539 1082 538 1096 l 472 1082 z "},"Ē":{"ha":849,"x_min":3,"x_max":810,"o":"m 808 1032 l 797 808 l 710 808 l 686 954 l 379 965 l 328 579 l 649 593 l 636 482 l 319 496 l 265 78 l 647 94 l 724 263 l 810 249 l 754 0 l 3 0 l 8 57 l 114 74 l 225 956 l 131 971 l 138 1032 l 808 1032 m 715 1276 l 703 1174 l 343 1174 l 356 1276 l 715 1276 z "},"Ę":{"ha":851,"x_min":3,"x_max":810,"o":"m 697 0 q 599 -81 635 -44 q 563 -150 564 -117 q 576 -192 563 -179 q 610 -206 589 -206 q 715 -158 660 -206 l 733 -219 q 540 -297 650 -297 q 458 -270 486 -297 q 431 -201 431 -243 q 438 -160 431 -183 q 456 -119 444 -137 q 519 -52 485 -78 q 604 0 554 -26 l 3 0 l 8 57 l 114 74 l 225 956 l 131 971 l 138 1032 l 808 1032 l 797 808 l 707 808 l 685 954 l 379 965 l 328 576 l 649 590 l 636 479 l 319 492 l 263 74 l 646 90 l 724 263 l 810 249 l 754 0 l 697 0 z "},"Ẽ":{"ha":849,"x_min":3,"x_max":810,"o":"m 808 1032 l 797 808 l 710 808 l 686 954 l 379 965 l 328 579 l 649 593 l 636 482 l 319 496 l 265 78 l 647 94 l 724 263 l 810 249 l 754 0 l 3 0 l 8 57 l 114 74 l 225 956 l 131 971 l 138 1032 l 808 1032 m 281 1225 q 342 1305 300 1272 q 440 1338 383 1338 q 497 1324 474 1338 q 550 1282 521 1310 q 593 1248 576 1258 q 632 1238 610 1238 q 692 1257 667 1238 q 738 1306 717 1276 l 781 1254 q 721 1174 763 1210 q 626 1138 679 1138 q 565 1151 589 1138 q 510 1193 540 1165 q 465 1228 483 1217 q 422 1239 447 1239 q 367 1222 390 1239 q 321 1175 344 1206 l 281 1225 z "},"F":{"ha":799,"x_min":8,"x_max":831,"o":"m 831 1032 l 813 804 l 717 804 l 701 951 l 378 964 l 328 574 l 665 583 l 653 474 l 319 489 l 264 75 l 436 57 l 431 0 l 8 0 l 14 57 l 114 74 l 225 956 l 131 971 l 139 1032 l 831 1032 z "},"Ḟ":{"ha":799,"x_min":8,"x_max":831,"o":"m 831 1032 l 813 804 l 717 804 l 701 951 l 378 964 l 328 574 l 665 583 l 653 474 l 319 489 l 264 75 l 436 57 l 431 0 l 8 0 l 14 57 l 114 74 l 225 956 l 131 971 l 139 1032 l 831 1032 m 526 1140 q 472 1163 496 1140 q 449 1218 449 1186 q 478 1290 449 1260 q 546 1319 507 1319 q 606 1297 582 1319 q 629 1244 629 1275 q 600 1171 629 1201 q 526 1140 571 1140 z "},"G":{"ha":928,"x_min":58,"x_max":894,"o":"m 803 61 q 700 39 764 57 q 557 2 619 15 q 419 -11 494 -11 q 215 53 296 -11 q 96 219 133 117 q 58 439 58 321 q 126 756 58 619 q 313 968 193 893 q 583 1043 432 1043 q 737 1033 679 1043 q 863 1006 794 1024 l 894 997 l 854 788 l 753 788 l 749 932 q 680 960 719 950 q 576 971 640 971 q 375 895 456 971 q 256 700 294 819 q 218 446 218 581 q 277 176 218 286 q 454 67 336 67 q 569 79 514 67 q 658 117 625 92 l 699 411 l 528 422 l 536 497 l 864 497 l 803 61 z "},"Ǵ":{"ha":928,"x_min":58,"x_max":894,"o":"m 803 61 q 700 39 764 57 q 557 2 619 15 q 419 -11 494 -11 q 215 53 296 -11 q 96 219 133 117 q 58 439 58 321 q 126 756 58 619 q 313 968 193 893 q 583 1043 432 1043 q 737 1033 679 1043 q 863 1006 794 1024 l 894 997 l 854 788 l 753 788 l 749 932 q 680 960 719 950 q 576 971 640 971 q 375 895 456 971 q 256 700 294 819 q 218 446 218 581 q 277 176 218 286 q 454 67 336 67 q 569 79 514 67 q 658 117 625 92 l 699 411 l 528 422 l 536 497 l 864 497 l 803 61 m 715 1365 l 801 1289 q 694 1194 771 1246 q 564 1121 618 1143 l 507 1158 l 715 1365 z "},"Ğ":{"ha":928,"x_min":58,"x_max":894,"o":"m 803 61 q 700 39 764 57 q 557 2 619 15 q 419 -11 494 -11 q 215 53 296 -11 q 96 219 133 117 q 58 439 58 321 q 126 756 58 619 q 313 968 193 893 q 583 1043 432 1043 q 737 1033 679 1043 q 863 1006 794 1024 l 894 997 l 854 788 l 753 788 l 749 932 q 680 960 719 950 q 576 971 640 971 q 375 895 456 971 q 256 700 294 819 q 218 446 218 581 q 277 176 218 286 q 454 67 336 67 q 569 79 514 67 q 658 117 625 92 l 699 411 l 528 422 l 536 497 l 864 497 l 803 61 m 596 1108 q 443 1169 490 1108 q 396 1317 396 1231 q 399 1350 396 1340 l 479 1350 q 505 1251 481 1290 q 599 1211 529 1211 q 705 1253 669 1211 q 747 1350 740 1296 l 825 1350 q 795 1231 825 1286 q 713 1142 765 1175 q 596 1108 660 1108 z "},"Ǧ":{"ha":928,"x_min":58,"x_max":894,"o":"m 803 61 q 700 39 764 57 q 557 2 619 15 q 419 -11 494 -11 q 215 53 296 -11 q 96 219 133 117 q 58 439 58 321 q 126 756 58 619 q 313 968 193 893 q 583 1043 432 1043 q 737 1033 679 1043 q 863 1006 794 1024 l 894 997 l 854 788 l 753 788 l 749 932 q 680 960 719 950 q 576 971 640 971 q 375 895 456 971 q 256 700 294 819 q 218 446 218 581 q 277 176 218 286 q 454 67 336 67 q 569 79 514 67 q 658 117 625 92 l 699 411 l 528 422 l 536 497 l 864 497 l 803 61 m 453 1360 l 603 1196 l 817 1360 l 865 1326 l 644 1099 l 544 1099 l 397 1325 l 453 1360 z "},"Ĝ":{"ha":928,"x_min":58,"x_max":894,"o":"m 803 61 q 700 39 764 57 q 557 2 619 15 q 419 -11 494 -11 q 215 53 296 -11 q 96 219 133 117 q 58 439 58 321 q 126 756 58 619 q 313 968 193 893 q 583 1043 432 1043 q 737 1033 679 1043 q 863 1006 794 1024 l 894 997 l 854 788 l 753 788 l 749 932 q 680 960 719 950 q 576 971 640 971 q 375 895 456 971 q 256 700 294 819 q 218 446 218 581 q 277 176 218 286 q 454 67 336 67 q 569 79 514 67 q 658 117 625 92 l 699 411 l 528 422 l 536 497 l 864 497 l 803 61 m 569 1360 l 672 1360 l 819 1131 l 767 1096 l 613 1258 l 388 1097 l 340 1132 l 569 1360 z "},"Ģ":{"ha":928,"x_min":58,"x_max":894,"o":"m 803 61 q 700 39 764 57 q 557 2 619 15 q 419 -11 494 -11 q 215 53 296 -11 q 96 219 133 117 q 58 439 58 321 q 126 756 58 619 q 313 968 193 893 q 583 1043 432 1043 q 737 1033 679 1043 q 863 1006 794 1024 l 894 997 l 854 788 l 753 788 l 749 932 q 680 960 719 950 q 576 971 640 971 q 375 895 456 971 q 256 700 294 819 q 218 446 218 581 q 277 176 218 286 q 454 67 336 67 q 569 79 514 67 q 658 117 625 92 l 699 411 l 528 422 l 536 497 l 864 497 l 803 61 m 321 -339 q 353 -295 342 -324 q 364 -229 364 -267 q 351 -179 363 -201 q 319 -151 339 -157 l 319 -108 l 411 -60 q 470 -117 451 -76 q 489 -207 489 -158 q 453 -319 489 -272 q 379 -379 418 -367 l 321 -353 l 321 -339 z "},"Ġ":{"ha":928,"x_min":58,"x_max":894,"o":"m 803 61 q 700 39 764 57 q 557 2 619 15 q 419 -11 494 -11 q 215 53 296 -11 q 96 219 133 117 q 58 439 58 321 q 126 756 58 619 q 313 968 193 893 q 583 1043 432 1043 q 737 1033 679 1043 q 863 1006 794 1024 l 894 997 l 854 788 l 753 788 l 749 932 q 680 960 719 950 q 576 971 640 971 q 375 895 456 971 q 256 700 294 819 q 218 446 218 581 q 277 176 218 286 q 454 67 336 67 q 569 79 514 67 q 658 117 625 92 l 699 411 l 528 422 l 536 497 l 864 497 l 803 61 m 599 1140 q 544 1163 568 1140 q 521 1218 521 1186 q 550 1290 521 1260 q 618 1319 579 1319 q 678 1297 654 1319 q 701 1244 701 1275 q 672 1171 701 1201 q 599 1140 643 1140 z "},"Ḡ":{"ha":928,"x_min":58,"x_max":894,"o":"m 803 61 q 700 39 764 57 q 557 2 619 15 q 419 -11 494 -11 q 215 53 296 -11 q 96 219 133 117 q 58 439 58 321 q 126 756 58 619 q 313 968 193 893 q 583 1043 432 1043 q 737 1033 679 1043 q 863 1006 794 1024 l 894 997 l 854 788 l 753 788 l 749 932 q 680 960 719 950 q 576 971 640 971 q 375 895 456 971 q 256 700 294 819 q 218 446 218 581 q 277 176 218 286 q 454 67 336 67 q 569 79 514 67 q 658 117 625 92 l 699 411 l 528 422 l 536 497 l 864 497 l 803 61 m 793 1276 l 781 1174 l 421 1174 l 433 1276 l 793 1276 z "},"H":{"ha":1063,"x_min":10,"x_max":1085,"o":"m 494 1032 l 488 971 l 379 956 l 329 567 l 778 567 l 826 956 l 719 971 l 726 1032 l 1085 1032 l 1076 971 l 978 956 l 867 74 l 972 57 l 967 0 l 593 0 l 599 57 l 715 74 l 768 486 l 318 486 l 265 74 l 375 57 l 371 0 l 10 0 l 15 57 l 114 74 l 226 956 l 133 971 l 140 1032 l 494 1032 z "},"Ħ":{"ha":1046,"x_min":7,"x_max":1086,"o":"m 490 1033 l 483 972 l 375 957 l 350 768 l 800 768 l 824 957 l 715 972 l 722 1033 l 1081 1033 l 1072 972 l 975 957 l 950 768 l 1086 768 l 1078 689 l 942 689 l 864 74 l 968 57 l 963 0 l 590 0 l 596 57 l 713 74 l 758 436 l 308 436 l 264 74 l 372 57 l 368 0 l 7 0 l 13 57 l 111 74 l 189 689 l 57 689 l 64 768 l 199 768 l 222 957 l 128 972 l 136 1033 l 490 1033 m 318 515 l 768 515 l 789 689 l 340 689 l 318 515 z "},"Ĥ":{"ha":1063,"x_min":10,"x_max":1085,"o":"m 494 1032 l 488 971 l 379 956 l 329 567 l 778 567 l 826 956 l 719 971 l 726 1032 l 1085 1032 l 1076 971 l 978 956 l 867 74 l 972 57 l 967 0 l 593 0 l 599 57 l 715 74 l 768 486 l 318 486 l 265 74 l 375 57 l 371 0 l 10 0 l 15 57 l 114 74 l 226 956 l 133 971 l 140 1032 l 494 1032 m 603 1360 l 706 1360 l 853 1131 l 800 1096 l 646 1258 l 421 1097 l 374 1132 l 603 1360 z "},"Ḥ":{"ha":1063,"x_min":10,"x_max":1085,"o":"m 494 1032 l 488 971 l 379 956 l 329 567 l 778 567 l 826 956 l 719 971 l 726 1032 l 1085 1032 l 1076 971 l 978 956 l 867 74 l 972 57 l 967 0 l 593 0 l 599 57 l 715 74 l 768 486 l 318 486 l 265 74 l 375 57 l 371 0 l 10 0 l 15 57 l 114 74 l 226 956 l 133 971 l 140 1032 l 494 1032 m 439 -321 q 384 -298 406 -321 q 363 -239 363 -275 q 392 -164 363 -194 q 461 -133 421 -133 q 519 -156 499 -133 q 540 -212 540 -178 q 512 -289 540 -257 q 439 -321 483 -321 z "},"I":{"ha":488,"x_min":15,"x_max":501,"o":"m 501 1032 l 496 971 l 388 956 l 275 74 l 386 57 l 382 0 l 15 0 l 22 57 l 124 74 l 236 956 l 142 971 l 149 1032 l 501 1032 z "},"Ĳ":{"ha":968,"x_min":15,"x_max":996,"o":"m 501 1032 l 496 971 l 388 956 l 275 74 l 386 57 l 382 0 l 15 0 l 22 57 l 124 74 l 236 956 l 142 971 l 149 1032 l 501 1032 m 879 956 q 804 317 832 540 q 764 51 776 94 q 626 -142 725 -72 q 400 -233 526 -212 l 374 -176 q 534 -85 471 -150 q 614 60 597 -21 q 666 385 643 199 q 719 856 689 572 l 731 956 l 622 971 l 631 1032 l 996 1032 l 990 971 l 879 956 z "},"Í":{"ha":488,"x_min":15,"x_max":547,"o":"m 501 1032 l 496 971 l 388 956 l 275 74 l 386 57 l 382 0 l 15 0 l 22 57 l 124 74 l 236 956 l 142 971 l 149 1032 l 501 1032 m 461 1365 l 547 1289 q 440 1194 517 1246 q 310 1121 364 1143 l 253 1158 l 461 1365 z "},"Ĭ":{"ha":488,"x_min":15,"x_max":571,"o":"m 501 1032 l 496 971 l 388 956 l 275 74 l 386 57 l 382 0 l 15 0 l 22 57 l 124 74 l 236 956 l 142 971 l 149 1032 l 501 1032 m 342 1108 q 189 1169 236 1108 q 142 1317 142 1231 q 144 1350 142 1340 l 225 1350 q 251 1251 226 1290 q 344 1211 275 1211 q 451 1253 415 1211 q 493 1350 486 1296 l 571 1350 q 541 1231 571 1286 q 458 1142 511 1175 q 342 1108 406 1108 z "},"Ǐ":{"ha":488,"x_min":15,"x_max":611,"o":"m 501 1032 l 496 971 l 388 956 l 275 74 l 386 57 l 382 0 l 15 0 l 22 57 l 124 74 l 236 956 l 142 971 l 149 1032 l 501 1032 m 199 1360 l 349 1196 l 563 1360 l 611 1326 l 390 1099 l 290 1099 l 143 1325 l 199 1360 z "},"Î":{"ha":488,"x_min":15,"x_max":565,"o":"m 501 1032 l 496 971 l 388 956 l 275 74 l 386 57 l 382 0 l 15 0 l 22 57 l 124 74 l 236 956 l 142 971 l 149 1032 l 501 1032 m 315 1360 l 418 1360 l 565 1131 l 513 1096 l 358 1258 l 133 1097 l 86 1132 l 315 1360 z "},"Ï":{"ha":488,"x_min":15,"x_max":590,"o":"m 501 1032 l 496 971 l 388 956 l 275 74 l 386 57 l 382 0 l 15 0 l 22 57 l 124 74 l 236 956 l 142 971 l 149 1032 l 501 1032 m 193 1157 q 144 1178 164 1157 q 124 1232 124 1200 q 149 1302 124 1274 q 213 1331 175 1331 q 268 1310 249 1331 q 288 1256 288 1289 q 261 1185 288 1213 q 193 1157 235 1157 m 497 1157 q 447 1179 467 1157 q 426 1235 426 1201 q 453 1303 426 1276 q 517 1331 481 1331 q 570 1310 550 1331 q 590 1258 590 1290 q 565 1185 590 1214 q 497 1157 539 1157 z "},"İ":{"ha":488,"x_min":15,"x_max":501,"o":"m 501 1032 l 496 971 l 388 956 l 275 74 l 386 57 l 382 0 l 15 0 l 22 57 l 124 74 l 236 956 l 142 971 l 149 1032 l 501 1032 m 344 1140 q 290 1163 314 1140 q 267 1218 267 1186 q 296 1290 267 1260 q 364 1319 325 1319 q 424 1297 400 1319 q 447 1244 447 1275 q 418 1171 447 1201 q 344 1140 389 1140 z "},"Ị":{"ha":488,"x_min":15,"x_max":501,"o":"m 501 1032 l 496 971 l 388 956 l 275 74 l 386 57 l 382 0 l 15 0 l 22 57 l 124 74 l 236 956 l 142 971 l 149 1032 l 501 1032 m 147 -321 q 92 -298 114 -321 q 71 -239 71 -275 q 100 -164 71 -194 q 169 -133 129 -133 q 228 -156 207 -133 q 249 -212 249 -178 q 220 -289 249 -257 q 147 -321 192 -321 z "},"Ì":{"ha":488,"x_min":15,"x_max":501,"o":"m 501 1032 l 496 971 l 388 956 l 275 74 l 386 57 l 382 0 l 15 0 l 22 57 l 124 74 l 236 956 l 142 971 l 149 1032 l 501 1032 m 357 1096 q 233 1178 301 1122 q 138 1285 164 1235 l 224 1357 l 410 1132 l 357 1096 z "},"Ỉ":{"ha":488,"x_min":15,"x_max":511,"o":"m 501 1032 l 496 971 l 388 956 l 275 74 l 386 57 l 382 0 l 15 0 l 22 57 l 124 74 l 236 956 l 142 971 l 149 1032 l 501 1032 m 296 1082 q 288 1114 288 1094 q 292 1136 288 1126 q 306 1155 296 1149 q 338 1169 317 1161 q 377 1191 364 1182 q 394 1221 390 1200 q 383 1260 397 1244 q 331 1279 368 1276 q 285 1275 292 1279 l 296 1356 q 319 1362 299 1358 q 356 1365 340 1365 q 511 1260 511 1365 q 510 1240 511 1247 q 483 1189 504 1210 q 421 1142 461 1168 l 394 1124 q 369 1104 376 1113 q 363 1082 361 1096 l 296 1082 z "},"Ī":{"ha":488,"x_min":15,"x_max":539,"o":"m 501 1032 l 496 971 l 388 956 l 275 74 l 386 57 l 382 0 l 15 0 l 22 57 l 124 74 l 236 956 l 142 971 l 149 1032 l 501 1032 m 539 1276 l 526 1174 l 167 1174 l 179 1276 l 539 1276 z "},"Į":{"ha":488,"x_min":8,"x_max":501,"o":"m 278 0 q 180 -80 215 -43 q 144 -150 144 -117 q 190 -204 143 -204 q 249 -192 218 -204 q 306 -158 279 -181 l 324 -219 q 240 -275 289 -253 q 131 -297 190 -297 q 41 -267 74 -297 q 11 -194 8 -236 q 19 -154 11 -176 q 38 -115 26 -132 q 102 -48 68 -74 q 181 0 136 -22 l 15 0 l 22 57 l 124 74 l 236 956 l 142 971 l 149 1032 l 501 1032 l 496 971 l 388 956 l 275 74 l 386 57 l 382 0 l 278 0 z "},"Ĩ":{"ha":488,"x_min":15,"x_max":604,"o":"m 501 1032 l 496 971 l 388 956 l 275 74 l 386 57 l 382 0 l 15 0 l 22 57 l 124 74 l 236 956 l 142 971 l 149 1032 l 501 1032 m 104 1225 q 165 1305 124 1272 q 264 1338 207 1338 q 321 1324 297 1338 q 374 1282 344 1310 q 417 1248 400 1258 q 456 1238 433 1238 q 515 1257 490 1238 q 561 1306 540 1276 l 604 1254 q 544 1174 586 1210 q 450 1138 503 1138 q 388 1151 413 1138 q 333 1193 364 1165 q 289 1228 307 1217 q 246 1239 271 1239 q 191 1222 214 1239 q 144 1175 168 1206 l 104 1225 z "},"J":{"ha":481,"x_min":-114,"x_max":508,"o":"m 392 956 q 317 317 344 540 q 276 51 289 94 q 138 -142 238 -72 q -87 -233 39 -212 l -114 -176 q 47 -85 -17 -150 q 126 60 110 -21 q 178 385 156 199 q 232 856 201 572 l 243 956 l 135 971 l 143 1032 l 508 1032 l 503 971 l 392 956 z "},"Ĵ":{"ha":481,"x_min":-114,"x_max":564,"o":"m 392 956 q 317 317 344 540 q 276 51 289 94 q 138 -142 238 -72 q -87 -233 39 -212 l -114 -176 q 47 -85 -17 -150 q 126 60 110 -21 q 178 385 156 199 q 232 856 201 572 l 243 956 l 135 971 l 143 1032 l 508 1032 l 503 971 l 392 956 m 314 1360 l 417 1360 l 564 1131 l 511 1096 l 357 1258 l 132 1097 l 85 1132 l 314 1360 z "},"K":{"ha":949,"x_min":6,"x_max":985,"o":"m 536 581 q 621 431 569 526 q 700 292 669 343 q 725 250 713 269 q 799 127 775 163 q 842 81 822 92 l 929 58 l 922 0 l 711 0 q 663 44 690 1 q 592 175 636 88 l 576 206 q 510 339 544 265 q 439 479 460 442 l 297 331 l 264 74 l 375 57 l 369 0 l 6 0 l 13 57 l 114 74 l 225 956 l 132 971 l 139 1032 l 493 1032 l 486 971 l 378 956 l 313 453 l 771 956 l 678 971 l 685 1032 l 985 1032 l 976 971 l 893 956 l 536 581 z "},"Ķ":{"ha":949,"x_min":6,"x_max":985,"o":"m 536 581 q 621 431 569 526 q 700 292 669 343 q 725 250 713 269 q 799 127 775 163 q 842 81 822 92 l 929 58 l 922 0 l 711 0 q 663 44 690 1 q 592 175 636 88 l 576 206 q 510 339 544 265 q 439 479 460 442 l 297 331 l 264 74 l 375 57 l 369 0 l 6 0 l 13 57 l 114 74 l 225 956 l 132 971 l 139 1032 l 493 1032 l 486 971 l 378 956 l 313 453 l 771 956 l 678 971 l 685 1032 l 985 1032 l 976 971 l 893 956 l 536 581 m 386 -339 q 418 -295 407 -324 q 429 -229 429 -267 q 416 -179 428 -201 q 385 -151 404 -157 l 385 -108 l 476 -60 q 535 -117 517 -76 q 554 -207 554 -158 q 519 -319 554 -272 q 444 -379 483 -367 l 386 -353 l 386 -339 z "},"L":{"ha":817,"x_min":10,"x_max":778,"o":"m 504 1032 l 499 971 l 378 956 l 264 72 l 589 81 l 694 342 l 778 328 l 710 0 l 10 0 l 15 57 l 114 74 l 225 956 l 132 971 l 139 1032 l 504 1032 z "},"Ǉ":{"ha":1297,"x_min":10,"x_max":1325,"o":"m 504 1032 l 499 971 l 378 956 l 264 72 l 589 81 l 694 342 l 778 328 l 710 0 l 10 0 l 15 57 l 114 74 l 225 956 l 132 971 l 139 1032 l 504 1032 m 1208 956 q 1133 317 1161 540 q 1093 51 1106 94 q 955 -142 1054 -72 q 729 -233 856 -212 l 703 -176 q 863 -85 800 -150 q 943 60 926 -21 q 995 385 972 199 q 1049 856 1018 572 l 1060 956 l 951 971 l 960 1032 l 1325 1032 l 1319 971 l 1208 956 z "},"Ĺ":{"ha":817,"x_min":10,"x_max":778,"o":"m 504 1032 l 499 971 l 378 956 l 264 72 l 589 81 l 694 342 l 778 328 l 710 0 l 10 0 l 15 57 l 114 74 l 225 956 l 132 971 l 139 1032 l 504 1032 m 458 1365 l 544 1289 q 438 1194 514 1246 q 307 1121 361 1143 l 250 1158 l 458 1365 z "},"Ľ":{"ha":817,"x_min":10,"x_max":786,"o":"m 504 1032 l 499 971 l 378 956 l 264 72 l 589 81 l 694 342 l 778 328 l 710 0 l 10 0 l 15 57 l 114 74 l 225 956 l 132 971 l 139 1032 l 504 1032 m 646 789 l 642 801 q 650 944 650 871 q 633 1067 650 1029 l 640 1093 l 774 1093 q 786 989 786 1060 q 772 883 786 943 q 740 789 758 824 l 646 789 z "},"Ļ":{"ha":817,"x_min":10,"x_max":778,"o":"m 504 1032 l 499 971 l 378 956 l 264 72 l 589 81 l 694 342 l 778 328 l 710 0 l 10 0 l 15 57 l 114 74 l 225 956 l 132 971 l 139 1032 l 504 1032 m 278 -339 q 310 -295 299 -324 q 321 -229 321 -267 q 308 -179 319 -201 q 276 -151 296 -157 l 276 -108 l 368 -60 q 427 -117 408 -76 q 446 -207 446 -158 q 410 -319 446 -272 q 336 -379 375 -367 l 278 -353 l 278 -339 z "},"Ŀ":{"ha":876,"x_min":10,"x_max":901,"o":"m 504 1032 l 499 971 l 378 956 l 264 72 l 589 81 l 694 322 l 778 308 l 710 0 l 10 0 l 15 57 l 114 74 l 225 956 l 132 971 l 139 1032 l 504 1032 m 724 554 q 753 635 724 603 q 822 667 782 667 q 881 644 860 667 q 901 589 901 622 q 870 506 901 536 q 796 475 839 475 q 744 497 765 475 q 724 554 724 518 z "},"Ḷ":{"ha":817,"x_min":10,"x_max":778,"o":"m 504 1032 l 499 971 l 378 956 l 264 72 l 589 81 l 694 342 l 778 328 l 710 0 l 10 0 l 15 57 l 114 74 l 225 956 l 132 971 l 139 1032 l 504 1032 m 338 -321 q 283 -298 304 -321 q 261 -239 261 -275 q 290 -164 261 -194 q 360 -133 319 -133 q 418 -156 397 -133 q 439 -212 439 -178 q 410 -289 439 -257 q 338 -321 382 -321 z "},"ǈ":{"ha":1257,"x_min":10,"x_max":1207,"o":"m 504 1032 l 499 971 l 378 956 l 264 72 l 589 81 l 694 342 l 778 328 l 710 0 l 10 0 l 15 57 l 114 74 l 225 956 l 132 971 l 139 1032 l 504 1032 m 1078 1 q 977 -260 1058 -167 q 775 -354 896 -354 q 708 -347 739 -354 q 664 -329 676 -340 l 686 -268 q 717 -275 699 -272 q 749 -278 735 -278 q 877 -194 836 -278 q 936 40 918 -110 l 1008 679 l 907 708 l 918 756 l 1139 788 l 1169 772 l 1078 1 m 1106 935 q 1051 958 1074 935 q 1028 1015 1028 982 q 1058 1089 1028 1058 q 1128 1119 1088 1119 q 1186 1097 1165 1119 q 1207 1040 1207 1074 q 1178 965 1206 996 q 1106 935 1150 935 z "},"Ł":{"ha":817,"x_min":10,"x_max":778,"o":"m 504 1033 l 499 972 l 378 957 l 339 656 l 607 771 l 628 694 l 328 569 l 264 74 l 589 82 l 694 343 l 778 329 l 710 1 l 10 1 l 15 58 l 114 75 l 168 504 l 64 463 l 43 532 l 178 589 l 225 957 l 132 972 l 139 1033 l 504 1033 z "},"M":{"ha":1307,"x_min":-43,"x_max":1304,"o":"m 700 365 q 846 699 743 471 q 913 848 863 738 q 992 1032 963 958 l 1304 1032 l 1297 971 l 1175 956 l 1149 74 l 1265 57 l 1261 0 l 867 0 l 872 57 l 999 74 l 1031 683 l 1049 964 l 944 717 l 625 -3 l 546 -12 l 435 700 l 392 963 l 335 693 l 188 74 l 328 57 l 324 0 l -43 0 l -36 57 l 78 74 l 301 956 l 174 971 l 182 1032 l 522 1032 l 624 367 l 642 229 l 700 365 z "},"Ḿ":{"ha":1307,"x_min":-43,"x_max":1304,"o":"m 700 365 q 846 699 743 471 q 913 848 863 738 q 992 1032 963 958 l 1304 1032 l 1297 971 l 1175 956 l 1149 74 l 1265 57 l 1261 0 l 867 0 l 872 57 l 999 74 l 1031 683 l 1049 964 l 944 717 l 625 -3 l 546 -12 l 435 700 l 392 963 l 335 693 l 188 74 l 328 57 l 324 0 l -43 0 l -36 57 l 78 74 l 301 956 l 174 971 l 182 1032 l 522 1032 l 624 367 l 642 229 l 700 365 m 872 1365 l 958 1289 q 851 1194 928 1246 q 721 1121 775 1143 l 664 1158 l 872 1365 z "},"Ṁ":{"ha":1307,"x_min":-43,"x_max":1304,"o":"m 700 365 q 846 699 743 471 q 913 848 863 738 q 992 1032 963 958 l 1304 1032 l 1297 971 l 1175 956 l 1149 74 l 1265 57 l 1261 0 l 867 0 l 872 57 l 999 74 l 1031 683 l 1049 964 l 944 717 l 625 -3 l 546 -12 l 435 700 l 392 963 l 335 693 l 188 74 l 328 57 l 324 0 l -43 0 l -36 57 l 78 74 l 301 956 l 174 971 l 182 1032 l 522 1032 l 624 367 l 642 229 l 700 365 m 756 1140 q 701 1163 725 1140 q 678 1218 678 1186 q 707 1290 678 1260 q 775 1319 736 1319 q 835 1297 811 1319 q 858 1244 858 1275 q 829 1171 858 1201 q 756 1140 800 1140 z "},"N":{"ha":1035,"x_min":8,"x_max":1072,"o":"m 400 1032 l 714 293 l 768 139 l 867 956 l 756 971 l 763 1032 l 1072 1032 l 1067 971 l 969 956 l 833 0 l 682 0 l 364 743 l 311 904 l 219 74 l 339 57 l 335 0 l 8 0 l 14 57 l 110 74 l 231 956 l 126 971 l 136 1032 l 400 1032 z "},"Ǌ":{"ha":1515,"x_min":8,"x_max":1543,"o":"m 400 1032 l 714 293 l 768 139 l 867 956 l 756 971 l 763 1032 l 1072 1032 l 1067 971 l 969 956 l 833 0 l 682 0 l 364 743 l 311 904 l 219 74 l 339 57 l 335 0 l 8 0 l 14 57 l 110 74 l 231 956 l 126 971 l 136 1032 l 400 1032 m 1426 956 q 1351 317 1379 540 q 1311 51 1324 94 q 1173 -142 1272 -72 q 947 -233 1074 -212 l 921 -176 q 1081 -85 1018 -150 q 1161 60 1144 -21 q 1213 385 1190 199 q 1267 856 1236 572 l 1278 956 l 1169 971 l 1178 1032 l 1543 1032 l 1538 971 l 1426 956 z "},"Ń":{"ha":1035,"x_min":8,"x_max":1072,"o":"m 400 1032 l 714 293 l 768 139 l 867 956 l 756 971 l 763 1032 l 1072 1032 l 1067 971 l 969 956 l 833 0 l 682 0 l 364 743 l 311 904 l 219 74 l 339 57 l 335 0 l 8 0 l 14 57 l 110 74 l 231 956 l 126 971 l 136 1032 l 400 1032 m 743 1365 l 829 1289 q 722 1194 799 1246 q 592 1121 646 1143 l 535 1158 l 743 1365 z "},"Ň":{"ha":1035,"x_min":8,"x_max":1072,"o":"m 400 1032 l 714 293 l 768 139 l 867 956 l 756 971 l 763 1032 l 1072 1032 l 1067 971 l 969 956 l 833 0 l 682 0 l 364 743 l 311 904 l 219 74 l 339 57 l 335 0 l 8 0 l 14 57 l 110 74 l 231 956 l 126 971 l 136 1032 l 400 1032 m 481 1360 l 631 1196 l 844 1360 l 893 1326 l 672 1099 l 572 1099 l 425 1325 l 481 1360 z "},"Ņ":{"ha":1035,"x_min":8,"x_max":1072,"o":"m 400 1032 l 714 293 l 768 139 l 867 956 l 756 971 l 763 1032 l 1072 1032 l 1067 971 l 969 956 l 833 0 l 682 0 l 364 743 l 311 904 l 219 74 l 339 57 l 335 0 l 8 0 l 14 57 l 110 74 l 231 956 l 126 971 l 136 1032 l 400 1032 m 386 -339 q 418 -295 407 -324 q 429 -229 429 -267 q 416 -179 428 -201 q 385 -151 404 -157 l 385 -108 l 476 -60 q 535 -117 517 -76 q 554 -207 554 -158 q 519 -319 554 -272 q 444 -379 483 -367 l 386 -353 l 386 -339 z "},"Ṅ":{"ha":1035,"x_min":8,"x_max":1072,"o":"m 400 1032 l 714 293 l 768 139 l 867 956 l 756 971 l 763 1032 l 1072 1032 l 1067 971 l 969 956 l 833 0 l 682 0 l 364 743 l 311 904 l 219 74 l 339 57 l 335 0 l 8 0 l 14 57 l 110 74 l 231 956 l 126 971 l 136 1032 l 400 1032 m 626 1140 q 572 1163 596 1140 q 549 1218 549 1186 q 578 1290 549 1260 q 646 1319 607 1319 q 706 1297 682 1319 q 729 1244 729 1275 q 700 1171 729 1201 q 626 1140 671 1140 z "},"Ṇ":{"ha":1035,"x_min":8,"x_max":1072,"o":"m 400 1032 l 714 293 l 768 139 l 867 956 l 756 971 l 763 1032 l 1072 1032 l 1067 971 l 969 956 l 833 0 l 682 0 l 364 743 l 311 904 l 219 74 l 339 57 l 335 0 l 8 0 l 14 57 l 110 74 l 231 956 l 126 971 l 136 1032 l 400 1032 m 446 -321 q 391 -298 413 -321 q 369 -239 369 -275 q 399 -164 369 -194 q 468 -133 428 -133 q 526 -156 506 -133 q 547 -212 547 -178 q 519 -289 547 -257 q 446 -321 490 -321 z "},"Ŋ":{"ha":1036,"x_min":8,"x_max":1071,"o":"m 481 -218 q 630 -137 565 -194 q 701 -1 694 -81 l 364 739 l 311 888 l 222 74 l 340 57 l 335 0 l 8 0 l 14 57 l 111 74 l 232 958 l 125 974 l 135 1033 l 400 1033 l 722 314 l 771 167 l 864 958 l 756 974 l 763 1033 l 1071 1033 l 1065 974 l 968 958 l 835 0 q 725 -188 819 -115 q 503 -276 631 -261 l 481 -218 z "},"ǋ":{"ha":1475,"x_min":8,"x_max":1425,"o":"m 400 1032 l 714 293 l 768 139 l 867 956 l 756 971 l 763 1032 l 1072 1032 l 1067 971 l 969 956 l 833 0 l 682 0 l 364 743 l 311 904 l 219 74 l 339 57 l 335 0 l 8 0 l 14 57 l 110 74 l 231 956 l 126 971 l 136 1032 l 400 1032 m 1296 1 q 1195 -260 1276 -167 q 993 -354 1114 -354 q 926 -347 957 -354 q 882 -329 894 -340 l 904 -268 q 935 -275 917 -272 q 967 -278 953 -278 q 1095 -194 1054 -278 q 1154 40 1136 -110 l 1226 679 l 1125 708 l 1136 756 l 1357 788 l 1388 772 l 1296 1 m 1324 935 q 1269 958 1292 935 q 1246 1015 1246 982 q 1276 1089 1246 1058 q 1346 1119 1306 1119 q 1404 1097 1383 1119 q 1425 1040 1425 1074 q 1396 965 1424 996 q 1324 935 1368 935 z "},"Ñ":{"ha":1035,"x_min":8,"x_max":1072,"o":"m 400 1032 l 714 293 l 768 139 l 867 956 l 756 971 l 763 1032 l 1072 1032 l 1067 971 l 969 956 l 833 0 l 682 0 l 364 743 l 311 904 l 219 74 l 339 57 l 335 0 l 8 0 l 14 57 l 110 74 l 231 956 l 126 971 l 136 1032 l 400 1032 m 386 1225 q 447 1305 406 1272 q 546 1338 489 1338 q 603 1324 579 1338 q 656 1282 626 1310 q 699 1248 682 1258 q 738 1238 715 1238 q 797 1257 772 1238 q 843 1306 822 1276 l 886 1254 q 826 1174 868 1210 q 732 1138 785 1138 q 670 1151 694 1138 q 615 1193 646 1165 q 571 1228 589 1217 q 528 1239 553 1239 q 473 1222 496 1239 q 426 1175 450 1206 l 386 1225 z "},"O":{"ha":957,"x_min":65,"x_max":917,"o":"m 560 1046 q 760 986 679 1046 q 878 826 840 926 q 917 600 917 725 q 857 291 917 431 q 686 69 797 151 q 425 -14 575 -14 q 226 44 307 -14 q 105 202 144 101 q 65 431 65 303 q 126 742 65 601 q 300 964 188 882 q 560 1046 413 1046 m 542 972 q 378 903 450 972 q 265 713 306 833 q 225 446 225 592 q 280 167 225 275 q 442 58 335 58 q 606 127 535 58 q 717 317 678 196 q 756 589 756 438 q 701 869 756 767 q 542 972 647 972 z "},"Ó":{"ha":957,"x_min":67,"x_max":918,"o":"m 711 1365 l 797 1289 q 690 1194 767 1246 q 560 1121 614 1143 l 503 1158 l 711 1365 m 561 1046 q 761 986 681 1046 q 880 826 842 926 q 918 600 918 725 q 858 291 918 431 q 688 69 799 151 q 426 -14 576 -14 q 227 44 308 -14 q 106 202 146 101 q 67 431 67 303 q 128 742 67 601 q 301 964 189 882 q 561 1046 414 1046 m 543 972 q 379 903 451 972 q 267 713 307 833 q 226 446 226 592 q 281 167 226 275 q 443 58 336 58 q 608 127 536 58 q 718 317 679 196 q 757 589 757 438 q 703 869 757 767 q 543 972 649 972 z "},"Ŏ":{"ha":957,"x_min":65,"x_max":917,"o":"m 560 1046 q 760 986 679 1046 q 878 826 840 926 q 917 600 917 725 q 857 291 917 431 q 686 69 797 151 q 425 -14 575 -14 q 226 44 307 -14 q 105 202 144 101 q 65 431 65 303 q 126 742 65 601 q 300 964 188 882 q 560 1046 413 1046 m 542 972 q 378 903 450 972 q 265 713 306 833 q 225 446 225 592 q 280 167 225 275 q 442 58 335 58 q 606 127 535 58 q 717 317 678 196 q 756 589 756 438 q 701 869 756 767 q 542 972 647 972 m 589 1108 q 436 1169 483 1108 q 389 1317 389 1231 q 392 1350 389 1340 l 472 1350 q 498 1251 474 1290 q 592 1211 522 1211 q 698 1253 663 1211 q 740 1350 733 1296 l 818 1350 q 788 1231 818 1286 q 706 1142 758 1175 q 589 1108 653 1108 z "},"Ǒ":{"ha":957,"x_min":65,"x_max":917,"o":"m 560 1046 q 760 986 679 1046 q 878 826 840 926 q 917 600 917 725 q 857 291 917 431 q 686 69 797 151 q 425 -14 575 -14 q 226 44 307 -14 q 105 202 144 101 q 65 431 65 303 q 126 742 65 601 q 300 964 188 882 q 560 1046 413 1046 m 542 972 q 378 903 450 972 q 265 713 306 833 q 225 446 225 592 q 280 167 225 275 q 442 58 335 58 q 606 127 535 58 q 717 317 678 196 q 756 589 756 438 q 701 869 756 767 q 542 972 647 972 m 446 1360 l 596 1196 l 810 1360 l 858 1326 l 638 1099 l 538 1099 l 390 1325 l 446 1360 z "},"Ô":{"ha":957,"x_min":65,"x_max":917,"o":"m 560 1046 q 760 986 679 1046 q 878 826 840 926 q 917 600 917 725 q 857 291 917 431 q 686 69 797 151 q 425 -14 575 -14 q 226 44 307 -14 q 105 202 144 101 q 65 431 65 303 q 126 742 65 601 q 300 964 188 882 q 560 1046 413 1046 m 542 972 q 378 903 450 972 q 265 713 306 833 q 225 446 225 592 q 280 167 225 275 q 442 58 335 58 q 606 127 535 58 q 717 317 678 196 q 756 589 756 438 q 701 869 756 767 q 542 972 647 972 m 563 1360 l 665 1360 l 813 1131 l 760 1096 l 606 1258 l 381 1097 l 333 1132 l 563 1360 z "},"Ố":{"ha":957,"x_min":65,"x_max":1051,"o":"m 560 1046 q 760 986 679 1046 q 878 826 840 926 q 917 600 917 725 q 857 291 917 431 q 686 69 797 151 q 425 -14 575 -14 q 226 44 307 -14 q 105 202 144 101 q 65 431 65 303 q 126 742 65 601 q 300 964 188 882 q 560 1046 413 1046 m 542 972 q 378 903 450 972 q 265 713 306 833 q 225 446 225 592 q 280 167 225 275 q 442 58 335 58 q 606 127 535 58 q 717 317 678 196 q 756 589 756 438 q 701 869 756 767 q 542 972 647 972 m 826 1224 l 979 1365 l 1051 1296 q 875 1168 992 1226 l 826 1224 m 678 1321 l 821 1131 l 760 1079 l 601 1215 l 397 1079 l 353 1131 l 557 1321 l 678 1321 z "},"Ộ":{"ha":957,"x_min":65,"x_max":917,"o":"m 560 1046 q 760 986 679 1046 q 878 826 840 926 q 917 600 917 725 q 857 291 917 431 q 686 69 797 151 q 425 -14 575 -14 q 226 44 307 -14 q 105 202 144 101 q 65 431 65 303 q 126 742 65 601 q 300 964 188 882 q 560 1046 413 1046 m 542 972 q 378 903 450 972 q 265 713 306 833 q 225 446 225 592 q 280 167 225 275 q 442 58 335 58 q 606 127 535 58 q 717 317 678 196 q 756 589 756 438 q 701 869 756 767 q 542 972 647 972 m 379 -321 q 324 -298 346 -321 q 303 -239 303 -275 q 332 -164 303 -194 q 401 -133 361 -133 q 460 -156 439 -133 q 481 -212 481 -178 q 452 -289 481 -257 q 379 -321 424 -321 m 563 1360 l 665 1360 l 813 1131 l 760 1096 l 606 1258 l 381 1097 l 333 1132 l 563 1360 z "},"Ồ":{"ha":957,"x_min":65,"x_max":976,"o":"m 560 1046 q 760 986 679 1046 q 878 826 840 926 q 917 600 917 725 q 857 291 917 431 q 686 69 797 151 q 425 -14 575 -14 q 226 44 307 -14 q 105 202 144 101 q 65 431 65 303 q 126 742 65 601 q 300 964 188 882 q 560 1046 413 1046 m 542 972 q 378 903 450 972 q 265 713 306 833 q 225 446 225 592 q 280 167 225 275 q 442 58 335 58 q 606 127 535 58 q 717 317 678 196 q 756 589 756 438 q 701 869 756 767 q 542 972 647 972 m 939 1132 q 849 1215 901 1156 q 772 1314 796 1274 l 846 1365 l 976 1161 l 939 1132 m 668 1319 l 811 1107 l 753 1067 l 596 1217 l 385 1067 l 342 1106 l 557 1319 l 668 1319 z "},"Ổ":{"ha":957,"x_min":65,"x_max":1049,"o":"m 560 1046 q 760 986 679 1046 q 878 826 840 926 q 917 600 917 725 q 857 291 917 431 q 686 69 797 151 q 425 -14 575 -14 q 226 44 307 -14 q 105 202 144 101 q 65 431 65 303 q 126 742 65 601 q 300 964 188 882 q 560 1046 413 1046 m 542 972 q 378 903 450 972 q 265 713 306 833 q 225 446 225 592 q 280 167 225 275 q 442 58 335 58 q 606 127 535 58 q 717 317 678 196 q 756 589 756 438 q 701 869 756 767 q 542 972 647 972 m 872 1082 q 858 1133 856 1115 q 873 1163 861 1151 q 906 1186 885 1174 q 939 1210 928 1199 q 950 1243 950 1222 q 938 1275 950 1261 q 896 1289 925 1289 q 866 1285 882 1289 q 842 1276 850 1282 l 850 1356 q 877 1363 853 1360 q 918 1365 901 1365 q 1049 1275 1049 1365 q 1030 1207 1049 1231 q 974 1158 1011 1183 q 943 1136 946 1139 q 926 1093 925 1119 l 872 1082 m 675 1307 l 818 1126 l 758 1076 l 597 1203 l 396 1075 l 351 1126 l 553 1307 l 675 1307 z "},"Ỗ":{"ha":957,"x_min":65,"x_max":917,"o":"m 560 1046 q 760 986 679 1046 q 878 826 840 926 q 917 600 917 725 q 857 291 917 431 q 686 69 797 151 q 425 -14 575 -14 q 226 44 307 -14 q 105 202 144 101 q 65 431 65 303 q 126 742 65 601 q 300 964 188 882 q 560 1046 413 1046 m 542 972 q 378 903 450 972 q 265 713 306 833 q 225 446 225 592 q 280 167 225 275 q 442 58 335 58 q 606 127 535 58 q 717 317 678 196 q 756 589 756 438 q 701 869 756 767 q 542 972 647 972 m 403 1339 q 428 1392 407 1364 q 481 1438 449 1419 q 551 1457 513 1457 q 603 1445 581 1457 q 654 1411 626 1433 q 692 1384 676 1393 q 725 1375 707 1375 q 773 1386 757 1375 q 815 1426 789 1397 l 857 1393 q 797 1315 840 1346 q 700 1283 754 1283 q 655 1294 675 1283 q 606 1326 635 1306 q 564 1355 581 1346 q 529 1364 547 1364 q 488 1349 507 1364 q 443 1307 468 1335 l 403 1339 m 664 1250 l 835 1122 l 776 1068 l 590 1158 l 369 1067 l 335 1122 l 544 1250 l 664 1250 z "},"Ö":{"ha":957,"x_min":65,"x_max":917,"o":"m 560 1046 q 760 986 679 1046 q 878 826 840 926 q 917 600 917 725 q 857 291 917 431 q 686 69 797 151 q 425 -14 575 -14 q 226 44 307 -14 q 105 202 144 101 q 65 431 65 303 q 126 742 65 601 q 300 964 188 882 q 560 1046 413 1046 m 542 972 q 378 903 450 972 q 265 713 306 833 q 225 446 225 592 q 280 167 225 275 q 442 58 335 58 q 606 127 535 58 q 717 317 678 196 q 756 589 756 438 q 701 869 756 767 q 542 972 647 972 m 440 1157 q 391 1178 411 1157 q 371 1232 371 1200 q 397 1302 371 1274 q 460 1331 422 1331 q 515 1310 496 1331 q 535 1256 535 1289 q 508 1185 535 1213 q 440 1157 482 1157 m 744 1157 q 694 1179 714 1157 q 674 1235 674 1201 q 701 1303 674 1276 q 764 1331 728 1331 q 817 1310 797 1331 q 838 1258 838 1290 q 812 1185 838 1214 q 744 1157 786 1157 z "},"Ọ":{"ha":957,"x_min":65,"x_max":917,"o":"m 560 1046 q 760 986 679 1046 q 878 826 840 926 q 917 600 917 725 q 857 291 917 431 q 686 69 797 151 q 425 -14 575 -14 q 226 44 307 -14 q 105 202 144 101 q 65 431 65 303 q 126 742 65 601 q 300 964 188 882 q 560 1046 413 1046 m 542 972 q 378 903 450 972 q 265 713 306 833 q 225 446 225 592 q 280 167 225 275 q 442 58 335 58 q 606 127 535 58 q 717 317 678 196 q 756 589 756 438 q 701 869 756 767 q 542 972 647 972 m 379 -321 q 324 -298 346 -321 q 303 -239 303 -275 q 332 -164 303 -194 q 401 -133 361 -133 q 460 -156 439 -133 q 481 -212 481 -178 q 452 -289 481 -257 q 379 -321 424 -321 z "},"Ò":{"ha":957,"x_min":65,"x_max":917,"o":"m 560 1046 q 760 986 679 1046 q 878 826 840 926 q 917 600 917 725 q 857 291 917 431 q 686 69 797 151 q 425 -14 575 -14 q 226 44 307 -14 q 105 202 144 101 q 65 431 65 303 q 126 742 65 601 q 300 964 188 882 q 560 1046 413 1046 m 542 972 q 378 903 450 972 q 265 713 306 833 q 225 446 225 592 q 280 167 225 275 q 442 58 335 58 q 606 127 535 58 q 717 317 678 196 q 756 589 756 438 q 701 869 756 767 q 542 972 647 972 m 604 1096 q 480 1178 549 1122 q 385 1285 411 1235 l 471 1357 l 657 1132 l 604 1096 z "},"Ỏ":{"ha":957,"x_min":65,"x_max":917,"o":"m 560 1046 q 760 986 679 1046 q 878 826 840 926 q 917 600 917 725 q 857 291 917 431 q 686 69 797 151 q 425 -14 575 -14 q 226 44 307 -14 q 105 202 144 101 q 65 431 65 303 q 126 742 65 601 q 300 964 188 882 q 560 1046 413 1046 m 542 972 q 378 903 450 972 q 265 713 306 833 q 225 446 225 592 q 280 167 225 275 q 442 58 335 58 q 606 127 535 58 q 717 317 678 196 q 756 589 756 438 q 701 869 756 767 q 542 972 647 972 m 543 1082 q 535 1114 535 1094 q 539 1136 535 1126 q 553 1155 543 1149 q 585 1169 564 1161 q 624 1191 611 1182 q 642 1221 638 1200 q 630 1260 644 1244 q 578 1279 615 1276 q 532 1275 539 1279 l 543 1356 q 567 1362 546 1358 q 603 1365 588 1365 q 758 1260 758 1365 q 757 1240 758 1247 q 730 1189 751 1210 q 668 1142 708 1168 l 642 1124 q 616 1104 624 1113 q 610 1082 608 1096 l 543 1082 z "},"Ơ":{"ha":949,"x_min":65,"x_max":1043,"o":"m 65 431 q 126 742 65 601 q 300 964 188 882 q 560 1046 413 1046 q 711 1015 643 1046 q 824 1041 778 1017 q 893 1100 871 1065 q 915 1172 915 1135 q 913 1201 915 1194 l 1039 1201 q 1043 1171 1043 1188 q 978 1017 1043 1075 q 810 942 914 958 q 890 792 864 881 q 917 600 917 704 q 857 291 917 431 q 686 69 797 151 q 425 -14 575 -14 q 226 44 307 -14 q 105 202 144 101 q 65 431 65 303 m 225 446 q 280 167 225 275 q 442 58 335 58 q 606 127 535 58 q 717 317 678 196 q 756 589 756 438 q 701 869 756 767 q 542 972 647 972 q 378 903 450 972 q 265 713 306 833 q 225 446 225 592 z "},"Ớ":{"ha":949,"x_min":65,"x_max":1043,"o":"m 65 431 q 126 742 65 601 q 300 964 188 882 q 560 1046 413 1046 q 711 1015 643 1046 q 824 1041 778 1017 q 893 1100 871 1065 q 915 1172 915 1135 q 913 1201 915 1194 l 1039 1201 q 1043 1171 1043 1188 q 978 1017 1043 1075 q 810 942 914 958 q 890 792 864 881 q 917 600 917 704 q 857 291 917 431 q 686 69 797 151 q 425 -14 575 -14 q 226 44 307 -14 q 105 202 144 101 q 65 431 65 303 m 225 446 q 280 167 225 275 q 442 58 335 58 q 606 127 535 58 q 717 317 678 196 q 756 589 756 438 q 701 869 756 767 q 542 972 647 972 q 378 903 450 972 q 265 713 306 833 q 225 446 225 592 m 690 1365 l 776 1289 q 669 1194 746 1246 q 539 1121 593 1143 l 482 1158 l 690 1365 z "},"Ợ":{"ha":949,"x_min":65,"x_max":1043,"o":"m 65 431 q 126 742 65 601 q 300 964 188 882 q 560 1046 413 1046 q 711 1015 643 1046 q 824 1041 778 1017 q 893 1100 871 1065 q 915 1172 915 1135 q 913 1201 915 1194 l 1039 1201 q 1043 1171 1043 1188 q 978 1017 1043 1075 q 810 942 914 958 q 890 792 864 881 q 917 600 917 704 q 857 291 917 431 q 686 69 797 151 q 425 -14 575 -14 q 226 44 307 -14 q 105 202 144 101 q 65 431 65 303 m 225 446 q 280 167 225 275 q 442 58 335 58 q 606 127 535 58 q 717 317 678 196 q 756 589 756 438 q 701 869 756 767 q 542 972 647 972 q 378 903 450 972 q 265 713 306 833 q 225 446 225 592 m 383 -321 q 328 -298 350 -321 q 307 -239 307 -275 q 336 -164 307 -194 q 406 -133 365 -133 q 464 -156 443 -133 q 485 -212 485 -178 q 456 -289 485 -257 q 383 -321 428 -321 z "},"Ờ":{"ha":949,"x_min":65,"x_max":1043,"o":"m 65 431 q 126 742 65 601 q 300 964 188 882 q 560 1046 413 1046 q 711 1015 643 1046 q 824 1041 778 1017 q 893 1100 871 1065 q 915 1172 915 1135 q 913 1201 915 1194 l 1039 1201 q 1043 1171 1043 1188 q 978 1017 1043 1075 q 810 942 914 958 q 890 792 864 881 q 917 600 917 704 q 857 291 917 431 q 686 69 797 151 q 425 -14 575 -14 q 226 44 307 -14 q 105 202 144 101 q 65 431 65 303 m 225 446 q 280 167 225 275 q 442 58 335 58 q 606 127 535 58 q 717 317 678 196 q 756 589 756 438 q 701 869 756 767 q 542 972 647 972 q 378 903 450 972 q 265 713 306 833 q 225 446 225 592 m 586 1096 q 462 1178 531 1122 q 367 1285 393 1235 l 453 1357 l 639 1132 l 586 1096 z "},"Ở":{"ha":949,"x_min":65,"x_max":1043,"o":"m 65 431 q 126 742 65 601 q 300 964 188 882 q 560 1046 413 1046 q 711 1015 643 1046 q 824 1041 778 1017 q 893 1100 871 1065 q 915 1172 915 1135 q 913 1201 915 1194 l 1039 1201 q 1043 1171 1043 1188 q 978 1017 1043 1075 q 810 942 914 958 q 890 792 864 881 q 917 600 917 704 q 857 291 917 431 q 686 69 797 151 q 425 -14 575 -14 q 226 44 307 -14 q 105 202 144 101 q 65 431 65 303 m 225 446 q 280 167 225 275 q 442 58 335 58 q 606 127 535 58 q 717 317 678 196 q 756 589 756 438 q 701 869 756 767 q 542 972 647 972 q 378 903 450 972 q 265 713 306 833 q 225 446 225 592 m 524 1124 q 510 1153 515 1135 q 506 1183 504 1171 q 522 1210 510 1200 q 557 1235 533 1221 q 594 1260 582 1251 q 613 1286 606 1269 l 613 1292 q 601 1333 617 1315 q 549 1353 586 1351 l 538 1353 q 503 1350 514 1353 l 518 1444 q 542 1451 521 1447 q 578 1454 563 1454 q 692 1424 650 1454 q 733 1339 733 1394 q 731 1307 733 1329 q 700 1250 724 1272 q 636 1203 676 1228 l 608 1186 q 590 1163 596 1175 q 585 1132 583 1151 l 524 1124 z "},"Ỡ":{"ha":949,"x_min":65,"x_max":1043,"o":"m 65 431 q 126 742 65 601 q 300 964 188 882 q 560 1046 413 1046 q 711 1015 643 1046 q 824 1041 778 1017 q 893 1100 871 1065 q 915 1172 915 1135 q 913 1201 915 1194 l 1039 1201 q 1043 1171 1043 1188 q 978 1017 1043 1075 q 810 942 914 958 q 890 792 864 881 q 917 600 917 704 q 857 291 917 431 q 686 69 797 151 q 425 -14 575 -14 q 226 44 307 -14 q 105 202 144 101 q 65 431 65 303 m 225 446 q 280 167 225 275 q 442 58 335 58 q 606 127 535 58 q 717 317 678 196 q 756 589 756 438 q 701 869 756 767 q 542 972 647 972 q 378 903 450 972 q 265 713 306 833 q 225 446 225 592 m 333 1225 q 394 1305 353 1272 q 493 1338 436 1338 q 550 1324 526 1338 q 603 1282 574 1310 q 646 1248 629 1258 q 685 1238 663 1238 q 744 1257 719 1238 q 790 1306 769 1276 l 833 1254 q 774 1174 815 1210 q 679 1138 732 1138 q 617 1151 642 1138 q 563 1193 593 1165 q 518 1228 536 1217 q 475 1239 500 1239 q 420 1222 443 1239 q 374 1175 397 1206 l 333 1225 z "},"Ő":{"ha":957,"x_min":65,"x_max":936,"o":"m 560 1046 q 760 986 679 1046 q 878 826 840 926 q 917 600 917 725 q 857 291 917 431 q 686 69 797 151 q 425 -14 575 -14 q 226 44 307 -14 q 105 202 144 101 q 65 431 65 303 q 126 742 65 601 q 300 964 188 882 q 560 1046 413 1046 m 542 972 q 378 903 450 972 q 265 713 306 833 q 225 446 225 592 q 280 167 225 275 q 442 58 335 58 q 606 127 535 58 q 717 317 678 196 q 756 589 756 438 q 701 869 756 767 q 542 972 647 972 m 847 1357 l 936 1293 q 836 1180 901 1238 q 711 1092 771 1122 l 657 1132 l 847 1357 m 533 1356 l 624 1293 q 528 1184 597 1242 q 394 1090 460 1126 l 344 1131 l 533 1356 z "},"Ō":{"ha":957,"x_min":65,"x_max":917,"o":"m 560 1046 q 760 986 679 1046 q 878 826 840 926 q 917 600 917 725 q 857 291 917 431 q 686 69 797 151 q 425 -14 575 -14 q 226 44 307 -14 q 105 202 144 101 q 65 431 65 303 q 126 742 65 601 q 300 964 188 882 q 560 1046 413 1046 m 542 972 q 378 903 450 972 q 265 713 306 833 q 225 446 225 592 q 280 167 225 275 q 442 58 335 58 q 606 127 535 58 q 717 317 678 196 q 756 589 756 438 q 701 869 756 767 q 542 972 647 972 m 786 1276 l 774 1174 l 414 1174 l 426 1276 l 786 1276 z "},"Ø":{"ha":958,"x_min":67,"x_max":918,"o":"m 785 967 q 884 814 850 908 q 918 606 918 719 q 858 295 918 436 q 688 71 799 154 q 426 -12 576 -12 q 232 43 311 -12 l 138 -104 l 86 -74 l 183 83 q 96 234 125 143 q 67 436 67 325 q 128 745 67 606 q 301 966 189 885 q 560 1047 414 1047 q 736 1003 658 1047 l 825 1144 l 878 1115 l 785 967 m 675 901 q 543 974 625 974 q 378 903 451 974 q 265 711 306 833 q 225 442 225 589 q 271 200 225 300 l 675 901 m 297 143 q 443 60 354 60 q 606 128 535 60 q 717 316 678 196 q 756 585 756 436 q 703 850 756 757 l 297 143 z "},"Ǿ":{"ha":958,"x_min":67,"x_max":918,"o":"m 785 967 q 884 814 850 908 q 918 606 918 719 q 858 295 918 436 q 688 71 799 154 q 426 -12 576 -12 q 232 43 311 -12 l 138 -104 l 86 -74 l 183 83 q 96 234 125 143 q 67 436 67 325 q 128 745 67 606 q 301 966 189 885 q 560 1047 414 1047 q 736 1003 658 1047 l 825 1144 l 878 1115 l 785 967 m 675 901 q 543 974 625 974 q 378 903 451 974 q 265 711 306 833 q 225 442 225 589 q 271 200 225 300 l 675 901 m 297 143 q 443 60 354 60 q 606 128 535 60 q 717 316 678 196 q 756 585 756 436 q 703 850 756 757 l 297 143 m 693 1365 l 779 1289 q 672 1194 749 1246 q 542 1121 596 1143 l 485 1158 l 693 1365 z "},"Õ":{"ha":957,"x_min":65,"x_max":917,"o":"m 560 1046 q 760 986 679 1046 q 878 826 840 926 q 917 600 917 725 q 857 291 917 431 q 686 69 797 151 q 425 -14 575 -14 q 226 44 307 -14 q 105 202 144 101 q 65 431 65 303 q 126 742 65 601 q 300 964 188 882 q 560 1046 413 1046 m 542 972 q 378 903 450 972 q 265 713 306 833 q 225 446 225 592 q 280 167 225 275 q 442 58 335 58 q 606 127 535 58 q 717 317 678 196 q 756 589 756 438 q 701 869 756 767 q 542 972 647 972 m 351 1225 q 413 1305 371 1272 q 511 1338 454 1338 q 568 1324 544 1338 q 621 1282 592 1310 q 664 1248 647 1258 q 703 1238 681 1238 q 763 1257 738 1238 q 808 1306 788 1276 l 851 1254 q 792 1174 833 1210 q 697 1138 750 1138 q 635 1151 660 1138 q 581 1193 611 1165 q 536 1228 554 1217 q 493 1239 518 1239 q 438 1222 461 1239 q 392 1175 415 1206 l 351 1225 z "},"Œ":{"ha":1479,"x_min":60,"x_max":1444,"o":"m 776 176 q 626 36 715 86 q 428 -14 538 -14 q 156 108 253 -14 q 60 436 60 229 q 122 744 60 606 q 299 964 185 883 q 560 1044 413 1044 q 746 988 671 1044 q 857 831 821 931 l 882 1032 l 1444 1032 l 1433 815 l 1347 815 l 1321 954 l 1028 965 l 978 576 l 1283 597 l 1269 482 l 969 496 l 917 76 l 1288 93 l 1354 256 l 1442 240 l 1393 0 l 756 0 l 776 176 m 542 971 q 375 903 449 971 q 259 718 301 835 q 217 463 217 601 q 272 167 217 276 q 444 58 326 58 q 611 127 539 58 q 723 315 683 196 q 763 583 763 435 q 542 971 763 971 z "},"P":{"ha":858,"x_min":8,"x_max":861,"o":"m 314 1032 q 424 1038 354 1032 q 525 1043 490 1043 q 779 974 697 1043 q 861 764 861 904 q 803 547 861 638 q 646 409 746 456 q 419 363 546 363 q 301 367 335 363 l 267 74 l 414 57 l 410 0 l 8 0 l 14 57 l 113 74 l 226 956 l 132 971 l 139 1032 l 314 1032 m 310 444 q 425 436 354 436 q 632 524 561 438 q 703 772 703 611 q 656 922 703 872 q 507 971 608 971 q 379 960 443 971 l 310 444 z "},"Ṗ":{"ha":858,"x_min":8,"x_max":861,"o":"m 314 1032 q 424 1038 354 1032 q 525 1043 490 1043 q 779 974 697 1043 q 861 764 861 904 q 803 547 861 638 q 646 409 746 456 q 419 363 546 363 q 301 367 335 363 l 267 74 l 414 57 l 410 0 l 8 0 l 14 57 l 113 74 l 226 956 l 132 971 l 139 1032 l 314 1032 m 310 444 q 425 436 354 436 q 632 524 561 438 q 703 772 703 611 q 656 922 703 872 q 507 971 608 971 q 379 960 443 971 l 310 444 m 542 1140 q 488 1163 511 1140 q 464 1218 464 1186 q 493 1290 464 1260 q 561 1319 522 1319 q 621 1297 597 1319 q 644 1244 644 1275 q 615 1171 644 1201 q 542 1140 586 1140 z "},"Þ":{"ha":851,"x_min":10,"x_max":839,"o":"m 358 801 q 518 811 443 811 q 760 746 682 811 q 839 565 839 681 q 791 389 839 467 q 647 265 743 311 q 413 219 551 219 q 286 225 328 219 l 265 74 l 381 57 l 376 0 l 10 0 l 15 57 l 114 74 l 226 958 l 133 974 l 140 1036 l 494 1036 l 488 974 l 379 958 l 358 801 m 294 299 q 417 293 367 293 q 611 358 539 293 q 683 538 683 424 q 635 688 683 639 q 474 738 586 738 q 408 735 444 738 q 349 726 372 732 l 294 299 z "},"Q":{"ha":960,"x_min":64,"x_max":915,"o":"m 864 -199 q 774 -243 833 -224 q 649 -262 715 -262 q 472 -212 539 -262 q 406 -65 406 -161 q 411 -12 406 -39 q 153 115 242 -7 q 64 432 64 236 q 125 743 64 603 q 299 965 186 883 q 558 1046 411 1046 q 758 986 678 1046 q 877 827 839 926 q 915 604 915 728 q 865 315 915 447 q 718 97 814 182 q 494 -7 622 11 q 547 -111 494 -85 q 694 -137 600 -137 q 781 -129 731 -137 q 863 -107 831 -121 l 864 -199 m 540 972 q 376 903 449 972 q 264 713 304 833 q 224 447 224 593 q 278 167 224 275 q 440 58 333 58 q 604 127 533 58 q 715 315 675 196 q 754 583 754 435 q 701 868 754 764 q 540 972 647 972 z "},"R":{"ha":931,"x_min":15,"x_max":899,"o":"m 318 1032 q 413 1038 351 1032 q 519 1043 476 1043 q 779 983 700 1043 q 858 799 858 924 q 790 593 858 681 q 603 471 721 506 q 666 381 632 444 q 738 236 700 318 l 756 197 q 800 107 785 132 q 836 72 815 82 q 899 61 857 61 l 894 0 l 711 0 q 670 35 692 0 q 617 154 649 69 q 522 372 558 299 q 454 453 486 446 l 306 453 l 261 74 l 389 57 l 385 0 l 15 0 l 21 57 l 114 74 l 225 956 l 132 971 l 139 1032 l 318 1032 m 317 528 q 392 526 349 526 q 464 526 435 525 q 638 603 574 531 q 703 792 703 676 q 653 928 703 885 q 489 971 603 971 q 435 968 467 971 q 374 963 403 965 l 317 528 z "},"Ŕ":{"ha":931,"x_min":15,"x_max":899,"o":"m 318 1032 q 413 1038 351 1032 q 519 1043 476 1043 q 779 983 700 1043 q 858 799 858 924 q 790 593 858 681 q 603 471 721 506 q 666 381 632 444 q 738 236 700 318 l 756 197 q 800 107 785 132 q 836 72 815 82 q 899 61 857 61 l 894 0 l 711 0 q 670 35 692 0 q 617 154 649 69 q 522 372 558 299 q 454 453 486 446 l 306 453 l 261 74 l 389 57 l 385 0 l 15 0 l 21 57 l 114 74 l 225 956 l 132 971 l 139 1032 l 318 1032 m 317 528 q 392 526 349 526 q 464 526 435 525 q 638 603 574 531 q 703 792 703 676 q 653 928 703 885 q 489 971 603 971 q 435 968 467 971 q 374 963 403 965 l 317 528 m 658 1365 l 744 1289 q 638 1194 714 1246 q 507 1121 561 1143 l 450 1158 l 658 1365 z "},"Ř":{"ha":931,"x_min":15,"x_max":899,"o":"m 318 1032 q 413 1038 351 1032 q 519 1043 476 1043 q 779 983 700 1043 q 858 799 858 924 q 790 593 858 681 q 603 471 721 506 q 666 381 632 444 q 738 236 700 318 l 756 197 q 800 107 785 132 q 836 72 815 82 q 899 61 857 61 l 894 0 l 711 0 q 670 35 692 0 q 617 154 649 69 q 522 372 558 299 q 454 453 486 446 l 306 453 l 261 74 l 389 57 l 385 0 l 15 0 l 21 57 l 114 74 l 225 956 l 132 971 l 139 1032 l 318 1032 m 317 528 q 392 526 349 526 q 464 526 435 525 q 638 603 574 531 q 703 792 703 676 q 653 928 703 885 q 489 971 603 971 q 435 968 467 971 q 374 963 403 965 l 317 528 m 396 1360 l 546 1196 l 760 1360 l 808 1326 l 588 1099 l 488 1099 l 340 1325 l 396 1360 z "},"Ŗ":{"ha":931,"x_min":15,"x_max":899,"o":"m 318 1032 q 413 1038 351 1032 q 519 1043 476 1043 q 779 983 700 1043 q 858 799 858 924 q 790 593 858 681 q 603 471 721 506 q 666 381 632 444 q 738 236 700 318 l 756 197 q 800 107 785 132 q 836 72 815 82 q 899 61 857 61 l 894 0 l 711 0 q 670 35 692 0 q 617 154 649 69 q 522 372 558 299 q 454 453 486 446 l 306 453 l 261 74 l 389 57 l 385 0 l 15 0 l 21 57 l 114 74 l 225 956 l 132 971 l 139 1032 l 318 1032 m 317 528 q 392 526 349 526 q 464 526 435 525 q 638 603 574 531 q 703 792 703 676 q 653 928 703 885 q 489 971 603 971 q 435 968 467 971 q 374 963 403 965 l 317 528 m 367 -339 q 399 -295 388 -324 q 410 -229 410 -267 q 397 -179 408 -201 q 365 -151 385 -157 l 365 -108 l 457 -60 q 516 -117 497 -76 q 535 -207 535 -158 q 499 -319 535 -272 q 425 -379 464 -367 l 367 -353 l 367 -339 z "},"S":{"ha":753,"x_min":26,"x_max":725,"o":"m 599 938 q 458 974 549 974 q 324 934 379 974 q 269 822 269 894 q 318 692 269 744 q 465 579 367 640 q 578 499 533 536 q 654 409 624 461 q 685 290 685 357 q 640 132 685 201 q 511 24 594 63 q 318 -15 428 -15 q 140 6 225 -15 q 26 47 54 26 l 58 246 l 149 246 l 157 100 q 227 69 183 81 q 318 57 271 57 q 476 103 413 57 q 539 233 539 150 q 494 354 539 306 q 360 458 450 403 q 242 544 290 503 q 160 640 193 585 q 128 765 128 696 q 173 914 128 850 q 297 1012 218 978 q 469 1046 375 1046 q 627 1029 563 1046 q 725 990 692 1013 l 693 804 l 611 804 l 599 938 z "},"Ś":{"ha":753,"x_min":26,"x_max":725,"o":"m 599 938 q 458 974 549 974 q 324 934 379 974 q 269 822 269 894 q 318 692 269 744 q 465 579 367 640 q 578 499 533 536 q 654 409 624 461 q 685 290 685 357 q 640 132 685 201 q 511 24 594 63 q 318 -15 428 -15 q 140 6 225 -15 q 26 47 54 26 l 58 246 l 149 246 l 157 100 q 227 69 183 81 q 318 57 271 57 q 476 103 413 57 q 539 233 539 150 q 494 354 539 306 q 360 458 450 403 q 242 544 290 503 q 160 640 193 585 q 128 765 128 696 q 173 914 128 850 q 297 1012 218 978 q 469 1046 375 1046 q 627 1029 563 1046 q 725 990 692 1013 l 693 804 l 611 804 l 599 938 m 603 1365 l 689 1289 q 582 1194 658 1246 q 451 1121 506 1143 l 394 1158 l 603 1365 z "},"Š":{"ha":753,"x_min":26,"x_max":753,"o":"m 599 938 q 458 974 549 974 q 324 934 379 974 q 269 822 269 894 q 318 692 269 744 q 465 579 367 640 q 578 499 533 536 q 654 409 624 461 q 685 290 685 357 q 640 132 685 201 q 511 24 594 63 q 318 -15 428 -15 q 140 6 225 -15 q 26 47 54 26 l 58 246 l 149 246 l 157 100 q 227 69 183 81 q 318 57 271 57 q 476 103 413 57 q 539 233 539 150 q 494 354 539 306 q 360 458 450 403 q 242 544 290 503 q 160 640 193 585 q 128 765 128 696 q 173 914 128 850 q 297 1012 218 978 q 469 1046 375 1046 q 627 1029 563 1046 q 725 990 692 1013 l 693 804 l 611 804 l 599 938 m 340 1360 l 490 1196 l 704 1360 l 753 1326 l 532 1099 l 432 1099 l 285 1325 l 340 1360 z "},"Ş":{"ha":753,"x_min":26,"x_max":725,"o":"m 58 246 l 149 246 l 157 100 q 227 69 183 81 q 318 57 271 57 q 476 103 413 57 q 539 233 539 150 q 494 354 539 306 q 360 458 450 403 q 242 544 290 503 q 160 640 193 585 q 128 765 128 696 q 173 914 128 850 q 297 1012 218 978 q 469 1046 375 1046 q 627 1029 563 1046 q 725 990 692 1013 l 693 804 l 611 804 l 599 938 q 458 974 549 974 q 324 934 379 974 q 269 822 269 894 q 318 692 269 744 q 465 579 367 640 q 578 499 533 536 q 654 409 624 461 q 685 290 685 357 q 598 82 685 165 q 365 -14 511 -1 q 382 -117 382 -61 q 332 -268 382 -217 q 192 -319 282 -319 q 131 -314 164 -319 q 88 -301 99 -308 l 101 -211 q 128 -219 110 -215 q 165 -222 146 -222 q 258 -184 225 -222 q 292 -75 290 -146 q 288 -14 292 -39 q 127 8 203 -11 q 26 47 51 28 l 58 246 z "},"Ŝ":{"ha":753,"x_min":26,"x_max":725,"o":"m 599 938 q 458 974 549 974 q 324 934 379 974 q 269 822 269 894 q 318 692 269 744 q 465 579 367 640 q 578 499 533 536 q 654 409 624 461 q 685 290 685 357 q 640 132 685 201 q 511 24 594 63 q 318 -15 428 -15 q 140 6 225 -15 q 26 47 54 26 l 58 246 l 149 246 l 157 100 q 227 69 183 81 q 318 57 271 57 q 476 103 413 57 q 539 233 539 150 q 494 354 539 306 q 360 458 450 403 q 242 544 290 503 q 160 640 193 585 q 128 765 128 696 q 173 914 128 850 q 297 1012 218 978 q 469 1046 375 1046 q 627 1029 563 1046 q 725 990 692 1013 l 693 804 l 611 804 l 599 938 m 457 1360 l 560 1360 l 707 1131 l 654 1096 l 500 1258 l 275 1097 l 228 1132 l 457 1360 z "},"Ș":{"ha":753,"x_min":26,"x_max":725,"o":"m 599 938 q 458 974 549 974 q 324 934 379 974 q 269 822 269 894 q 318 692 269 744 q 465 579 367 640 q 578 499 533 536 q 654 409 624 461 q 685 290 685 357 q 640 132 685 201 q 511 24 594 63 q 318 -15 428 -15 q 140 6 225 -15 q 26 47 54 26 l 58 246 l 149 246 l 157 100 q 227 69 183 81 q 318 57 271 57 q 476 103 413 57 q 539 233 539 150 q 494 354 539 306 q 360 458 450 403 q 242 544 290 503 q 160 640 193 585 q 128 765 128 696 q 173 914 128 850 q 297 1012 218 978 q 469 1046 375 1046 q 627 1029 563 1046 q 725 990 692 1013 l 693 804 l 611 804 l 599 938 m 218 -339 q 250 -295 239 -324 q 261 -229 261 -267 q 248 -179 260 -201 q 217 -151 236 -157 l 217 -108 l 308 -60 q 367 -117 349 -76 q 386 -207 386 -158 q 351 -319 386 -272 q 276 -379 315 -367 l 218 -353 l 218 -339 z "},"Ṡ":{"ha":753,"x_min":26,"x_max":725,"o":"m 599 938 q 458 974 549 974 q 324 934 379 974 q 269 822 269 894 q 318 692 269 744 q 465 579 367 640 q 578 499 533 536 q 654 409 624 461 q 685 290 685 357 q 640 132 685 201 q 511 24 594 63 q 318 -15 428 -15 q 140 6 225 -15 q 26 47 54 26 l 58 246 l 149 246 l 157 100 q 227 69 183 81 q 318 57 271 57 q 476 103 413 57 q 539 233 539 150 q 494 354 539 306 q 360 458 450 403 q 242 544 290 503 q 160 640 193 585 q 128 765 128 696 q 173 914 128 850 q 297 1012 218 978 q 469 1046 375 1046 q 627 1029 563 1046 q 725 990 692 1013 l 693 804 l 611 804 l 599 938 m 486 1140 q 432 1163 456 1140 q 408 1218 408 1186 q 438 1290 408 1260 q 506 1319 467 1319 q 565 1297 542 1319 q 589 1244 589 1275 q 560 1171 589 1201 q 486 1140 531 1140 z "},"Ṣ":{"ha":753,"x_min":26,"x_max":725,"o":"m 599 938 q 458 974 549 974 q 324 934 379 974 q 269 822 269 894 q 318 692 269 744 q 465 579 367 640 q 578 499 533 536 q 654 409 624 461 q 685 290 685 357 q 640 132 685 201 q 511 24 594 63 q 318 -15 428 -15 q 140 6 225 -15 q 26 47 54 26 l 58 246 l 149 246 l 157 100 q 227 69 183 81 q 318 57 271 57 q 476 103 413 57 q 539 233 539 150 q 494 354 539 306 q 360 458 450 403 q 242 544 290 503 q 160 640 193 585 q 128 765 128 696 q 173 914 128 850 q 297 1012 218 978 q 469 1046 375 1046 q 627 1029 563 1046 q 725 990 692 1013 l 693 804 l 611 804 l 599 938 m 278 -321 q 223 -298 244 -321 q 201 -239 201 -275 q 231 -164 201 -194 q 300 -133 260 -133 q 358 -156 338 -133 q 379 -212 379 -178 q 351 -289 379 -257 q 278 -321 322 -321 z "},"ẞ":{"ha":992,"x_min":0,"x_max":953,"o":"m 160 622 q 234 834 174 739 q 393 985 294 929 q 615 1040 492 1040 q 793 1017 728 1040 q 903 954 858 993 l 897 915 l 678 624 q 874 505 796 576 q 953 314 953 433 q 908 145 953 219 q 787 30 864 71 q 617 -11 710 -11 q 520 -1 563 -11 q 429 25 478 8 q 378 40 396 39 l 401 224 l 482 224 l 497 110 q 544 72 508 86 q 626 57 581 57 q 751 119 708 57 q 794 279 794 181 q 717 448 794 375 q 551 557 639 521 l 556 585 l 761 871 q 737 916 757 893 q 680 955 717 939 q 592 971 643 971 q 405 887 475 971 q 315 646 335 803 l 235 -6 l 0 -6 l 6 56 l 90 72 l 160 622 z "},"Ə":{"ha":900,"x_min":49,"x_max":851,"o":"m 156 986 q 240 1004 186 988 q 363 1033 304 1022 q 511 1043 421 1043 q 692 992 615 1043 q 810 846 769 940 q 851 628 851 751 q 784 299 851 446 q 602 68 717 151 q 354 -15 488 -15 q 129 74 210 -15 q 49 325 49 163 q 57 438 49 382 q 78 524 65 493 l 693 524 q 696 611 696 582 q 635 880 696 783 q 465 976 575 976 q 336 956 390 976 q 254 906 282 936 l 206 779 l 124 779 l 156 986 m 218 453 q 197 306 197 361 q 244 127 197 197 q 386 57 292 57 q 579 156 499 57 q 686 453 660 256 l 218 453 z "},"T":{"ha":885,"x_min":54,"x_max":938,"o":"m 938 1032 l 890 696 l 810 694 l 813 951 l 589 965 l 472 74 l 650 58 l 644 0 l 149 0 l 153 58 l 321 74 l 436 965 l 215 951 l 138 696 l 54 696 l 110 1032 l 938 1032 z "},"Ŧ":{"ha":886,"x_min":54,"x_max":938,"o":"m 938 1032 l 890 696 l 810 694 l 813 951 l 589 965 l 536 565 l 735 565 l 725 483 l 525 483 l 472 74 l 650 58 l 644 0 l 149 0 l 153 58 l 321 74 l 374 483 l 196 483 l 206 565 l 385 565 l 436 965 l 215 951 l 138 696 l 54 696 l 110 1032 l 938 1032 z "},"Ť":{"ha":885,"x_min":54,"x_max":938,"o":"m 938 1032 l 890 696 l 810 694 l 813 951 l 589 965 l 472 74 l 650 58 l 644 0 l 149 0 l 153 58 l 321 74 l 436 965 l 215 951 l 138 696 l 54 696 l 110 1032 l 938 1032 m 396 1360 l 546 1196 l 760 1360 l 808 1326 l 588 1099 l 488 1099 l 340 1325 l 396 1360 z "},"Ţ":{"ha":885,"x_min":54,"x_max":938,"o":"m 110 1032 l 938 1032 l 890 696 l 810 694 l 813 951 l 589 965 l 472 74 l 650 58 l 644 0 l 442 0 q 461 -108 461 -46 q 409 -264 461 -208 q 268 -319 357 -319 q 212 -313 242 -319 q 171 -300 182 -307 l 185 -211 q 211 -219 193 -215 q 249 -222 229 -222 q 342 -181 310 -222 q 374 -69 374 -140 q 368 0 374 -33 l 149 0 l 153 58 l 321 74 l 436 965 l 215 951 l 138 696 l 54 696 l 110 1032 z "},"Ț":{"ha":885,"x_min":54,"x_max":938,"o":"m 938 1032 l 890 696 l 810 694 l 813 951 l 589 965 l 472 74 l 650 58 l 644 0 l 149 0 l 153 58 l 321 74 l 436 965 l 215 951 l 138 696 l 54 696 l 110 1032 l 938 1032 m 286 -339 q 318 -295 307 -324 q 329 -229 329 -267 q 316 -179 328 -201 q 285 -151 304 -157 l 285 -108 l 376 -60 q 435 -117 417 -76 q 454 -207 454 -158 q 419 -319 454 -272 q 344 -379 383 -367 l 286 -353 l 286 -339 z "},"Ṫ":{"ha":885,"x_min":54,"x_max":938,"o":"m 938 1032 l 890 696 l 810 694 l 813 951 l 589 965 l 472 74 l 650 58 l 644 0 l 149 0 l 153 58 l 321 74 l 436 965 l 215 951 l 138 696 l 54 696 l 110 1032 l 938 1032 m 542 1140 q 488 1163 511 1140 q 464 1218 464 1186 q 493 1290 464 1260 q 561 1319 522 1319 q 621 1297 597 1319 q 644 1244 644 1275 q 615 1171 644 1201 q 542 1140 586 1140 z "},"Ṭ":{"ha":885,"x_min":54,"x_max":938,"o":"m 938 1032 l 890 696 l 810 694 l 813 951 l 589 965 l 472 74 l 650 58 l 644 0 l 149 0 l 153 58 l 321 74 l 436 965 l 215 951 l 138 696 l 54 696 l 110 1032 l 938 1032 m 346 -321 q 291 -298 313 -321 q 269 -239 269 -275 q 299 -164 269 -194 q 368 -133 328 -133 q 426 -156 406 -133 q 447 -212 447 -178 q 419 -289 447 -257 q 346 -321 390 -321 z "},"U":{"ha":956,"x_min":88,"x_max":1011,"o":"m 846 425 q 715 88 815 190 q 431 -14 614 -14 q 189 67 271 -14 q 106 289 107 149 q 110 403 103 342 l 182 956 l 88 971 l 93 1032 l 457 1032 l 450 971 l 335 956 l 264 415 q 256 285 254 339 q 308 116 257 176 q 456 56 358 56 q 650 147 582 56 q 742 425 718 238 l 813 956 l 718 971 l 724 1032 l 1011 1032 l 1003 971 l 915 956 l 846 425 z "},"Ú":{"ha":956,"x_min":88,"x_max":1011,"o":"m 846 425 q 715 88 815 190 q 431 -14 614 -14 q 189 67 271 -14 q 106 289 107 149 q 110 403 103 342 l 182 956 l 88 971 l 93 1032 l 457 1032 l 450 971 l 335 956 l 264 415 q 256 285 254 339 q 308 116 257 176 q 456 56 358 56 q 650 147 582 56 q 742 425 718 238 l 813 956 l 718 971 l 724 1032 l 1011 1032 l 1003 971 l 915 956 l 846 425 m 707 1365 l 793 1289 q 686 1194 763 1246 q 556 1121 610 1143 l 499 1158 l 707 1365 z "},"Ŭ":{"ha":956,"x_min":88,"x_max":1011,"o":"m 846 425 q 715 88 815 190 q 431 -14 614 -14 q 189 67 271 -14 q 106 289 107 149 q 110 403 103 342 l 182 956 l 88 971 l 93 1032 l 457 1032 l 450 971 l 335 956 l 264 415 q 256 285 254 339 q 308 116 257 176 q 456 56 358 56 q 650 147 582 56 q 742 425 718 238 l 813 956 l 718 971 l 724 1032 l 1011 1032 l 1003 971 l 915 956 l 846 425 m 588 1108 q 435 1169 482 1108 q 388 1317 388 1231 q 390 1350 388 1340 l 471 1350 q 497 1251 472 1290 q 590 1211 521 1211 q 697 1253 661 1211 q 739 1350 732 1296 l 817 1350 q 787 1231 817 1286 q 704 1142 757 1175 q 588 1108 651 1108 z "},"Ǔ":{"ha":956,"x_min":88,"x_max":1011,"o":"m 846 425 q 715 88 815 190 q 431 -14 614 -14 q 189 67 271 -14 q 106 289 107 149 q 110 403 103 342 l 182 956 l 88 971 l 93 1032 l 457 1032 l 450 971 l 335 956 l 264 415 q 256 285 254 339 q 308 116 257 176 q 456 56 358 56 q 650 147 582 56 q 742 425 718 238 l 813 956 l 718 971 l 724 1032 l 1011 1032 l 1003 971 l 915 956 l 846 425 m 444 1360 l 594 1196 l 808 1360 l 857 1326 l 636 1099 l 536 1099 l 389 1325 l 444 1360 z "},"Û":{"ha":956,"x_min":88,"x_max":1011,"o":"m 846 425 q 715 88 815 190 q 431 -14 614 -14 q 189 67 271 -14 q 106 289 107 149 q 110 403 103 342 l 182 956 l 88 971 l 93 1032 l 457 1032 l 450 971 l 335 956 l 264 415 q 256 285 254 339 q 308 116 257 176 q 456 56 358 56 q 650 147 582 56 q 742 425 718 238 l 813 956 l 718 971 l 724 1032 l 1011 1032 l 1003 971 l 915 956 l 846 425 m 561 1360 l 664 1360 l 811 1131 l 758 1096 l 604 1258 l 379 1097 l 332 1132 l 561 1360 z "},"Ü":{"ha":956,"x_min":88,"x_max":1011,"o":"m 846 425 q 715 88 815 190 q 431 -14 614 -14 q 189 67 271 -14 q 106 289 107 149 q 110 403 103 342 l 182 956 l 88 971 l 93 1032 l 457 1032 l 450 971 l 335 956 l 264 415 q 256 285 254 339 q 308 116 257 176 q 456 56 358 56 q 650 147 582 56 q 742 425 718 238 l 813 956 l 718 971 l 724 1032 l 1011 1032 l 1003 971 l 915 956 l 846 425 m 439 1157 q 390 1178 410 1157 q 369 1232 369 1200 q 395 1302 369 1274 q 458 1331 421 1331 q 514 1310 494 1331 q 533 1256 533 1289 q 507 1185 533 1213 q 439 1157 481 1157 m 743 1157 q 692 1179 713 1157 q 672 1235 672 1201 q 699 1303 672 1276 q 763 1331 726 1331 q 816 1310 796 1331 q 836 1258 836 1290 q 810 1185 836 1214 q 743 1157 785 1157 z "},"Ụ":{"ha":956,"x_min":88,"x_max":1011,"o":"m 846 425 q 715 88 815 190 q 431 -14 614 -14 q 189 67 271 -14 q 106 289 107 149 q 110 403 103 342 l 182 956 l 88 971 l 93 1032 l 457 1032 l 450 971 l 335 956 l 264 415 q 256 285 254 339 q 308 116 257 176 q 456 56 358 56 q 650 147 582 56 q 742 425 718 238 l 813 956 l 718 971 l 724 1032 l 1011 1032 l 1003 971 l 915 956 l 846 425 m 393 -321 q 338 -298 360 -321 q 317 -239 317 -275 q 346 -164 317 -194 q 415 -133 375 -133 q 474 -156 453 -133 q 494 -212 494 -178 q 466 -289 494 -257 q 393 -321 438 -321 z "},"Ù":{"ha":956,"x_min":88,"x_max":1011,"o":"m 846 425 q 715 88 815 190 q 431 -14 614 -14 q 189 67 271 -14 q 106 289 107 149 q 110 403 103 342 l 182 956 l 88 971 l 93 1032 l 457 1032 l 450 971 l 335 956 l 264 415 q 256 285 254 339 q 308 116 257 176 q 456 56 358 56 q 650 147 582 56 q 742 425 718 238 l 813 956 l 718 971 l 724 1032 l 1011 1032 l 1003 971 l 915 956 l 846 425 m 603 1096 q 478 1178 547 1122 q 383 1285 410 1235 l 469 1357 l 656 1132 l 603 1096 z "},"Ủ":{"ha":956,"x_min":88,"x_max":1011,"o":"m 846 425 q 715 88 815 190 q 431 -14 614 -14 q 189 67 271 -14 q 106 289 107 149 q 110 403 103 342 l 182 956 l 88 971 l 93 1032 l 457 1032 l 450 971 l 335 956 l 264 415 q 256 285 254 339 q 308 116 257 176 q 456 56 358 56 q 650 147 582 56 q 742 425 718 238 l 813 956 l 718 971 l 724 1032 l 1011 1032 l 1003 971 l 915 956 l 846 425 m 542 1082 q 533 1114 533 1094 q 538 1136 533 1126 q 552 1155 542 1149 q 583 1169 563 1161 q 623 1191 610 1182 q 640 1221 636 1200 q 628 1260 643 1244 q 576 1279 614 1276 q 531 1275 538 1279 l 542 1356 q 565 1362 544 1358 q 601 1365 586 1365 q 757 1260 757 1365 q 756 1240 757 1247 q 728 1189 750 1210 q 667 1142 707 1168 l 640 1124 q 615 1104 622 1113 q 608 1082 607 1096 l 542 1082 z "},"Ư":{"ha":1022,"x_min":88,"x_max":1131,"o":"m 93 1032 l 457 1032 l 450 971 l 335 956 l 264 415 q 256 285 254 339 q 308 116 257 176 q 456 56 358 56 q 650 147 582 56 q 742 425 718 238 l 813 956 l 718 971 l 724 1032 l 856 1032 q 966 1074 933 1032 q 999 1178 999 1117 q 997 1201 999 1196 l 1125 1201 q 1128 1171 1128 1179 q 1082 1023 1131 1072 q 915 956 1033 974 l 846 425 q 715 88 815 190 q 431 -14 614 -14 q 189 67 271 -14 q 106 289 107 149 q 110 403 103 342 l 182 956 l 88 971 l 93 1032 z "},"Ứ":{"ha":1022,"x_min":88,"x_max":1128,"o":"m 93 1032 l 457 1032 l 450 971 l 335 956 l 264 415 q 256 285 254 339 q 308 116 257 176 q 456 56 358 56 q 650 147 582 56 q 742 425 718 238 l 813 956 l 718 971 l 724 1032 l 856 1032 q 966 1074 933 1032 q 999 1178 999 1117 q 997 1201 999 1196 l 1125 1201 q 1128 1171 1128 1179 q 1082 1023 1131 1072 q 915 956 1033 974 l 846 425 q 715 88 815 190 q 431 -14 614 -14 q 189 67 271 -14 q 106 289 107 149 q 110 403 103 342 l 182 956 l 88 971 l 93 1032 m 707 1365 l 793 1289 q 686 1194 763 1246 q 556 1121 610 1143 l 499 1158 l 707 1365 z "},"Ự":{"ha":1022,"x_min":88,"x_max":1128,"o":"m 93 1032 l 457 1032 l 450 971 l 335 956 l 264 415 q 256 285 254 339 q 308 116 257 176 q 456 56 358 56 q 650 147 582 56 q 742 425 718 238 l 813 956 l 718 971 l 724 1032 l 856 1032 q 966 1074 933 1032 q 999 1178 999 1117 q 997 1201 999 1196 l 1125 1201 q 1128 1171 1128 1179 q 1082 1023 1131 1072 q 915 956 1033 974 l 846 425 q 715 88 815 190 q 431 -14 614 -14 q 189 67 271 -14 q 106 289 107 149 q 110 403 103 342 l 182 956 l 88 971 l 93 1032 m 389 -321 q 334 -298 356 -321 q 313 -239 313 -275 q 342 -164 313 -194 q 411 -133 371 -133 q 469 -156 449 -133 q 490 -212 490 -178 q 462 -289 490 -257 q 389 -321 433 -321 z "},"Ừ":{"ha":1022,"x_min":88,"x_max":1128,"o":"m 93 1032 l 457 1032 l 450 971 l 335 956 l 264 415 q 256 285 254 339 q 308 116 257 176 q 456 56 358 56 q 650 147 582 56 q 742 425 718 238 l 813 956 l 718 971 l 724 1032 l 856 1032 q 966 1074 933 1032 q 999 1178 999 1117 q 997 1201 999 1196 l 1125 1201 q 1128 1171 1128 1179 q 1082 1023 1131 1072 q 915 956 1033 974 l 846 425 q 715 88 815 190 q 431 -14 614 -14 q 189 67 271 -14 q 106 289 107 149 q 110 403 103 342 l 182 956 l 88 971 l 93 1032 m 603 1096 q 478 1178 547 1122 q 383 1285 410 1235 l 469 1357 l 656 1132 l 603 1096 z "},"Ử":{"ha":1022,"x_min":88,"x_max":1128,"o":"m 93 1032 l 457 1032 l 450 971 l 335 956 l 264 415 q 256 285 254 339 q 308 116 257 176 q 456 56 358 56 q 650 147 582 56 q 742 425 718 238 l 813 956 l 718 971 l 724 1032 l 856 1032 q 966 1074 933 1032 q 999 1178 999 1117 q 997 1201 999 1196 l 1125 1201 q 1128 1171 1128 1179 q 1082 1023 1131 1072 q 915 956 1033 974 l 846 425 q 715 88 815 190 q 431 -14 614 -14 q 189 67 271 -14 q 106 289 107 149 q 110 403 103 342 l 182 956 l 88 971 l 93 1032 m 540 1124 q 526 1153 532 1135 q 522 1183 521 1171 q 538 1210 526 1200 q 574 1235 550 1221 q 610 1260 599 1251 q 629 1286 622 1269 l 629 1292 q 618 1333 633 1315 q 565 1353 603 1351 l 554 1353 q 519 1350 531 1353 l 535 1444 q 558 1451 538 1447 q 594 1454 579 1454 q 708 1424 667 1454 q 750 1339 750 1394 q 747 1307 750 1329 q 717 1250 740 1272 q 653 1203 693 1228 l 625 1186 q 606 1163 613 1175 q 601 1132 600 1151 l 540 1124 z "},"Ữ":{"ha":1022,"x_min":88,"x_max":1128,"o":"m 93 1032 l 457 1032 l 450 971 l 335 956 l 264 415 q 256 285 254 339 q 308 116 257 176 q 456 56 358 56 q 650 147 582 56 q 742 425 718 238 l 813 956 l 718 971 l 724 1032 l 856 1032 q 966 1074 933 1032 q 999 1178 999 1117 q 997 1201 999 1196 l 1125 1201 q 1128 1171 1128 1179 q 1082 1023 1131 1072 q 915 956 1033 974 l 846 425 q 715 88 815 190 q 431 -14 614 -14 q 189 67 271 -14 q 106 289 107 149 q 110 403 103 342 l 182 956 l 88 971 l 93 1032 m 350 1225 q 411 1305 369 1272 q 510 1338 453 1338 q 567 1324 543 1338 q 619 1282 590 1310 q 663 1248 646 1258 q 701 1238 679 1238 q 761 1257 736 1238 q 807 1306 786 1276 l 850 1254 q 790 1174 832 1210 q 696 1138 749 1138 q 634 1151 658 1138 q 579 1193 610 1165 q 535 1228 553 1217 q 492 1239 517 1239 q 437 1222 460 1239 q 390 1175 414 1206 l 350 1225 z "},"Ű":{"ha":956,"x_min":88,"x_max":1011,"o":"m 846 425 q 715 88 815 190 q 431 -14 614 -14 q 189 67 271 -14 q 106 289 107 149 q 110 403 103 342 l 182 956 l 88 971 l 93 1032 l 457 1032 l 450 971 l 335 956 l 264 415 q 256 285 254 339 q 308 116 257 176 q 456 56 358 56 q 650 147 582 56 q 742 425 718 238 l 813 956 l 718 971 l 724 1032 l 1011 1032 l 1003 971 l 915 956 l 846 425 m 846 1357 l 935 1293 q 835 1180 900 1238 q 710 1092 769 1122 l 656 1132 l 846 1357 m 532 1356 l 622 1293 q 527 1184 596 1242 q 393 1090 458 1126 l 343 1131 l 532 1356 z "},"Ū":{"ha":956,"x_min":88,"x_max":1011,"o":"m 846 425 q 715 88 815 190 q 431 -14 614 -14 q 189 67 271 -14 q 106 289 107 149 q 110 403 103 342 l 182 956 l 88 971 l 93 1032 l 457 1032 l 450 971 l 335 956 l 264 415 q 256 285 254 339 q 308 116 257 176 q 456 56 358 56 q 650 147 582 56 q 742 425 718 238 l 813 956 l 718 971 l 724 1032 l 1011 1032 l 1003 971 l 915 956 l 846 425 m 785 1276 l 772 1174 l 413 1174 l 425 1276 l 785 1276 z "},"Ų":{"ha":956,"x_min":88,"x_max":1011,"o":"m 846 425 q 748 129 819 231 q 550 0 676 28 q 449 -147 449 -96 q 460 -191 447 -176 q 493 -206 472 -206 q 600 -158 546 -206 l 618 -219 q 535 -275 585 -253 q 425 -297 485 -297 q 343 -270 371 -297 q 315 -201 315 -243 q 322 -160 315 -182 q 340 -122 328 -137 q 389 -64 361 -89 q 456 -12 417 -39 l 431 -14 q 189 67 271 -14 q 106 289 107 149 q 110 403 103 342 l 182 956 l 88 971 l 93 1032 l 457 1032 l 450 971 l 335 956 l 264 415 q 256 285 254 339 q 308 116 257 176 q 456 56 358 56 q 650 147 582 56 q 742 425 718 238 l 813 956 l 718 971 l 724 1032 l 1011 1032 l 1003 971 l 915 956 l 846 425 z "},"Ů":{"ha":956,"x_min":88,"x_max":1011,"o":"m 846 425 q 715 88 815 190 q 431 -14 614 -14 q 189 67 271 -14 q 106 289 107 149 q 110 403 103 342 l 182 956 l 88 971 l 93 1032 l 457 1032 l 450 971 l 335 956 l 264 415 q 256 285 254 339 q 308 116 257 176 q 456 56 358 56 q 650 147 582 56 q 742 425 718 238 l 813 956 l 718 971 l 724 1032 l 1011 1032 l 1003 971 l 915 956 l 846 425 m 574 1051 q 431 1090 485 1051 q 376 1197 376 1128 q 413 1292 376 1254 q 506 1348 450 1331 q 619 1365 563 1365 q 757 1331 704 1365 q 810 1233 810 1296 q 739 1097 810 1143 q 574 1051 668 1051 m 581 1113 q 678 1139 639 1113 q 718 1225 718 1165 q 687 1283 718 1263 q 608 1304 656 1304 q 508 1281 550 1304 q 467 1204 467 1257 q 499 1138 467 1163 q 581 1113 531 1113 z "},"Ũ":{"ha":956,"x_min":88,"x_max":1011,"o":"m 846 425 q 715 88 815 190 q 431 -14 614 -14 q 189 67 271 -14 q 106 289 107 149 q 110 403 103 342 l 182 956 l 88 971 l 93 1032 l 457 1032 l 450 971 l 335 956 l 264 415 q 256 285 254 339 q 308 116 257 176 q 456 56 358 56 q 650 147 582 56 q 742 425 718 238 l 813 956 l 718 971 l 724 1032 l 1011 1032 l 1003 971 l 915 956 l 846 425 m 350 1225 q 411 1305 369 1272 q 510 1338 453 1338 q 567 1324 543 1338 q 619 1282 590 1310 q 663 1248 646 1258 q 701 1238 679 1238 q 761 1257 736 1238 q 807 1306 786 1276 l 850 1254 q 790 1174 832 1210 q 696 1138 749 1138 q 634 1151 658 1138 q 579 1193 610 1165 q 535 1228 553 1217 q 492 1239 517 1239 q 437 1222 460 1239 q 390 1175 414 1206 l 350 1225 z "},"V":{"ha":829,"x_min":21,"x_max":946,"o":"m 399 1032 l 393 971 l 274 956 l 364 319 l 385 128 l 460 319 l 744 956 l 636 971 l 642 1032 l 946 1032 l 938 971 l 850 956 l 407 -7 l 276 -11 l 115 956 l 21 971 l 28 1032 l 399 1032 z "},"W":{"ha":1256,"x_min":10,"x_max":1414,"o":"m 375 1032 l 371 971 l 257 956 l 336 313 l 360 132 l 415 288 l 643 858 l 632 956 l 533 971 l 539 1032 l 907 1032 l 897 971 l 783 956 l 847 313 l 858 132 l 922 297 l 1201 954 l 1079 971 l 1086 1032 l 1414 1032 l 1406 971 l 1307 956 l 879 -7 l 736 -7 l 665 688 l 386 -7 l 244 -7 l 106 954 l 10 971 l 17 1032 l 375 1032 z "},"Ẃ":{"ha":1256,"x_min":10,"x_max":1414,"o":"m 375 1032 l 371 971 l 257 956 l 336 313 l 360 132 l 415 288 l 643 858 l 632 956 l 533 971 l 539 1032 l 907 1032 l 897 971 l 783 956 l 847 313 l 858 132 l 922 297 l 1201 954 l 1079 971 l 1086 1032 l 1414 1032 l 1406 971 l 1307 956 l 879 -7 l 736 -7 l 665 688 l 386 -7 l 244 -7 l 106 954 l 10 971 l 17 1032 l 375 1032 m 868 1365 l 954 1289 q 847 1194 924 1246 q 717 1121 771 1143 l 660 1158 l 868 1365 z "},"Ŵ":{"ha":1256,"x_min":10,"x_max":1414,"o":"m 375 1032 l 371 971 l 257 956 l 336 313 l 360 132 l 415 288 l 643 858 l 632 956 l 533 971 l 539 1032 l 907 1032 l 897 971 l 783 956 l 847 313 l 858 132 l 922 297 l 1201 954 l 1079 971 l 1086 1032 l 1414 1032 l 1406 971 l 1307 956 l 879 -7 l 736 -7 l 665 688 l 386 -7 l 244 -7 l 106 954 l 10 971 l 17 1032 l 375 1032 m 722 1360 l 825 1360 l 972 1131 l 919 1096 l 765 1258 l 540 1097 l 493 1132 l 722 1360 z "},"Ẅ":{"ha":1256,"x_min":10,"x_max":1414,"o":"m 375 1032 l 371 971 l 257 956 l 336 313 l 360 132 l 415 288 l 643 858 l 632 956 l 533 971 l 539 1032 l 907 1032 l 897 971 l 783 956 l 847 313 l 858 132 l 922 297 l 1201 954 l 1079 971 l 1086 1032 l 1414 1032 l 1406 971 l 1307 956 l 879 -7 l 736 -7 l 665 688 l 386 -7 l 244 -7 l 106 954 l 10 971 l 17 1032 l 375 1032 m 600 1157 q 551 1178 571 1157 q 531 1232 531 1200 q 556 1302 531 1274 q 619 1331 582 1331 q 675 1310 656 1331 q 694 1256 694 1289 q 668 1185 694 1213 q 600 1157 642 1157 m 904 1157 q 853 1179 874 1157 q 833 1235 833 1201 q 860 1303 833 1276 q 924 1331 888 1331 q 977 1310 957 1331 q 997 1258 997 1290 q 972 1185 997 1214 q 904 1157 946 1157 z "},"Ẁ":{"ha":1256,"x_min":10,"x_max":1414,"o":"m 375 1032 l 371 971 l 257 956 l 336 313 l 360 132 l 415 288 l 643 858 l 632 956 l 533 971 l 539 1032 l 907 1032 l 897 971 l 783 956 l 847 313 l 858 132 l 922 297 l 1201 954 l 1079 971 l 1086 1032 l 1414 1032 l 1406 971 l 1307 956 l 879 -7 l 736 -7 l 665 688 l 386 -7 l 244 -7 l 106 954 l 10 971 l 17 1032 l 375 1032 m 764 1096 q 640 1178 708 1122 q 544 1285 571 1235 l 631 1357 l 817 1132 l 764 1096 z "},"X":{"ha":899,"x_min":-46,"x_max":963,"o":"m 471 1032 l 465 971 l 356 956 l 497 608 l 736 956 l 629 971 l 635 1032 l 963 1032 l 958 971 l 861 956 l 535 531 l 763 74 l 865 57 l 861 0 l 465 0 l 471 57 l 583 74 l 426 433 l 175 74 l 290 57 l 285 0 l -46 0 l -39 57 l 47 74 l 389 515 l 182 954 l 88 971 l 93 1032 l 471 1032 z "},"Y":{"ha":826,"x_min":31,"x_max":946,"o":"m 415 1032 l 407 971 l 285 956 l 431 578 l 463 482 l 513 571 l 744 956 l 636 971 l 643 1032 l 946 1032 l 939 971 l 858 956 l 503 401 l 461 74 l 617 57 l 611 0 l 150 0 l 156 57 l 313 74 l 354 401 l 114 956 l 31 971 l 36 1032 l 415 1032 z "},"Ý":{"ha":826,"x_min":31,"x_max":946,"o":"m 415 1032 l 407 971 l 285 956 l 431 578 l 463 482 l 513 571 l 744 956 l 636 971 l 643 1032 l 946 1032 l 939 971 l 858 956 l 503 401 l 461 74 l 617 57 l 611 0 l 150 0 l 156 57 l 313 74 l 354 401 l 114 956 l 31 971 l 36 1032 l 415 1032 m 663 1365 l 749 1289 q 642 1194 718 1246 q 511 1121 565 1143 l 454 1158 l 663 1365 z "},"Ŷ":{"ha":826,"x_min":31,"x_max":946,"o":"m 415 1032 l 407 971 l 285 956 l 431 578 l 463 482 l 513 571 l 744 956 l 636 971 l 643 1032 l 946 1032 l 939 971 l 858 956 l 503 401 l 461 74 l 617 57 l 611 0 l 150 0 l 156 57 l 313 74 l 354 401 l 114 956 l 31 971 l 36 1032 l 415 1032 m 517 1360 l 619 1360 l 767 1131 l 714 1096 l 560 1258 l 335 1097 l 288 1132 l 517 1360 z "},"Ÿ":{"ha":826,"x_min":31,"x_max":946,"o":"m 415 1032 l 407 971 l 285 956 l 431 578 l 463 482 l 513 571 l 744 956 l 636 971 l 643 1032 l 946 1032 l 939 971 l 858 956 l 503 401 l 461 74 l 617 57 l 611 0 l 150 0 l 156 57 l 313 74 l 354 401 l 114 956 l 31 971 l 36 1032 l 415 1032 m 394 1157 q 345 1178 365 1157 q 325 1232 325 1200 q 351 1302 325 1274 q 414 1331 376 1331 q 469 1310 450 1331 q 489 1256 489 1289 q 463 1185 489 1213 q 394 1157 436 1157 m 699 1157 q 648 1179 668 1157 q 628 1235 628 1201 q 655 1303 628 1276 q 718 1331 682 1331 q 772 1310 751 1331 q 792 1258 792 1290 q 766 1185 792 1214 q 699 1157 740 1157 z "},"Ẏ":{"ha":826,"x_min":31,"x_max":946,"o":"m 415 1032 l 407 971 l 285 956 l 431 578 l 463 482 l 513 571 l 744 956 l 636 971 l 643 1032 l 946 1032 l 939 971 l 858 956 l 503 401 l 461 74 l 617 57 l 611 0 l 150 0 l 156 57 l 313 74 l 354 401 l 114 956 l 31 971 l 36 1032 l 415 1032 m 546 1140 q 492 1163 515 1140 q 468 1218 468 1186 q 497 1290 468 1260 q 565 1319 526 1319 q 625 1297 601 1319 q 649 1244 649 1275 q 619 1171 649 1201 q 546 1140 590 1140 z "},"Ỵ":{"ha":826,"x_min":31,"x_max":946,"o":"m 415 1032 l 407 971 l 285 956 l 431 578 l 463 482 l 513 571 l 744 956 l 636 971 l 643 1032 l 946 1032 l 939 971 l 858 956 l 503 401 l 461 74 l 617 57 l 611 0 l 150 0 l 156 57 l 313 74 l 354 401 l 114 956 l 31 971 l 36 1032 l 415 1032 m 317 -321 q 262 -298 283 -321 q 240 -239 240 -275 q 269 -164 240 -194 q 339 -133 299 -133 q 397 -156 376 -133 q 418 -212 418 -178 q 390 -289 418 -257 q 317 -321 361 -321 z "},"Ỳ":{"ha":826,"x_min":31,"x_max":946,"o":"m 415 1032 l 407 971 l 285 956 l 431 578 l 463 482 l 513 571 l 744 956 l 636 971 l 643 1032 l 946 1032 l 939 971 l 858 956 l 503 401 l 461 74 l 617 57 l 611 0 l 150 0 l 156 57 l 313 74 l 354 401 l 114 956 l 31 971 l 36 1032 l 415 1032 m 558 1096 q 434 1178 503 1122 q 339 1285 365 1235 l 425 1357 l 611 1132 l 558 1096 z "},"Ỷ":{"ha":826,"x_min":31,"x_max":946,"o":"m 415 1032 l 407 971 l 285 956 l 431 578 l 463 482 l 513 571 l 744 956 l 636 971 l 643 1032 l 946 1032 l 939 971 l 858 956 l 503 401 l 461 74 l 617 57 l 611 0 l 150 0 l 156 57 l 313 74 l 354 401 l 114 956 l 31 971 l 36 1032 l 415 1032 m 497 1082 q 489 1114 489 1094 q 493 1136 489 1126 q 508 1155 497 1149 q 539 1169 518 1161 q 578 1191 565 1182 q 596 1221 592 1200 q 584 1260 599 1244 q 532 1279 569 1276 q 486 1275 493 1279 l 497 1356 q 521 1362 500 1358 q 557 1365 542 1365 q 713 1260 713 1365 q 711 1240 713 1247 q 684 1189 706 1210 q 622 1142 663 1168 l 596 1124 q 570 1104 578 1113 q 564 1082 563 1096 l 497 1082 z "},"Ỹ":{"ha":826,"x_min":31,"x_max":946,"o":"m 415 1032 l 407 971 l 285 956 l 431 578 l 463 482 l 513 571 l 744 956 l 636 971 l 643 1032 l 946 1032 l 939 971 l 858 956 l 503 401 l 461 74 l 617 57 l 611 0 l 150 0 l 156 57 l 313 74 l 354 401 l 114 956 l 31 971 l 36 1032 l 415 1032 m 306 1225 q 367 1305 325 1272 q 465 1338 408 1338 q 522 1324 499 1338 q 575 1282 546 1310 q 618 1248 601 1258 q 657 1238 635 1238 q 717 1257 692 1238 q 763 1306 742 1276 l 806 1254 q 746 1174 788 1210 q 651 1138 704 1138 q 590 1151 614 1138 q 535 1193 565 1165 q 490 1228 508 1217 q 447 1239 472 1239 q 392 1222 415 1239 q 346 1175 369 1206 l 306 1225 z "},"Z":{"ha":818,"x_min":-11,"x_max":840,"o":"m 825 1032 l 840 981 l 257 176 l 167 71 l 601 85 l 700 282 l 782 258 l 718 0 l 7 0 l -11 54 l 565 844 l 674 961 l 278 954 l 206 774 l 124 786 l 164 1032 l 825 1032 z "},"Ź":{"ha":818,"x_min":-11,"x_max":840,"o":"m 825 1032 l 840 981 l 257 176 l 167 71 l 601 85 l 700 282 l 782 258 l 718 0 l 7 0 l -11 54 l 565 844 l 674 961 l 278 954 l 206 774 l 124 786 l 164 1032 l 825 1032 m 631 1443 l 717 1367 q 610 1272 686 1324 q 479 1199 533 1221 l 422 1236 l 631 1443 z "},"Ž":{"ha":818,"x_min":-11,"x_max":840,"o":"m 825 1032 l 840 981 l 257 176 l 167 71 l 601 85 l 700 282 l 782 258 l 718 0 l 7 0 l -11 54 l 565 844 l 674 961 l 278 954 l 206 774 l 124 786 l 164 1032 l 825 1032 m 368 1438 l 518 1274 l 732 1438 l 781 1404 l 560 1176 l 460 1176 l 313 1403 l 368 1438 z "},"Ż":{"ha":818,"x_min":-11,"x_max":840,"o":"m 825 1032 l 840 981 l 257 176 l 167 71 l 601 85 l 700 282 l 782 258 l 718 0 l 7 0 l -11 54 l 565 844 l 674 961 l 278 954 l 206 774 l 124 786 l 164 1032 l 825 1032 m 514 1218 q 460 1241 483 1218 q 436 1296 436 1264 q 465 1367 436 1338 q 533 1397 494 1397 q 593 1375 569 1397 q 617 1322 617 1353 q 588 1249 617 1279 q 514 1218 558 1218 z "},"Ẓ":{"ha":818,"x_min":-11,"x_max":840,"o":"m 825 1032 l 840 981 l 257 176 l 167 71 l 601 85 l 700 282 l 782 258 l 718 0 l 7 0 l -11 54 l 565 844 l 674 961 l 278 954 l 206 774 l 124 786 l 164 1032 l 825 1032 m 321 -321 q 266 -298 288 -321 q 244 -239 244 -275 q 274 -164 244 -194 q 343 -133 303 -133 q 401 -156 381 -133 q 422 -212 422 -178 q 394 -289 422 -257 q 321 -321 365 -321 z "},"a":{"ha":806,"x_min":53,"x_max":746,"o":"m 639 131 q 638 115 638 125 q 645 85 638 94 q 665 75 653 75 q 726 110 688 75 l 746 74 q 688 17 731 49 q 593 -14 646 -14 q 525 8 550 -14 q 501 75 500 29 l 507 115 q 403 24 463 61 q 276 -14 344 -14 q 108 66 164 -14 q 53 276 53 146 q 106 515 53 396 q 260 711 158 633 q 497 789 361 789 q 569 781 529 789 q 643 764 610 774 l 728 788 l 639 131 m 571 690 q 482 713 535 713 q 331 647 393 713 q 237 484 268 582 q 206 288 206 386 q 235 133 206 188 q 324 78 265 78 q 422 115 372 78 q 506 199 471 151 l 571 690 z "},"á":{"ha":806,"x_min":53,"x_max":749,"o":"m 639 131 q 638 115 638 125 q 645 85 638 94 q 665 75 653 75 q 726 110 688 75 l 746 74 q 688 17 731 49 q 593 -14 646 -14 q 525 8 550 -14 q 501 75 500 29 l 507 115 q 403 24 463 61 q 276 -14 344 -14 q 108 66 164 -14 q 53 276 53 146 q 106 515 53 396 q 260 711 158 633 q 497 789 361 789 q 569 781 529 789 q 643 764 610 774 l 728 788 l 639 131 m 571 690 q 482 713 535 713 q 331 647 393 713 q 237 484 268 582 q 206 288 206 386 q 235 133 206 188 q 324 78 265 78 q 422 115 372 78 q 506 199 471 151 l 571 690 m 654 1217 l 749 1125 q 685 1051 735 1101 q 576 953 635 1001 q 479 885 518 904 l 435 928 l 654 1217 z "},"ă":{"ha":806,"x_min":53,"x_max":746,"o":"m 639 131 q 638 115 638 125 q 645 85 638 94 q 665 75 653 75 q 726 110 688 75 l 746 74 q 688 17 731 49 q 593 -14 646 -14 q 525 8 550 -14 q 501 75 500 29 l 507 115 q 403 24 463 61 q 276 -14 344 -14 q 108 66 164 -14 q 53 276 53 146 q 106 515 53 396 q 260 711 158 633 q 497 789 361 789 q 569 781 529 789 q 643 764 610 774 l 728 788 l 639 131 m 571 690 q 482 713 535 713 q 331 647 393 713 q 237 484 268 582 q 206 288 206 386 q 235 133 206 188 q 324 78 265 78 q 422 115 372 78 q 506 199 471 151 l 571 690 m 513 889 q 368 949 422 889 q 314 1097 314 1008 q 317 1128 314 1111 l 396 1128 l 397 1103 q 434 1025 401 1057 q 524 993 467 993 q 665 1128 644 993 l 743 1128 l 743 1106 q 711 1001 739 1051 q 632 920 683 951 q 513 889 581 889 z "},"ắ":{"ha":806,"x_min":53,"x_max":746,"o":"m 639 131 q 638 115 638 125 q 645 85 638 94 q 665 75 653 75 q 726 110 688 75 l 746 74 q 688 17 731 49 q 593 -14 646 -14 q 525 8 550 -14 q 501 75 500 29 l 507 115 q 403 24 463 61 q 276 -14 344 -14 q 108 66 164 -14 q 53 276 53 146 q 106 515 53 396 q 260 711 158 633 q 497 789 361 789 q 569 781 529 789 q 643 764 610 774 l 728 788 l 639 131 m 571 690 q 482 713 535 713 q 331 647 393 713 q 237 484 268 582 q 206 288 206 386 q 235 133 206 188 q 324 78 265 78 q 422 115 372 78 q 506 199 471 151 l 571 690 m 457 1158 l 653 1363 l 732 1285 q 618 1185 692 1243 q 513 1110 544 1128 l 457 1158 m 508 894 q 379 933 429 894 q 329 1040 329 971 q 331 1067 329 1057 q 340 1106 332 1085 l 415 1106 l 411 1081 q 525 1000 407 1000 q 619 1020 588 1000 q 661 1079 651 1040 q 665 1106 665 1094 l 740 1106 q 738 1068 740 1096 q 658 941 725 988 q 508 894 590 894 z "},"ặ":{"ha":806,"x_min":53,"x_max":746,"o":"m 639 131 q 638 115 638 125 q 645 85 638 94 q 665 75 653 75 q 726 110 688 75 l 746 74 q 688 17 731 49 q 593 -14 646 -14 q 525 8 550 -14 q 501 75 500 29 l 507 115 q 403 24 463 61 q 276 -14 344 -14 q 108 66 164 -14 q 53 276 53 146 q 106 515 53 396 q 260 711 158 633 q 497 789 361 789 q 569 781 529 789 q 643 764 610 774 l 728 788 l 639 131 m 571 690 q 482 713 535 713 q 331 647 393 713 q 237 484 268 582 q 206 288 206 386 q 235 133 206 188 q 324 78 265 78 q 422 115 372 78 q 506 199 471 151 l 571 690 m 294 -321 q 240 -298 261 -321 q 218 -239 218 -275 q 247 -164 218 -194 q 317 -133 276 -133 q 375 -156 354 -133 q 396 -212 396 -178 q 367 -289 396 -257 q 294 -321 339 -321 m 513 889 q 368 949 422 889 q 314 1097 314 1008 q 317 1128 314 1111 l 396 1128 l 397 1103 q 434 1025 401 1057 q 524 993 467 993 q 665 1128 644 993 l 743 1128 l 743 1106 q 711 1001 739 1051 q 632 920 683 951 q 513 889 581 889 z "},"ằ":{"ha":806,"x_min":53,"x_max":746,"o":"m 639 131 q 638 115 638 125 q 645 85 638 94 q 665 75 653 75 q 726 110 688 75 l 746 74 q 688 17 731 49 q 593 -14 646 -14 q 525 8 550 -14 q 501 75 500 29 l 507 115 q 403 24 463 61 q 276 -14 344 -14 q 108 66 164 -14 q 53 276 53 146 q 106 515 53 396 q 260 711 158 633 q 497 789 361 789 q 569 781 529 789 q 643 764 610 774 l 728 788 l 639 131 m 571 690 q 482 713 535 713 q 331 647 393 713 q 237 484 268 582 q 206 288 206 386 q 235 133 206 188 q 324 78 265 78 q 422 115 372 78 q 506 199 471 151 l 571 690 m 553 1110 q 472 1185 526 1128 q 388 1285 417 1242 l 492 1363 l 622 1158 l 553 1110 m 508 894 q 379 933 429 894 q 329 1040 329 971 q 331 1067 329 1057 q 340 1106 332 1085 l 415 1106 l 411 1081 q 525 1000 407 1000 q 619 1020 588 1000 q 661 1079 651 1040 q 665 1106 665 1094 l 740 1106 q 738 1068 740 1096 q 658 941 725 988 q 508 894 590 894 z "},"ẳ":{"ha":806,"x_min":53,"x_max":746,"o":"m 639 131 q 638 115 638 125 q 645 85 638 94 q 665 75 653 75 q 726 110 688 75 l 746 74 q 688 17 731 49 q 593 -14 646 -14 q 525 8 550 -14 q 501 75 500 29 l 507 115 q 403 24 463 61 q 276 -14 344 -14 q 108 66 164 -14 q 53 276 53 146 q 106 515 53 396 q 260 711 158 633 q 497 789 361 789 q 569 781 529 789 q 643 764 610 774 l 728 788 l 639 131 m 571 690 q 482 713 535 713 q 331 647 393 713 q 237 484 268 582 q 206 288 206 386 q 235 133 206 188 q 324 78 265 78 q 422 115 372 78 q 506 199 471 151 l 571 690 m 511 1079 q 497 1118 497 1093 q 510 1153 497 1139 q 550 1182 524 1167 q 581 1204 569 1194 q 594 1226 592 1214 q 531 1281 603 1275 q 501 1278 517 1281 q 481 1274 485 1276 l 492 1354 q 518 1361 494 1358 q 557 1364 542 1364 q 660 1338 622 1364 q 697 1264 697 1313 q 678 1201 697 1224 q 618 1150 658 1178 q 589 1131 608 1144 q 567 1079 561 1111 l 511 1079 m 510 894 q 381 933 431 894 q 331 1040 331 971 q 332 1067 331 1057 q 342 1106 333 1085 l 417 1106 l 413 1081 q 526 1000 408 1000 q 621 1020 589 1000 q 663 1079 653 1040 q 667 1106 667 1094 l 742 1106 q 739 1068 742 1096 q 659 941 726 988 q 510 894 592 894 z "},"ẵ":{"ha":806,"x_min":53,"x_max":772,"o":"m 639 131 q 638 115 638 125 q 645 85 638 94 q 665 75 653 75 q 726 110 688 75 l 746 74 q 688 17 731 49 q 593 -14 646 -14 q 525 8 550 -14 q 501 75 500 29 l 507 115 q 403 24 463 61 q 276 -14 344 -14 q 108 66 164 -14 q 53 276 53 146 q 106 515 53 396 q 260 711 158 633 q 497 789 361 789 q 569 781 529 789 q 643 764 610 774 l 728 788 l 639 131 m 571 690 q 482 713 535 713 q 331 647 393 713 q 237 484 268 582 q 206 288 206 386 q 235 133 206 188 q 324 78 265 78 q 422 115 372 78 q 506 199 471 151 l 571 690 m 349 1218 q 411 1306 372 1272 q 501 1340 450 1340 q 550 1330 531 1340 q 592 1300 569 1319 q 625 1276 613 1283 q 654 1269 638 1269 q 724 1318 693 1269 l 772 1294 q 710 1206 749 1239 q 621 1172 672 1172 q 574 1182 592 1172 q 533 1211 556 1192 q 501 1235 514 1228 q 469 1243 488 1243 q 433 1231 447 1243 q 397 1194 418 1219 l 349 1218 m 508 894 q 379 933 429 894 q 329 1040 329 971 q 331 1067 329 1057 q 340 1106 332 1085 l 415 1106 l 411 1081 q 525 1000 407 1000 q 619 1020 588 1000 q 661 1079 651 1040 q 665 1106 665 1094 l 740 1106 q 738 1068 740 1096 q 658 941 725 988 q 508 894 590 894 z "},"ǎ":{"ha":806,"x_min":53,"x_max":794,"o":"m 639 131 q 638 115 638 125 q 645 85 638 94 q 665 75 653 75 q 726 110 688 75 l 746 74 q 688 17 731 49 q 593 -14 646 -14 q 525 8 550 -14 q 501 75 500 29 l 507 115 q 403 24 463 61 q 276 -14 344 -14 q 108 66 164 -14 q 53 276 53 146 q 106 515 53 396 q 260 711 158 633 q 497 789 361 789 q 569 781 529 789 q 643 764 610 774 l 728 788 l 639 131 m 571 690 q 482 713 535 713 q 331 647 393 713 q 237 484 268 582 q 206 288 206 386 q 235 133 206 188 q 324 78 265 78 q 422 115 372 78 q 506 199 471 151 l 571 690 m 381 1158 l 525 989 l 744 1158 l 794 1124 l 565 885 l 464 885 l 324 1124 l 381 1158 z "},"â":{"ha":806,"x_min":53,"x_max":746,"o":"m 639 131 q 638 115 638 125 q 645 85 638 94 q 665 75 653 75 q 726 110 688 75 l 746 74 q 688 17 731 49 q 593 -14 646 -14 q 525 8 550 -14 q 501 75 500 29 l 507 115 q 403 24 463 61 q 276 -14 344 -14 q 108 66 164 -14 q 53 276 53 146 q 106 515 53 396 q 260 711 158 633 q 497 789 361 789 q 569 781 529 789 q 643 764 610 774 l 728 788 l 639 131 m 571 690 q 482 713 535 713 q 331 647 393 713 q 237 484 268 582 q 206 288 206 386 q 235 133 206 188 q 324 78 265 78 q 422 115 372 78 q 506 199 471 151 l 571 690 m 571 1160 l 693 1026 l 715 904 l 590 988 l 408 949 l 306 906 l 413 1054 l 571 1160 z "},"ấ":{"ha":806,"x_min":53,"x_max":1013,"o":"m 639 131 q 638 115 638 125 q 645 85 638 94 q 665 75 653 75 q 726 110 688 75 l 746 74 q 688 17 731 49 q 593 -14 646 -14 q 525 8 550 -14 q 501 75 500 29 l 507 115 q 403 24 463 61 q 276 -14 344 -14 q 108 66 164 -14 q 53 276 53 146 q 106 515 53 396 q 260 711 158 633 q 497 789 361 789 q 569 781 529 789 q 643 764 610 774 l 728 788 l 639 131 m 571 690 q 482 713 535 713 q 331 647 393 713 q 237 484 268 582 q 206 288 206 386 q 235 133 206 188 q 324 78 265 78 q 422 115 372 78 q 506 199 471 151 l 571 690 m 714 1138 l 932 1360 l 1013 1281 q 892 1174 981 1240 q 757 1088 804 1107 l 714 1138 m 604 1139 l 753 926 l 686 888 l 535 1033 l 328 888 l 281 924 l 500 1139 l 604 1139 z "},"ậ":{"ha":806,"x_min":53,"x_max":746,"o":"m 639 131 q 638 115 638 125 q 645 85 638 94 q 665 75 653 75 q 726 110 688 75 l 746 74 q 688 17 731 49 q 593 -14 646 -14 q 525 8 550 -14 q 501 75 500 29 l 507 115 q 403 24 463 61 q 276 -14 344 -14 q 108 66 164 -14 q 53 276 53 146 q 106 515 53 396 q 260 711 158 633 q 497 789 361 789 q 569 781 529 789 q 643 764 610 774 l 728 788 l 639 131 m 571 690 q 482 713 535 713 q 331 647 393 713 q 237 484 268 582 q 206 288 206 386 q 235 133 206 188 q 324 78 265 78 q 422 115 372 78 q 506 199 471 151 l 571 690 m 294 -321 q 240 -298 261 -321 q 218 -239 218 -275 q 247 -164 218 -194 q 317 -133 276 -133 q 375 -156 354 -133 q 396 -212 396 -178 q 367 -289 396 -257 q 294 -321 339 -321 m 571 1160 l 693 1026 l 715 904 l 590 988 l 408 949 l 306 906 l 413 1054 l 571 1160 z "},"ầ":{"ha":806,"x_min":53,"x_max":888,"o":"m 639 131 q 638 115 638 125 q 645 85 638 94 q 665 75 653 75 q 726 110 688 75 l 746 74 q 688 17 731 49 q 593 -14 646 -14 q 525 8 550 -14 q 501 75 500 29 l 507 115 q 403 24 463 61 q 276 -14 344 -14 q 108 66 164 -14 q 53 276 53 146 q 106 515 53 396 q 260 711 158 633 q 497 789 361 789 q 569 781 529 789 q 643 764 610 774 l 728 788 l 639 131 m 571 690 q 482 713 535 713 q 331 647 393 713 q 237 484 268 582 q 206 288 206 386 q 235 133 206 188 q 324 78 265 78 q 422 115 372 78 q 506 199 471 151 l 571 690 m 829 1118 q 738 1184 790 1135 q 653 1283 686 1233 l 760 1364 l 888 1167 l 829 1118 m 604 1139 l 753 926 l 688 888 l 535 1033 l 328 888 l 281 924 l 500 1139 l 604 1139 z "},"ẩ":{"ha":806,"x_min":53,"x_max":957,"o":"m 639 131 q 638 115 638 125 q 645 85 638 94 q 665 75 653 75 q 726 110 688 75 l 746 74 q 688 17 731 49 q 593 -14 646 -14 q 525 8 550 -14 q 501 75 500 29 l 507 115 q 403 24 463 61 q 276 -14 344 -14 q 108 66 164 -14 q 53 276 53 146 q 106 515 53 396 q 260 711 158 633 q 497 789 361 789 q 569 781 529 789 q 643 764 610 774 l 728 788 l 639 131 m 571 690 q 482 713 535 713 q 331 647 393 713 q 237 484 268 582 q 206 288 206 386 q 235 133 206 188 q 324 78 265 78 q 422 115 372 78 q 506 199 471 151 l 571 690 m 767 1011 q 756 1036 760 1021 q 753 1064 751 1051 q 769 1089 757 1079 q 800 1110 781 1099 q 833 1132 822 1124 q 850 1154 844 1140 l 850 1160 q 840 1197 851 1183 q 796 1213 828 1211 l 786 1213 q 756 1210 767 1213 l 771 1293 q 792 1299 774 1296 q 824 1301 810 1301 q 922 1276 886 1301 q 957 1204 957 1251 q 953 1172 957 1189 q 925 1124 946 1143 q 869 1083 904 1106 l 842 1065 q 818 1018 818 1049 l 767 1011 m 604 1139 l 753 926 l 688 888 l 535 1033 l 328 888 l 281 924 l 500 1139 l 604 1139 z "},"ẫ":{"ha":806,"x_min":53,"x_max":778,"o":"m 639 131 q 638 115 638 125 q 645 85 638 94 q 665 75 653 75 q 726 110 688 75 l 746 74 q 688 17 731 49 q 593 -14 646 -14 q 525 8 550 -14 q 501 75 500 29 l 507 115 q 403 24 463 61 q 276 -14 344 -14 q 108 66 164 -14 q 53 276 53 146 q 106 515 53 396 q 260 711 158 633 q 497 789 361 789 q 569 781 529 789 q 643 764 610 774 l 728 788 l 639 131 m 571 690 q 482 713 535 713 q 331 647 393 713 q 237 484 268 582 q 206 288 206 386 q 235 133 206 188 q 324 78 265 78 q 422 115 372 78 q 506 199 471 151 l 571 690 m 356 1236 q 419 1324 378 1289 q 514 1358 461 1358 q 562 1348 543 1358 q 600 1318 581 1338 q 631 1294 619 1301 q 660 1288 642 1288 q 729 1336 701 1288 l 778 1311 q 715 1223 756 1257 q 624 1189 675 1189 q 578 1199 596 1189 q 538 1228 560 1208 q 507 1251 521 1243 q 475 1260 493 1260 q 437 1248 451 1260 q 404 1213 422 1236 l 356 1236 m 606 1139 l 754 926 l 689 888 l 536 1033 l 329 888 l 282 924 l 501 1139 l 606 1139 z "},"ä":{"ha":806,"x_min":53,"x_max":758,"o":"m 639 131 q 638 115 638 125 q 645 85 638 94 q 665 75 653 75 q 726 110 688 75 l 746 74 q 688 17 731 49 q 593 -14 646 -14 q 525 8 550 -14 q 501 75 500 29 l 507 115 q 403 24 463 61 q 276 -14 344 -14 q 108 66 164 -14 q 53 276 53 146 q 106 515 53 396 q 260 711 158 633 q 497 789 361 789 q 569 781 529 789 q 643 764 610 774 l 728 788 l 639 131 m 571 690 q 482 713 535 713 q 331 647 393 713 q 237 484 268 582 q 206 288 206 386 q 235 133 206 188 q 324 78 265 78 q 422 115 372 78 q 506 199 471 151 l 571 690 m 369 915 q 319 940 342 915 q 297 996 297 964 q 324 1069 297 1039 q 390 1100 350 1100 q 446 1076 425 1100 q 467 1019 467 1053 q 439 945 465 975 q 369 915 413 915 m 663 915 q 612 940 633 915 q 590 996 590 964 q 616 1069 590 1039 q 682 1100 642 1100 q 738 1077 717 1100 q 758 1022 758 1054 q 732 946 758 976 q 663 915 706 915 z "},"ạ":{"ha":806,"x_min":53,"x_max":746,"o":"m 639 131 q 638 115 638 125 q 645 85 638 94 q 665 75 653 75 q 726 110 688 75 l 746 74 q 688 17 731 49 q 593 -14 646 -14 q 525 8 550 -14 q 501 75 500 29 l 507 115 q 403 24 463 61 q 276 -14 344 -14 q 108 66 164 -14 q 53 276 53 146 q 106 515 53 396 q 260 711 158 633 q 497 789 361 789 q 569 781 529 789 q 643 764 610 774 l 728 788 l 639 131 m 571 690 q 482 713 535 713 q 331 647 393 713 q 237 484 268 582 q 206 288 206 386 q 235 133 206 188 q 324 78 265 78 q 422 115 372 78 q 506 199 471 151 l 571 690 m 294 -321 q 240 -298 261 -321 q 218 -239 218 -275 q 247 -164 218 -194 q 317 -133 276 -133 q 375 -156 354 -133 q 396 -212 396 -178 q 367 -289 396 -257 q 294 -321 339 -321 z "},"à":{"ha":806,"x_min":53,"x_max":746,"o":"m 639 131 q 638 115 638 125 q 645 85 638 94 q 665 75 653 75 q 726 110 688 75 l 746 74 q 688 17 731 49 q 593 -14 646 -14 q 525 8 550 -14 q 501 75 500 29 l 507 115 q 403 24 463 61 q 276 -14 344 -14 q 108 66 164 -14 q 53 276 53 146 q 106 515 53 396 q 260 711 158 633 q 497 789 361 789 q 569 781 529 789 q 643 764 610 774 l 728 788 l 639 131 m 571 690 q 482 713 535 713 q 331 647 393 713 q 237 484 268 582 q 206 288 206 386 q 235 133 206 188 q 324 78 265 78 q 422 115 372 78 q 506 199 471 151 l 571 690 m 543 889 q 404 997 492 918 q 290 1124 317 1076 l 390 1217 l 592 928 l 543 889 z "},"ả":{"ha":806,"x_min":53,"x_max":746,"o":"m 639 131 q 638 115 638 125 q 645 85 638 94 q 665 75 653 75 q 726 110 688 75 l 746 74 q 688 17 731 49 q 593 -14 646 -14 q 525 8 550 -14 q 501 75 500 29 l 507 115 q 403 24 463 61 q 276 -14 344 -14 q 108 66 164 -14 q 53 276 53 146 q 106 515 53 396 q 260 711 158 633 q 497 789 361 789 q 569 781 529 789 q 643 764 610 774 l 728 788 l 639 131 m 571 690 q 482 713 535 713 q 331 647 393 713 q 237 484 268 582 q 206 288 206 386 q 235 133 206 188 q 324 78 265 78 q 422 115 372 78 q 506 199 471 151 l 571 690 m 464 861 q 450 890 456 872 q 446 921 444 908 q 462 948 450 938 q 497 972 474 958 q 534 998 522 989 q 553 1024 546 1007 l 553 1029 q 542 1071 557 1053 q 489 1090 526 1089 l 478 1090 q 443 1088 454 1090 l 458 1182 q 482 1188 461 1185 q 518 1192 503 1192 q 632 1162 590 1192 q 674 1076 674 1132 q 671 1044 674 1067 q 640 988 664 1010 q 576 940 617 965 l 549 924 q 530 901 536 913 q 525 869 524 889 l 464 861 z "},"ā":{"ha":806,"x_min":53,"x_max":746,"o":"m 639 131 q 638 115 638 125 q 645 85 638 94 q 665 75 653 75 q 726 110 688 75 l 746 74 q 688 17 731 49 q 593 -14 646 -14 q 525 8 550 -14 q 501 75 500 29 l 507 115 q 403 24 463 61 q 276 -14 344 -14 q 108 66 164 -14 q 53 276 53 146 q 106 515 53 396 q 260 711 158 633 q 497 789 361 789 q 569 781 529 789 q 643 764 610 774 l 728 788 l 639 131 m 571 690 q 482 713 535 713 q 331 647 393 713 q 237 484 268 582 q 206 288 206 386 q 235 133 206 188 q 324 78 265 78 q 422 115 372 78 q 506 199 471 151 l 571 690 m 711 1029 l 699 926 l 336 926 l 349 1029 l 711 1029 z "},"ą":{"ha":806,"x_min":53,"x_max":746,"o":"m 53 276 q 106 515 53 396 q 260 711 158 633 q 497 789 361 789 q 569 781 529 789 q 643 764 610 774 l 728 788 l 639 131 q 638 115 638 125 q 645 85 638 94 q 665 75 653 75 q 726 110 688 75 l 746 74 q 720 43 739 61 q 676 10 701 25 q 564 -135 564 -78 q 606 -189 563 -189 q 707 -144 651 -189 l 724 -201 q 643 -254 690 -233 q 539 -275 596 -275 q 461 -249 488 -275 q 435 -185 435 -224 q 442 -146 435 -168 q 460 -107 449 -124 q 557 -8 494 -53 q 501 75 500 6 l 507 115 q 403 24 463 61 q 276 -14 344 -14 q 108 66 164 -14 q 53 276 53 146 m 206 288 q 235 133 206 188 q 324 78 265 78 q 422 115 372 78 q 506 199 471 151 l 571 690 q 482 713 535 713 q 331 647 393 713 q 237 484 268 582 q 206 288 206 386 z "},"å":{"ha":806,"x_min":53,"x_max":753,"o":"m 639 131 q 638 115 638 125 q 645 85 638 94 q 665 75 653 75 q 726 110 688 75 l 746 74 q 688 17 731 49 q 593 -14 646 -14 q 525 8 550 -14 q 501 75 500 29 l 507 115 q 403 24 463 61 q 276 -14 344 -14 q 108 66 164 -14 q 53 276 53 146 q 106 515 53 396 q 260 711 158 633 q 497 789 361 789 q 569 781 529 789 q 643 764 610 774 l 728 788 l 639 131 m 571 690 q 482 713 535 713 q 331 647 393 713 q 237 484 268 582 q 206 288 206 386 q 235 133 206 188 q 324 78 265 78 q 422 115 372 78 q 506 199 471 151 l 571 690 m 514 901 q 369 944 421 901 q 318 1061 318 986 q 354 1176 318 1131 q 447 1244 390 1222 q 563 1265 503 1265 q 701 1224 650 1265 q 753 1110 753 1182 q 719 994 753 1042 q 631 924 685 947 q 514 901 576 901 m 524 964 q 624 994 583 964 q 664 1094 664 1025 q 632 1172 664 1142 q 551 1203 600 1203 q 451 1170 493 1203 q 410 1072 410 1138 q 442 995 410 1026 q 524 964 475 964 z "},"ǻ":{"ha":806,"x_min":53,"x_max":764,"o":"m 639 131 q 638 115 638 125 q 645 85 638 94 q 665 75 653 75 q 726 110 688 75 l 746 74 q 688 17 731 49 q 593 -14 646 -14 q 525 8 550 -14 q 501 75 500 29 l 507 115 q 403 24 463 61 q 276 -14 344 -14 q 108 66 164 -14 q 53 276 53 146 q 106 515 53 396 q 260 711 158 633 q 497 789 361 789 q 569 781 529 789 q 643 764 610 774 l 728 788 l 639 131 m 571 690 q 482 713 535 713 q 331 647 393 713 q 237 484 268 582 q 206 288 206 386 q 235 133 206 188 q 324 78 265 78 q 422 115 372 78 q 506 199 471 151 l 571 690 m 310 1046 q 493 1206 332 1176 l 625 1364 l 725 1311 q 610 1207 667 1243 q 723 1156 682 1194 q 764 1063 764 1118 q 763 1042 764 1049 q 680 911 750 954 q 508 868 610 868 q 363 909 419 868 q 307 1018 307 950 q 310 1046 307 1026 m 413 1026 q 441 965 413 988 q 522 943 469 943 q 616 964 582 943 q 658 1036 650 985 q 660 1054 660 1043 q 631 1115 660 1093 q 550 1136 603 1136 q 451 1107 489 1136 q 413 1026 413 1078 z "},"ã":{"ha":806,"x_min":53,"x_max":761,"o":"m 639 131 q 638 115 638 125 q 645 85 638 94 q 665 75 653 75 q 726 110 688 75 l 746 74 q 688 17 731 49 q 593 -14 646 -14 q 525 8 550 -14 q 501 75 500 29 l 507 115 q 403 24 463 61 q 276 -14 344 -14 q 108 66 164 -14 q 53 276 53 146 q 106 515 53 396 q 260 711 158 633 q 497 789 361 789 q 569 781 529 789 q 643 764 610 774 l 728 788 l 639 131 m 571 690 q 482 713 535 713 q 331 647 393 713 q 237 484 268 582 q 206 288 206 386 q 235 133 206 188 q 324 78 265 78 q 422 115 372 78 q 506 199 471 151 l 571 690 m 293 982 q 350 1050 313 1024 q 433 1076 388 1076 q 495 1064 471 1076 q 549 1026 519 1051 q 585 999 569 1008 q 621 990 601 990 q 670 1003 653 990 q 699 1031 688 1015 q 714 1051 710 1047 l 761 994 q 705 919 746 949 q 611 890 664 890 q 550 903 574 890 q 501 939 526 915 q 463 967 479 958 q 422 976 446 976 q 374 965 392 976 q 332 928 356 954 l 293 982 z "},"æ":{"ha":1179,"x_min":53,"x_max":1128,"o":"m 710 701 q 816 765 758 743 q 933 788 874 788 q 1079 740 1031 788 q 1128 615 1128 692 q 1051 449 1128 517 q 867 348 974 381 q 675 314 761 315 q 821 79 668 79 q 946 108 885 79 q 1057 188 1007 136 l 1088 133 q 1023 67 1067 101 q 918 10 979 33 q 786 -14 857 -14 q 612 42 675 -14 q 531 197 549 99 q 413 49 485 113 q 260 -14 342 -14 q 103 64 153 -14 q 53 274 53 142 q 109 513 53 393 q 271 710 165 632 q 515 788 376 788 q 653 765 581 788 l 725 788 l 710 701 m 894 714 q 785 663 832 714 q 710 534 738 611 q 676 382 683 457 q 815 412 743 385 q 934 490 886 439 q 982 606 982 540 q 894 714 982 714 m 579 689 q 503 711 549 711 q 342 646 410 711 q 240 482 275 581 q 206 286 206 383 q 230 138 206 190 q 301 85 254 85 q 417 141 361 85 q 513 265 474 197 l 579 689 z "},"ǽ":{"ha":1179,"x_min":53,"x_max":1128,"o":"m 710 701 q 816 765 758 743 q 933 788 874 788 q 1079 740 1031 788 q 1128 615 1128 692 q 1051 449 1128 517 q 867 348 974 381 q 675 314 761 315 q 821 79 668 79 q 946 108 885 79 q 1057 188 1007 136 l 1088 133 q 1023 67 1067 101 q 918 10 979 33 q 786 -14 857 -14 q 612 42 675 -14 q 531 197 549 99 q 413 49 485 113 q 260 -14 342 -14 q 103 64 153 -14 q 53 274 53 142 q 109 513 53 393 q 271 710 165 632 q 515 788 376 788 q 653 765 581 788 l 725 788 l 710 701 m 894 714 q 785 663 832 714 q 710 534 738 611 q 676 382 683 457 q 815 412 743 385 q 934 490 886 439 q 982 606 982 540 q 894 714 982 714 m 579 689 q 503 711 549 711 q 342 646 410 711 q 240 482 275 581 q 206 286 206 383 q 230 138 206 190 q 301 85 254 85 q 417 141 361 85 q 513 265 474 197 l 579 689 m 858 1218 l 953 1126 q 889 1053 939 1103 q 781 954 839 1003 q 683 886 722 906 l 639 929 l 858 1218 z "},"b":{"ha":804,"x_min":72,"x_max":750,"o":"m 304 681 q 397 758 340 726 q 518 789 453 789 q 691 710 632 789 q 750 494 750 631 q 696 255 750 372 q 541 62 642 138 q 308 -14 440 -14 q 222 -4 268 -14 q 143 19 175 6 l 72 -7 l 207 1021 l 139 1046 l 151 1096 l 329 1119 l 360 1101 l 304 681 m 225 88 q 325 63 258 63 q 476 128 414 63 q 568 292 538 193 q 599 490 599 390 q 566 640 599 585 q 472 696 533 696 q 368 661 417 696 q 290 582 319 626 l 225 88 z "},"ḃ":{"ha":804,"x_min":72,"x_max":750,"o":"m 304 681 q 397 758 340 726 q 518 789 453 789 q 691 710 632 789 q 750 494 750 631 q 696 255 750 372 q 541 62 642 138 q 308 -14 440 -14 q 222 -4 268 -14 q 143 19 175 6 l 72 -7 l 207 1021 l 139 1046 l 151 1096 l 329 1119 l 360 1101 l 304 681 m 225 88 q 325 63 258 63 q 476 128 414 63 q 568 292 538 193 q 599 490 599 390 q 566 640 599 585 q 472 696 533 696 q 368 661 417 696 q 290 582 319 626 l 225 88 m 597 918 q 542 942 565 918 q 518 1003 518 965 q 546 1081 518 1050 q 619 1111 574 1111 q 680 1088 657 1111 q 703 1031 703 1064 q 674 947 701 976 q 597 918 646 918 z "},"ḅ":{"ha":804,"x_min":72,"x_max":750,"o":"m 304 681 q 397 758 340 726 q 518 789 453 789 q 691 710 632 789 q 750 494 750 631 q 696 255 750 372 q 541 62 642 138 q 308 -14 440 -14 q 222 -4 268 -14 q 143 19 175 6 l 72 -7 l 207 1021 l 139 1046 l 151 1096 l 329 1119 l 360 1101 l 304 681 m 225 88 q 325 63 258 63 q 476 128 414 63 q 568 292 538 193 q 599 490 599 390 q 566 640 599 585 q 472 696 533 696 q 368 661 417 696 q 290 582 319 626 l 225 88 m 276 -321 q 222 -298 243 -321 q 200 -239 200 -275 q 229 -164 200 -194 q 299 -133 258 -133 q 357 -156 336 -133 q 378 -212 378 -178 q 349 -289 378 -257 q 276 -321 321 -321 z "},"c":{"ha":621,"x_min":47,"x_max":617,"o":"m 550 619 q 425 699 471 699 q 310 650 361 699 q 229 515 258 601 q 200 318 200 429 q 347 82 200 82 q 447 103 406 82 q 536 167 489 124 l 565 114 q 461 26 531 67 q 299 -14 392 -14 q 114 69 181 -14 q 47 300 47 151 q 95 527 47 414 q 237 715 143 640 q 458 789 331 789 q 543 781 499 789 q 617 758 588 772 l 578 613 l 550 619 z "},"ć":{"ha":621,"x_min":47,"x_max":688,"o":"m 550 619 q 425 699 471 699 q 310 650 361 699 q 229 515 258 601 q 200 318 200 429 q 347 82 200 82 q 447 103 406 82 q 536 167 489 124 l 565 114 q 461 26 531 67 q 299 -14 392 -14 q 114 69 181 -14 q 47 300 47 151 q 95 527 47 414 q 237 715 143 640 q 458 789 331 789 q 543 781 499 789 q 617 758 588 772 l 578 613 l 550 619 m 593 1218 l 688 1126 q 624 1053 674 1103 q 515 954 574 1003 q 418 886 457 906 l 374 929 l 593 1218 z "},"č":{"ha":621,"x_min":47,"x_max":733,"o":"m 550 619 q 425 699 471 699 q 310 650 361 699 q 229 515 258 601 q 200 318 200 429 q 347 82 200 82 q 447 103 406 82 q 536 167 489 124 l 565 114 q 461 26 531 67 q 299 -14 392 -14 q 114 69 181 -14 q 47 300 47 151 q 95 527 47 414 q 237 715 143 640 q 458 789 331 789 q 543 781 499 789 q 617 758 588 772 l 578 613 l 550 619 m 319 1160 l 464 990 l 683 1160 l 733 1125 l 504 886 l 403 886 l 263 1125 l 319 1160 z "},"ç":{"ha":621,"x_min":47,"x_max":617,"o":"m 47 300 q 95 527 47 414 q 237 715 143 640 q 458 789 331 789 q 543 781 499 789 q 617 758 588 772 l 578 613 l 550 619 q 425 699 471 699 q 310 650 361 699 q 229 515 258 601 q 200 318 200 429 q 347 82 200 82 q 447 103 406 82 q 536 167 489 124 l 565 114 q 485 40 538 76 q 363 -8 432 4 q 381 -117 381 -60 q 331 -268 381 -217 q 190 -319 281 -319 q 130 -314 163 -319 q 86 -301 97 -308 l 100 -211 q 126 -219 108 -215 q 164 -222 144 -222 q 256 -184 224 -222 q 290 -75 289 -146 q 286 -14 290 -39 q 110 73 174 -10 q 47 300 47 156 z "},"ĉ":{"ha":621,"x_min":47,"x_max":654,"o":"m 550 619 q 425 699 471 699 q 310 650 361 699 q 229 515 258 601 q 200 318 200 429 q 347 82 200 82 q 447 103 406 82 q 536 167 489 124 l 565 114 q 461 26 531 67 q 299 -14 392 -14 q 114 69 181 -14 q 47 300 47 151 q 95 527 47 414 q 237 715 143 640 q 458 789 331 789 q 543 781 499 789 q 617 758 588 772 l 578 613 l 550 619 m 510 1161 l 632 1028 l 654 906 l 529 989 l 347 950 l 244 907 l 351 1056 l 510 1161 z "},"ċ":{"ha":621,"x_min":47,"x_max":617,"o":"m 550 619 q 425 699 471 699 q 310 650 361 699 q 229 515 258 601 q 200 318 200 429 q 347 82 200 82 q 447 103 406 82 q 536 167 489 124 l 565 114 q 461 26 531 67 q 299 -14 392 -14 q 114 69 181 -14 q 47 300 47 151 q 95 527 47 414 q 237 715 143 640 q 458 789 331 789 q 543 781 499 789 q 617 758 588 772 l 578 613 l 550 619 m 457 918 q 401 942 425 918 q 378 1003 378 965 q 406 1081 378 1050 q 479 1111 433 1111 q 540 1088 517 1111 q 563 1031 563 1064 q 533 947 561 976 q 457 918 506 918 z "},"d":{"ha":817,"x_min":51,"x_max":789,"o":"m 646 125 q 644 108 644 118 q 665 75 644 75 q 729 108 688 75 l 749 72 q 686 15 726 44 q 592 -14 646 -14 q 506 76 507 -14 l 506 106 q 410 21 468 56 q 279 -14 351 -14 q 108 66 165 -14 q 51 276 51 146 q 103 516 51 397 q 256 712 156 635 q 494 789 357 789 q 596 774 538 789 l 632 1019 l 539 1044 l 550 1094 l 757 1119 l 789 1101 l 646 125 m 582 685 q 478 713 542 713 q 324 646 386 713 q 233 481 263 579 q 203 285 203 382 q 234 133 203 188 q 324 78 265 78 q 429 113 379 78 q 507 192 479 147 l 582 685 z "},"ð":{"ha":793,"x_min":51,"x_max":739,"o":"m 385 1026 q 313 1076 351 1054 q 243 1106 275 1097 l 271 1186 q 453 1100 346 1167 q 513 1171 479 1129 q 556 1225 546 1213 l 617 1168 l 517 1053 q 685 828 631 951 q 739 553 739 704 q 691 264 739 393 q 550 60 643 135 q 329 -14 457 -14 q 177 31 240 -14 q 83 147 114 76 q 51 296 51 218 q 103 538 51 433 q 241 697 154 642 q 428 753 328 753 q 524 738 482 753 q 588 696 565 724 q 542 849 572 789 q 444 975 511 910 l 342 858 l 281 914 l 385 1026 m 429 681 q 308 620 360 681 q 231 467 257 560 q 204 276 204 374 q 240 119 204 182 q 344 56 276 56 q 493 148 431 56 q 575 379 556 240 q 585 508 585 457 q 570 574 585 533 q 521 648 556 615 q 429 681 486 681 z "},"ď":{"ha":926,"x_min":51,"x_max":1019,"o":"m 646 125 q 644 108 644 118 q 665 75 644 75 q 729 108 688 75 l 749 72 q 686 15 726 44 q 592 -14 646 -14 q 506 76 507 -14 l 506 106 q 410 21 468 56 q 279 -14 351 -14 q 108 66 165 -14 q 51 276 51 146 q 103 516 51 397 q 256 712 156 635 q 494 789 357 789 q 596 774 538 789 l 632 1019 l 539 1044 l 550 1094 l 757 1119 l 789 1101 l 646 125 m 582 685 q 478 713 542 713 q 324 646 386 713 q 233 481 263 579 q 203 285 203 382 q 234 133 203 188 q 324 78 265 78 q 429 113 379 78 q 507 192 479 147 l 582 685 m 879 801 l 875 814 q 883 957 883 883 q 867 1079 883 1042 l 874 1106 l 1007 1106 q 1019 1001 1019 1072 q 1006 896 1019 956 q 974 801 992 836 l 879 801 z "},"đ":{"ha":817,"x_min":51,"x_max":858,"o":"m 51 276 q 103 516 51 397 q 256 712 156 635 q 494 789 357 789 q 596 774 538 789 l 610 867 l 415 867 l 425 944 l 621 944 l 632 1019 l 539 1044 l 550 1094 l 757 1119 l 789 1101 l 767 944 l 858 944 l 849 867 l 754 867 l 646 125 q 644 108 644 118 q 665 75 644 75 q 729 108 688 75 l 749 72 q 686 15 726 44 q 592 -14 646 -14 q 506 76 507 -14 l 506 106 q 410 21 468 56 q 279 -14 351 -14 q 108 66 165 -14 q 51 276 51 146 m 203 285 q 234 133 203 188 q 324 78 265 78 q 429 113 379 78 q 507 192 479 147 l 582 685 q 478 713 542 713 q 324 646 386 713 q 233 481 263 579 q 203 285 203 382 z "},"ḋ":{"ha":817,"x_min":51,"x_max":789,"o":"m 646 125 q 644 108 644 118 q 665 75 644 75 q 729 108 688 75 l 749 72 q 686 15 726 44 q 592 -14 646 -14 q 506 76 507 -14 l 506 106 q 410 21 468 56 q 279 -14 351 -14 q 108 66 165 -14 q 51 276 51 146 q 103 516 51 397 q 256 712 156 635 q 494 789 357 789 q 596 774 538 789 l 632 1019 l 539 1044 l 550 1094 l 757 1119 l 789 1101 l 646 125 m 582 685 q 478 713 542 713 q 324 646 386 713 q 233 481 263 579 q 203 285 203 382 q 234 133 203 188 q 324 78 265 78 q 429 113 379 78 q 507 192 479 147 l 582 685 m 279 918 q 224 942 247 918 q 200 1003 200 965 q 228 1081 200 1050 q 301 1111 256 1111 q 362 1088 339 1111 q 385 1031 385 1064 q 356 947 383 976 q 279 918 328 918 z "},"ḍ":{"ha":817,"x_min":51,"x_max":789,"o":"m 646 125 q 644 108 644 118 q 665 75 644 75 q 729 108 688 75 l 749 72 q 686 15 726 44 q 592 -14 646 -14 q 506 76 507 -14 l 506 106 q 410 21 468 56 q 279 -14 351 -14 q 108 66 165 -14 q 51 276 51 146 q 103 516 51 397 q 256 712 156 635 q 494 789 357 789 q 596 774 538 789 l 632 1019 l 539 1044 l 550 1094 l 757 1119 l 789 1101 l 646 125 m 582 685 q 478 713 542 713 q 324 646 386 713 q 233 481 263 579 q 203 285 203 382 q 234 133 203 188 q 324 78 265 78 q 429 113 379 78 q 507 192 479 147 l 582 685 m 271 -321 q 216 -298 238 -321 q 194 -239 194 -275 q 224 -164 194 -194 q 293 -133 253 -133 q 351 -156 331 -133 q 372 -212 372 -178 q 344 -289 372 -257 q 271 -321 315 -321 z "},"ǳ":{"ha":1513,"x_min":51,"x_max":1519,"o":"m 646 125 q 644 108 644 118 q 665 75 644 75 q 729 108 688 75 l 749 72 q 686 15 726 44 q 592 -14 646 -14 q 506 76 507 -14 l 506 106 q 410 21 468 56 q 279 -14 351 -14 q 108 66 165 -14 q 51 276 51 146 q 103 516 51 397 q 256 712 156 635 q 494 789 357 789 q 596 774 538 789 l 632 1019 l 539 1044 l 550 1094 l 757 1119 l 789 1101 l 646 125 m 582 685 q 478 713 542 713 q 324 646 386 713 q 233 481 263 579 q 203 285 203 382 q 234 133 203 188 q 324 78 265 78 q 429 113 379 78 q 507 192 479 147 l 582 685 m 1243 656 q 1058 657 1079 658 q 992 619 1018 656 q 964 532 967 582 l 914 532 l 913 565 q 924 696 913 633 q 964 772 936 758 q 1028 788 985 788 q 1240 775 1100 788 q 1331 769 1271 774 q 1419 765 1392 765 q 1488 786 1461 765 l 1519 751 l 1153 281 l 996 118 l 1274 114 q 1394 239 1379 114 l 1444 239 q 1431 89 1443 158 q 1389 -1 1419 19 q 1319 -15 1364 -15 q 1099 -3 1281 -15 q 919 8 954 8 q 851 -15 879 8 l 814 22 l 1263 569 l 1349 654 l 1243 656 z "},"ǆ":{"ha":1513,"x_min":51,"x_max":1519,"o":"m 646 125 q 644 108 644 118 q 665 75 644 75 q 729 108 688 75 l 749 72 q 686 15 726 44 q 592 -14 646 -14 q 506 76 507 -14 l 506 106 q 410 21 468 56 q 279 -14 351 -14 q 108 66 165 -14 q 51 276 51 146 q 103 516 51 397 q 256 712 156 635 q 494 789 357 789 q 596 774 538 789 l 632 1019 l 539 1044 l 550 1094 l 757 1119 l 789 1101 l 646 125 m 582 685 q 478 713 542 713 q 324 646 386 713 q 233 481 263 579 q 203 285 203 382 q 234 133 203 188 q 324 78 265 78 q 429 113 379 78 q 507 192 479 147 l 582 685 m 1243 656 q 1058 657 1079 658 q 992 619 1018 656 q 964 532 967 582 l 914 532 l 913 565 q 924 696 913 633 q 964 772 936 758 q 1028 788 985 788 q 1240 775 1100 788 q 1331 769 1271 774 q 1419 765 1392 765 q 1488 786 1461 765 l 1519 751 l 1153 281 l 996 118 l 1274 114 q 1394 239 1379 114 l 1444 239 q 1431 89 1443 158 q 1389 -1 1419 19 q 1319 -15 1364 -15 q 1099 -3 1281 -15 q 919 8 954 8 q 851 -15 879 8 l 814 22 l 1263 569 l 1349 654 l 1243 656 m 1099 1160 l 1243 990 l 1463 1160 l 1513 1125 l 1283 886 l 1182 886 l 1042 1125 l 1099 1160 z "},"e":{"ha":719,"x_min":56,"x_max":668,"o":"m 628 133 q 512 32 592 79 q 333 -15 432 -15 q 176 27 239 -15 q 85 138 114 69 q 56 286 56 207 q 110 537 56 421 q 258 721 164 653 q 467 789 353 789 q 617 742 567 789 q 668 617 668 694 q 590 449 668 517 q 406 349 513 382 q 213 314 299 315 q 245 146 207 215 q 367 76 283 76 q 488 106 429 76 q 596 188 547 136 l 628 133 m 433 714 q 323 663 371 714 q 247 534 275 611 q 214 382 219 457 q 353 412 281 385 q 475 490 426 439 q 524 606 524 540 q 500 686 524 658 q 433 714 476 714 z "},"é":{"ha":719,"x_min":56,"x_max":703,"o":"m 628 133 q 512 32 592 79 q 333 -15 432 -15 q 176 27 239 -15 q 85 138 114 69 q 56 286 56 207 q 110 537 56 421 q 258 721 164 653 q 467 789 353 789 q 617 742 567 789 q 668 617 668 694 q 590 449 668 517 q 406 349 513 382 q 213 314 299 315 q 245 146 207 215 q 367 76 283 76 q 488 106 429 76 q 596 188 547 136 l 628 133 m 433 714 q 323 663 371 714 q 247 534 275 611 q 214 382 219 457 q 353 412 281 385 q 475 490 426 439 q 524 606 524 540 q 500 686 524 658 q 433 714 476 714 m 608 1217 l 703 1125 q 639 1051 689 1101 q 531 953 589 1001 q 433 885 472 904 l 389 928 l 608 1217 z "},"ĕ":{"ha":719,"x_min":56,"x_max":697,"o":"m 628 133 q 512 32 592 79 q 333 -15 432 -15 q 176 27 239 -15 q 85 138 114 69 q 56 286 56 207 q 110 537 56 421 q 258 721 164 653 q 467 789 353 789 q 617 742 567 789 q 668 617 668 694 q 590 449 668 517 q 406 349 513 382 q 213 314 299 315 q 245 146 207 215 q 367 76 283 76 q 488 106 429 76 q 596 188 547 136 l 628 133 m 433 714 q 323 663 371 714 q 247 534 275 611 q 214 382 219 457 q 353 412 281 385 q 475 490 426 439 q 524 606 524 540 q 500 686 524 658 q 433 714 476 714 m 467 889 q 322 949 376 889 q 268 1097 268 1008 q 271 1128 268 1111 l 350 1128 l 351 1103 q 388 1025 356 1057 q 478 993 421 993 q 619 1128 599 993 l 697 1128 l 697 1106 q 665 1001 693 1051 q 586 920 638 951 q 467 889 535 889 z "},"ě":{"ha":719,"x_min":56,"x_max":749,"o":"m 628 133 q 512 32 592 79 q 333 -15 432 -15 q 176 27 239 -15 q 85 138 114 69 q 56 286 56 207 q 110 537 56 421 q 258 721 164 653 q 467 789 353 789 q 617 742 567 789 q 668 617 668 694 q 590 449 668 517 q 406 349 513 382 q 213 314 299 315 q 245 146 207 215 q 367 76 283 76 q 488 106 429 76 q 596 188 547 136 l 628 133 m 433 714 q 323 663 371 714 q 247 534 275 611 q 214 382 219 457 q 353 412 281 385 q 475 490 426 439 q 524 606 524 540 q 500 686 524 658 q 433 714 476 714 m 335 1158 l 479 989 l 699 1158 l 749 1124 l 519 885 l 418 885 l 278 1124 l 335 1158 z "},"ȩ":{"ha":719,"x_min":56,"x_max":668,"o":"m 56 286 q 110 536 56 421 q 258 720 164 651 q 467 789 351 789 q 617 742 567 789 q 668 617 668 694 q 590 449 668 517 q 406 349 513 382 q 213 314 299 315 q 245 146 207 215 q 367 76 283 76 q 488 106 429 76 q 596 188 547 136 l 628 133 q 524 40 593 85 q 368 -14 456 -6 q 383 -104 383 -57 q 331 -263 383 -204 q 189 -322 278 -322 q 135 -316 163 -322 q 92 -300 107 -310 l 103 -204 q 131 -213 111 -210 q 169 -217 150 -217 q 264 -178 231 -217 q 299 -68 297 -139 q 293 -14 299 -32 q 115 84 174 -1 q 56 286 56 169 m 214 382 q 353 412 281 385 q 475 490 426 439 q 524 606 524 540 q 500 686 524 658 q 433 714 476 714 q 323 663 371 714 q 247 534 275 611 q 214 382 219 457 z "},"ê":{"ha":719,"x_min":56,"x_max":669,"o":"m 628 133 q 512 32 592 79 q 333 -15 432 -15 q 176 27 239 -15 q 85 138 114 69 q 56 286 56 207 q 110 537 56 421 q 258 721 164 653 q 467 789 353 789 q 617 742 567 789 q 668 617 668 694 q 590 449 668 517 q 406 349 513 382 q 213 314 299 315 q 245 146 207 215 q 367 76 283 76 q 488 106 429 76 q 596 188 547 136 l 628 133 m 433 714 q 323 663 371 714 q 247 534 275 611 q 214 382 219 457 q 353 412 281 385 q 475 490 426 439 q 524 606 524 540 q 500 686 524 658 q 433 714 476 714 m 525 1160 l 647 1026 l 669 904 l 544 988 l 363 949 l 260 906 l 367 1054 l 525 1160 z "},"ế":{"ha":719,"x_min":56,"x_max":967,"o":"m 628 133 q 512 32 592 79 q 333 -15 432 -15 q 176 27 239 -15 q 85 138 114 69 q 56 286 56 207 q 110 537 56 421 q 258 721 164 653 q 467 789 353 789 q 617 742 567 789 q 668 617 668 694 q 590 449 668 517 q 406 349 513 382 q 213 314 299 315 q 245 146 207 215 q 367 76 283 76 q 488 106 429 76 q 596 188 547 136 l 628 133 m 433 714 q 323 663 371 714 q 247 534 275 611 q 214 382 219 457 q 353 412 281 385 q 475 490 426 439 q 524 606 524 540 q 500 686 524 658 q 433 714 476 714 m 668 1138 l 886 1360 l 967 1281 q 847 1174 935 1240 q 711 1088 758 1107 l 668 1138 m 558 1139 l 707 926 l 640 888 l 489 1033 l 282 888 l 235 924 l 454 1139 l 558 1139 z "},"ệ":{"ha":719,"x_min":56,"x_max":669,"o":"m 628 133 q 512 32 592 79 q 333 -15 432 -15 q 176 27 239 -15 q 85 138 114 69 q 56 286 56 207 q 110 537 56 421 q 258 721 164 653 q 467 789 353 789 q 617 742 567 789 q 668 617 668 694 q 590 449 668 517 q 406 349 513 382 q 213 314 299 315 q 245 146 207 215 q 367 76 283 76 q 488 106 429 76 q 596 188 547 136 l 628 133 m 433 714 q 323 663 371 714 q 247 534 275 611 q 214 382 219 457 q 353 412 281 385 q 475 490 426 439 q 524 606 524 540 q 500 686 524 658 q 433 714 476 714 m 279 -321 q 224 -298 246 -321 q 203 -239 203 -275 q 232 -164 203 -194 q 301 -133 261 -133 q 360 -156 339 -133 q 381 -212 381 -178 q 352 -289 381 -257 q 279 -321 324 -321 m 525 1160 l 647 1026 l 669 904 l 544 988 l 363 949 l 260 906 l 367 1054 l 525 1160 z "},"ề":{"ha":719,"x_min":56,"x_max":842,"o":"m 628 133 q 512 32 592 79 q 333 -15 432 -15 q 176 27 239 -15 q 85 138 114 69 q 56 286 56 207 q 110 537 56 421 q 258 721 164 653 q 467 789 353 789 q 617 742 567 789 q 668 617 668 694 q 590 449 668 517 q 406 349 513 382 q 213 314 299 315 q 245 146 207 215 q 367 76 283 76 q 488 106 429 76 q 596 188 547 136 l 628 133 m 433 714 q 323 663 371 714 q 247 534 275 611 q 214 382 219 457 q 353 412 281 385 q 475 490 426 439 q 524 606 524 540 q 500 686 524 658 q 433 714 476 714 m 783 1118 q 692 1184 744 1135 q 607 1283 640 1233 l 714 1364 l 842 1167 l 783 1118 m 558 1139 l 707 926 l 642 888 l 489 1033 l 282 888 l 235 924 l 454 1139 l 558 1139 z "},"ể":{"ha":719,"x_min":56,"x_max":911,"o":"m 628 133 q 512 32 592 79 q 333 -15 432 -15 q 176 27 239 -15 q 85 138 114 69 q 56 286 56 207 q 110 537 56 421 q 258 721 164 653 q 467 789 353 789 q 617 742 567 789 q 668 617 668 694 q 590 449 668 517 q 406 349 513 382 q 213 314 299 315 q 245 146 207 215 q 367 76 283 76 q 488 106 429 76 q 596 188 547 136 l 628 133 m 433 714 q 323 663 371 714 q 247 534 275 611 q 214 382 219 457 q 353 412 281 385 q 475 490 426 439 q 524 606 524 540 q 500 686 524 658 q 433 714 476 714 m 721 1011 q 710 1036 714 1021 q 707 1064 706 1051 q 723 1089 711 1079 q 754 1110 735 1099 q 788 1132 776 1124 q 804 1154 799 1140 l 804 1160 q 794 1197 806 1183 q 750 1213 782 1211 l 740 1213 q 710 1210 721 1213 l 725 1293 q 746 1299 728 1296 q 778 1301 764 1301 q 876 1276 840 1301 q 911 1204 911 1251 q 907 1172 911 1189 q 879 1124 900 1143 q 824 1083 858 1106 l 796 1065 q 772 1018 772 1049 l 721 1011 m 558 1139 l 707 926 l 642 888 l 489 1033 l 282 888 l 235 924 l 454 1139 l 558 1139 z "},"ễ":{"ha":719,"x_min":56,"x_max":732,"o":"m 628 133 q 512 32 592 79 q 333 -15 432 -15 q 176 27 239 -15 q 85 138 114 69 q 56 286 56 207 q 110 537 56 421 q 258 721 164 653 q 467 789 353 789 q 617 742 567 789 q 668 617 668 694 q 590 449 668 517 q 406 349 513 382 q 213 314 299 315 q 245 146 207 215 q 367 76 283 76 q 488 106 429 76 q 596 188 547 136 l 628 133 m 433 714 q 323 663 371 714 q 247 534 275 611 q 214 382 219 457 q 353 412 281 385 q 475 490 426 439 q 524 606 524 540 q 500 686 524 658 q 433 714 476 714 m 310 1236 q 374 1324 332 1289 q 468 1358 415 1358 q 516 1348 497 1358 q 554 1318 535 1338 q 585 1294 574 1301 q 614 1288 596 1288 q 683 1336 656 1288 l 732 1311 q 669 1223 710 1257 q 578 1189 629 1189 q 532 1199 550 1189 q 492 1228 514 1208 q 461 1251 475 1243 q 429 1260 447 1260 q 391 1248 406 1260 q 358 1213 376 1236 l 310 1236 m 560 1139 l 708 926 l 643 888 l 490 1033 l 283 888 l 236 924 l 456 1139 l 560 1139 z "},"ë":{"ha":719,"x_min":56,"x_max":713,"o":"m 628 133 q 512 32 592 79 q 333 -15 432 -15 q 176 27 239 -15 q 85 138 114 69 q 56 286 56 207 q 110 537 56 421 q 258 721 164 653 q 467 789 353 789 q 617 742 567 789 q 668 617 668 694 q 590 449 668 517 q 406 349 513 382 q 213 314 299 315 q 245 146 207 215 q 367 76 283 76 q 488 106 429 76 q 596 188 547 136 l 628 133 m 433 714 q 323 663 371 714 q 247 534 275 611 q 214 382 219 457 q 353 412 281 385 q 475 490 426 439 q 524 606 524 540 q 500 686 524 658 q 433 714 476 714 m 324 915 q 274 940 296 915 q 251 996 251 964 q 278 1069 251 1039 q 344 1100 304 1100 q 400 1076 379 1100 q 421 1019 421 1053 q 393 945 419 975 q 324 915 367 915 m 617 915 q 566 940 588 915 q 544 996 544 964 q 570 1069 544 1039 q 636 1100 596 1100 q 692 1077 671 1100 q 713 1022 713 1054 q 686 946 713 976 q 617 915 660 915 z "},"ė":{"ha":719,"x_min":56,"x_max":668,"o":"m 628 133 q 512 32 592 79 q 333 -15 432 -15 q 176 27 239 -15 q 85 138 114 69 q 56 286 56 207 q 110 537 56 421 q 258 721 164 653 q 467 789 353 789 q 617 742 567 789 q 668 617 668 694 q 590 449 668 517 q 406 349 513 382 q 213 314 299 315 q 245 146 207 215 q 367 76 283 76 q 488 106 429 76 q 596 188 547 136 l 628 133 m 433 714 q 323 663 371 714 q 247 534 275 611 q 214 382 219 457 q 353 412 281 385 q 475 490 426 439 q 524 606 524 540 q 500 686 524 658 q 433 714 476 714 m 472 917 q 417 940 440 917 q 393 1001 393 964 q 421 1079 393 1049 q 494 1110 449 1110 q 555 1086 532 1110 q 578 1029 578 1063 q 549 946 576 975 q 472 917 521 917 z "},"ẹ":{"ha":719,"x_min":56,"x_max":668,"o":"m 628 133 q 512 32 592 79 q 333 -15 432 -15 q 176 27 239 -15 q 85 138 114 69 q 56 286 56 207 q 110 537 56 421 q 258 721 164 653 q 467 789 353 789 q 617 742 567 789 q 668 617 668 694 q 590 449 668 517 q 406 349 513 382 q 213 314 299 315 q 245 146 207 215 q 367 76 283 76 q 488 106 429 76 q 596 188 547 136 l 628 133 m 433 714 q 323 663 371 714 q 247 534 275 611 q 214 382 219 457 q 353 412 281 385 q 475 490 426 439 q 524 606 524 540 q 500 686 524 658 q 433 714 476 714 m 279 -321 q 224 -298 246 -321 q 203 -239 203 -275 q 232 -164 203 -194 q 301 -133 261 -133 q 360 -156 339 -133 q 381 -212 381 -178 q 352 -289 381 -257 q 279 -321 324 -321 z "},"è":{"ha":719,"x_min":56,"x_max":668,"o":"m 628 133 q 512 32 592 79 q 333 -15 432 -15 q 176 27 239 -15 q 85 138 114 69 q 56 286 56 207 q 110 537 56 421 q 258 721 164 653 q 467 789 353 789 q 617 742 567 789 q 668 617 668 694 q 590 449 668 517 q 406 349 513 382 q 213 314 299 315 q 245 146 207 215 q 367 76 283 76 q 488 106 429 76 q 596 188 547 136 l 628 133 m 433 714 q 323 663 371 714 q 247 534 275 611 q 214 382 219 457 q 353 412 281 385 q 475 490 426 439 q 524 606 524 540 q 500 686 524 658 q 433 714 476 714 m 497 889 q 358 997 446 918 q 244 1124 271 1076 l 344 1217 l 546 928 l 497 889 z "},"ẻ":{"ha":719,"x_min":56,"x_max":668,"o":"m 628 133 q 512 32 592 79 q 333 -15 432 -15 q 176 27 239 -15 q 85 138 114 69 q 56 286 56 207 q 110 537 56 421 q 258 721 164 653 q 467 789 353 789 q 617 742 567 789 q 668 617 668 694 q 590 449 668 517 q 406 349 513 382 q 213 314 299 315 q 245 146 207 215 q 367 76 283 76 q 488 106 429 76 q 596 188 547 136 l 628 133 m 433 714 q 323 663 371 714 q 247 534 275 611 q 214 382 219 457 q 353 412 281 385 q 475 490 426 439 q 524 606 524 540 q 500 686 524 658 q 433 714 476 714 m 418 861 q 404 890 410 872 q 400 921 399 908 q 416 948 404 938 q 451 972 428 958 q 488 998 476 989 q 507 1024 500 1007 l 507 1029 q 496 1071 511 1053 q 443 1090 481 1089 l 432 1090 q 397 1088 408 1090 l 413 1182 q 436 1188 415 1185 q 472 1192 457 1192 q 586 1162 544 1192 q 628 1076 628 1132 q 625 1044 628 1067 q 594 988 618 1010 q 531 940 571 965 l 503 924 q 484 901 490 913 q 479 869 478 889 l 418 861 z "},"ē":{"ha":719,"x_min":56,"x_max":668,"o":"m 628 133 q 512 32 592 79 q 333 -15 432 -15 q 176 27 239 -15 q 85 138 114 69 q 56 286 56 207 q 110 537 56 421 q 258 721 164 653 q 467 789 353 789 q 617 742 567 789 q 668 617 668 694 q 590 449 668 517 q 406 349 513 382 q 213 314 299 315 q 245 146 207 215 q 367 76 283 76 q 488 106 429 76 q 596 188 547 136 l 628 133 m 433 714 q 323 663 371 714 q 247 534 275 611 q 214 382 219 457 q 353 412 281 385 q 475 490 426 439 q 524 606 524 540 q 500 686 524 658 q 433 714 476 714 m 665 1029 l 653 926 l 290 926 l 303 1029 l 665 1029 z "},"ę":{"ha":719,"x_min":56,"x_max":668,"o":"m 321 -293 q 240 -264 267 -293 q 214 -193 214 -235 q 221 -154 214 -176 q 239 -115 228 -132 q 344 -14 275 -58 q 188 20 253 -18 q 89 128 122 58 q 56 283 56 197 q 110 535 56 419 q 258 720 164 651 q 467 789 351 789 q 617 742 567 789 q 668 617 668 694 q 590 449 668 517 q 406 349 513 382 q 213 314 299 315 q 245 146 207 215 q 367 76 283 76 q 488 106 429 76 q 596 188 547 136 l 628 133 q 567 69 606 101 q 476 14 528 36 q 380 -73 419 -28 q 340 -153 340 -118 q 352 -193 339 -183 q 389 -203 365 -203 q 490 -158 435 -203 l 507 -215 q 425 -271 472 -249 q 321 -293 378 -293 m 214 382 q 353 412 281 385 q 475 490 426 439 q 524 606 524 540 q 500 686 524 658 q 433 714 476 714 q 323 663 371 714 q 247 534 275 611 q 214 382 219 457 z "},"ẽ":{"ha":719,"x_min":56,"x_max":715,"o":"m 628 133 q 512 32 592 79 q 333 -15 432 -15 q 176 27 239 -15 q 85 138 114 69 q 56 286 56 207 q 110 537 56 421 q 258 721 164 653 q 467 789 353 789 q 617 742 567 789 q 668 617 668 694 q 590 449 668 517 q 406 349 513 382 q 213 314 299 315 q 245 146 207 215 q 367 76 283 76 q 488 106 429 76 q 596 188 547 136 l 628 133 m 433 714 q 323 663 371 714 q 247 534 275 611 q 214 382 219 457 q 353 412 281 385 q 475 490 426 439 q 524 606 524 540 q 500 686 524 658 q 433 714 476 714 m 247 982 q 304 1050 267 1024 q 388 1076 342 1076 q 449 1064 425 1076 q 503 1026 474 1051 q 540 999 524 1008 q 575 990 556 990 q 624 1003 607 990 q 653 1031 642 1015 q 668 1051 664 1047 l 715 994 q 659 919 700 949 q 565 890 618 890 q 504 903 528 890 q 456 939 481 915 q 417 967 433 958 q 376 976 400 976 q 328 965 346 976 q 286 928 310 954 l 247 982 z "},"ə":{"ha":719,"x_min":51,"x_max":665,"o":"m 93 642 q 157 708 114 674 q 260 766 200 742 q 389 790 321 790 q 545 748 483 790 q 636 637 607 706 q 665 488 665 568 q 611 238 665 353 q 463 53 557 122 q 254 -15 369 -15 q 103 33 154 -15 q 51 156 51 81 q 129 324 51 256 q 315 425 207 392 q 508 460 422 458 q 476 628 514 558 q 354 697 438 697 q 233 667 292 697 q 125 586 174 638 l 93 642 m 508 392 q 367 362 440 389 q 246 284 294 335 q 199 168 197 233 q 222 88 199 115 q 288 60 246 60 q 398 111 350 60 q 474 240 446 163 q 508 392 501 317 z "},"f":{"ha":472,"x_min":-154,"x_max":608,"o":"m 207 842 q 261 988 219 922 q 364 1093 303 1054 q 496 1132 425 1132 q 608 1115 565 1132 l 572 1013 q 476 1043 529 1044 q 350 867 374 1043 l 339 779 l 503 779 l 490 688 l 326 688 l 239 4 q 149 -250 219 -151 q -36 -350 78 -349 q -103 -347 -69 -350 q -154 -339 -137 -343 l -121 -233 q -73 -249 -110 -239 q -12 -260 -36 -260 q 50 -218 28 -260 q 83 -96 72 -176 l 182 688 l 90 688 l 101 739 l 197 776 l 207 842 z "},"ḟ":{"ha":472,"x_min":-154,"x_max":608,"o":"m 207 842 q 261 988 219 922 q 364 1093 303 1054 q 496 1132 425 1132 q 608 1115 565 1132 l 572 1013 q 476 1043 529 1044 q 350 867 374 1043 l 339 779 l 503 779 l 490 688 l 326 688 l 239 4 q 149 -250 219 -151 q -36 -350 78 -349 q -103 -347 -69 -350 q -154 -339 -137 -343 l -121 -233 q -73 -249 -110 -239 q -12 -260 -36 -260 q 50 -218 28 -260 q 83 -96 72 -176 l 182 688 l 90 688 l 101 739 l 197 776 l 207 842 m 174 1069 q 118 1093 142 1069 q 94 1154 94 1117 q 122 1232 94 1201 q 196 1263 150 1263 q 256 1239 233 1263 q 279 1182 279 1215 q 250 1099 278 1128 q 174 1069 222 1069 z "},"g":{"ha":796,"x_min":51,"x_max":740,"o":"m 615 -53 q 542 -223 601 -157 q 401 -318 482 -289 q 236 -347 319 -347 q 145 -339 193 -347 q 75 -321 97 -331 l 104 -204 q 185 -237 135 -221 q 283 -253 235 -253 q 413 -219 371 -253 q 467 -93 454 -185 l 492 88 q 399 15 453 43 q 282 -14 346 -14 q 109 66 167 -14 q 51 276 51 146 q 105 515 51 396 q 260 711 158 633 q 497 789 361 789 q 577 780 535 789 q 650 758 619 771 l 740 789 l 615 -53 m 579 686 q 481 713 543 713 q 326 646 389 713 q 233 480 264 579 q 203 285 203 381 q 235 133 203 188 q 326 78 268 78 q 428 110 379 78 q 506 185 476 143 l 579 686 z "},"ğ":{"ha":796,"x_min":51,"x_max":740,"o":"m 615 -53 q 542 -223 601 -157 q 401 -318 482 -289 q 236 -347 319 -347 q 145 -339 193 -347 q 75 -321 97 -331 l 104 -204 q 185 -237 135 -221 q 283 -253 235 -253 q 413 -219 371 -253 q 467 -93 454 -185 l 492 88 q 399 15 453 43 q 282 -14 346 -14 q 109 66 167 -14 q 51 276 51 146 q 105 515 51 396 q 260 711 158 633 q 497 789 361 789 q 577 780 535 789 q 650 758 619 771 l 740 789 l 615 -53 m 579 686 q 481 713 543 713 q 326 646 389 713 q 233 480 264 579 q 203 285 203 381 q 235 133 203 188 q 326 78 268 78 q 428 110 379 78 q 506 185 476 143 l 579 686 m 486 890 q 342 950 396 890 q 288 1099 288 1010 q 290 1129 288 1113 l 369 1129 l 371 1104 q 408 1026 375 1058 q 497 994 440 994 q 639 1129 618 994 l 717 1129 l 717 1107 q 685 1003 713 1053 q 606 922 657 953 q 486 890 554 890 z "},"ǧ":{"ha":796,"x_min":51,"x_max":768,"o":"m 615 -53 q 542 -223 601 -157 q 401 -318 482 -289 q 236 -347 319 -347 q 145 -339 193 -347 q 75 -321 97 -331 l 104 -204 q 185 -237 135 -221 q 283 -253 235 -253 q 413 -219 371 -253 q 467 -93 454 -185 l 492 88 q 399 15 453 43 q 282 -14 346 -14 q 109 66 167 -14 q 51 276 51 146 q 105 515 51 396 q 260 711 158 633 q 497 789 361 789 q 577 780 535 789 q 650 758 619 771 l 740 789 l 615 -53 m 579 686 q 481 713 543 713 q 326 646 389 713 q 233 480 264 579 q 203 285 203 381 q 235 133 203 188 q 326 78 268 78 q 428 110 379 78 q 506 185 476 143 l 579 686 m 354 1160 l 499 990 l 718 1160 l 768 1125 l 539 886 l 438 886 l 297 1125 l 354 1160 z "},"ĝ":{"ha":796,"x_min":51,"x_max":740,"o":"m 615 -53 q 542 -223 601 -157 q 401 -318 482 -289 q 236 -347 319 -347 q 145 -339 193 -347 q 75 -321 97 -331 l 104 -204 q 185 -237 135 -221 q 283 -253 235 -253 q 413 -219 371 -253 q 467 -93 454 -185 l 492 88 q 399 15 453 43 q 282 -14 346 -14 q 109 66 167 -14 q 51 276 51 146 q 105 515 51 396 q 260 711 158 633 q 497 789 361 789 q 577 780 535 789 q 650 758 619 771 l 740 789 l 615 -53 m 579 686 q 481 713 543 713 q 326 646 389 713 q 233 480 264 579 q 203 285 203 381 q 235 133 203 188 q 326 78 268 78 q 428 110 379 78 q 506 185 476 143 l 579 686 m 544 1161 l 667 1028 l 689 906 l 564 989 l 382 950 l 279 907 l 386 1056 l 544 1161 z "},"ģ":{"ha":796,"x_min":51,"x_max":740,"o":"m 615 -53 q 542 -223 601 -157 q 401 -318 482 -289 q 236 -347 319 -347 q 145 -339 193 -347 q 75 -321 97 -331 l 104 -204 q 185 -237 135 -221 q 283 -253 235 -253 q 413 -219 371 -253 q 467 -93 454 -185 l 492 88 q 399 15 453 43 q 282 -14 346 -14 q 109 66 167 -14 q 51 276 51 146 q 105 515 51 396 q 260 711 158 633 q 497 789 361 789 q 577 780 535 789 q 650 758 619 771 l 740 789 l 615 -53 m 579 686 q 481 713 543 713 q 326 646 389 713 q 233 480 264 579 q 203 285 203 381 q 235 133 203 188 q 326 78 268 78 q 428 110 379 78 q 506 185 476 143 l 579 686 m 499 894 q 438 917 460 894 q 417 983 417 940 q 444 1085 417 1038 q 506 1163 471 1132 q 557 1200 540 1194 l 558 1200 l 610 1178 l 610 1168 q 571 1126 588 1158 q 554 1065 554 1094 q 560 1042 554 1050 q 576 1025 565 1035 q 599 979 599 1008 q 568 914 599 933 q 504 894 538 894 l 499 894 z "},"ġ":{"ha":796,"x_min":51,"x_max":740,"o":"m 615 -53 q 542 -223 601 -157 q 401 -318 482 -289 q 236 -347 319 -347 q 145 -339 193 -347 q 75 -321 97 -331 l 104 -204 q 185 -237 135 -221 q 283 -253 235 -253 q 413 -219 371 -253 q 467 -93 454 -185 l 492 88 q 399 15 453 43 q 282 -14 346 -14 q 109 66 167 -14 q 51 276 51 146 q 105 515 51 396 q 260 711 158 633 q 497 789 361 789 q 577 780 535 789 q 650 758 619 771 l 740 789 l 615 -53 m 579 686 q 481 713 543 713 q 326 646 389 713 q 233 480 264 579 q 203 285 203 381 q 235 133 203 188 q 326 78 268 78 q 428 110 379 78 q 506 185 476 143 l 579 686 m 492 918 q 436 942 460 918 q 413 1003 413 965 q 440 1081 413 1050 q 514 1111 468 1111 q 574 1088 551 1111 q 597 1031 597 1064 q 568 947 596 976 q 492 918 540 918 z "},"ḡ":{"ha":796,"x_min":51,"x_max":740,"o":"m 615 -53 q 542 -223 601 -157 q 401 -318 482 -289 q 236 -347 319 -347 q 145 -339 193 -347 q 75 -321 97 -331 l 104 -204 q 185 -237 135 -221 q 283 -253 235 -253 q 413 -219 371 -253 q 467 -93 454 -185 l 492 88 q 399 15 453 43 q 282 -14 346 -14 q 109 66 167 -14 q 51 276 51 146 q 105 515 51 396 q 260 711 158 633 q 497 789 361 789 q 577 780 535 789 q 650 758 619 771 l 740 789 l 615 -53 m 579 686 q 481 713 543 713 q 326 646 389 713 q 233 480 264 579 q 203 285 203 381 q 235 133 203 188 q 326 78 268 78 q 428 110 379 78 q 506 185 476 143 l 579 686 m 685 1031 l 672 928 l 310 928 l 322 1031 l 685 1031 z "},"h":{"ha":854,"x_min":71,"x_max":786,"o":"m 293 601 q 426 736 349 683 q 583 789 503 789 q 705 742 663 789 q 747 586 747 694 q 731 447 747 536 q 711 343 714 357 q 705 303 708 321 q 699 274 701 286 q 685 186 692 231 q 678 114 678 142 q 699 74 678 74 q 728 82 714 74 q 768 113 743 90 l 786 75 q 723 17 767 47 q 621 -14 679 -14 q 546 8 568 -14 q 524 74 524 31 q 546 231 524 114 l 560 306 l 565 339 q 596 574 596 501 q 576 661 594 638 q 517 685 558 685 q 394 629 461 685 q 279 494 326 574 l 215 0 l 71 0 l 201 1019 l 121 1044 l 131 1094 l 328 1119 l 358 1101 l 293 601 z "},"ħ":{"ha":854,"x_min":71,"x_max":786,"o":"m 293 601 q 426 736 349 683 q 583 789 503 789 q 705 742 663 789 q 747 586 747 694 q 731 447 747 536 q 711 343 714 357 q 705 303 708 321 q 699 274 701 286 q 685 186 692 231 q 678 114 678 142 q 699 74 678 74 q 728 82 714 74 q 768 113 743 90 l 786 75 q 723 17 767 47 q 621 -14 679 -14 q 546 8 568 -14 q 524 74 524 31 q 546 231 524 114 l 560 306 l 565 339 q 596 574 596 501 q 576 661 594 638 q 517 685 558 685 q 394 629 461 685 q 279 494 326 574 l 215 0 l 71 0 l 182 864 l 78 864 l 88 933 l 190 933 l 201 1019 l 121 1044 l 131 1094 l 328 1119 l 358 1101 l 336 933 l 507 933 l 497 864 l 328 864 l 293 601 z "},"ĥ":{"ha":854,"x_min":42,"x_max":786,"o":"m 293 601 q 426 736 349 683 q 583 789 503 789 q 705 742 663 789 q 747 586 747 694 q 731 447 747 536 q 711 343 714 357 q 705 303 708 321 q 699 274 701 286 q 685 186 692 231 q 678 114 678 142 q 699 74 678 74 q 728 82 714 74 q 768 113 743 90 l 786 75 q 723 17 767 47 q 621 -14 679 -14 q 546 8 568 -14 q 524 74 524 31 q 546 231 524 114 l 560 306 l 565 339 q 596 574 596 501 q 576 661 594 638 q 517 685 558 685 q 394 629 461 685 q 279 494 326 574 l 215 0 l 71 0 l 201 1019 l 121 1044 l 131 1094 l 328 1119 l 358 1101 l 293 601 m 271 1400 l 374 1400 l 521 1171 l 468 1136 l 314 1299 l 89 1138 l 42 1172 l 271 1400 z "},"ḥ":{"ha":854,"x_min":71,"x_max":786,"o":"m 293 601 q 426 736 349 683 q 583 789 503 789 q 705 742 663 789 q 747 586 747 694 q 731 447 747 536 q 711 343 714 357 q 705 303 708 321 q 699 274 701 286 q 685 186 692 231 q 678 114 678 142 q 699 74 678 74 q 728 82 714 74 q 768 113 743 90 l 786 75 q 723 17 767 47 q 621 -14 679 -14 q 546 8 568 -14 q 524 74 524 31 q 546 231 524 114 l 560 306 l 565 339 q 596 574 596 501 q 576 661 594 638 q 517 685 558 685 q 394 629 461 685 q 279 494 326 574 l 215 0 l 71 0 l 201 1019 l 121 1044 l 131 1094 l 328 1119 l 358 1101 l 293 601 m 342 -321 q 287 -298 308 -321 q 265 -239 265 -275 q 294 -164 265 -194 q 364 -133 324 -133 q 422 -156 401 -133 q 443 -212 443 -178 q 415 -289 443 -257 q 342 -321 386 -321 z "},"i":{"ha":439,"x_min":99,"x_max":392,"o":"m 251 110 q 258 84 251 93 q 274 75 264 75 q 305 84 289 75 q 344 115 321 93 l 363 79 q 299 18 342 50 q 197 -14 256 -14 q 123 8 149 -14 q 101 74 97 31 q 138 336 108 135 q 185 674 176 606 l 99 707 l 108 756 l 314 788 l 346 772 l 253 124 l 251 110 m 290 935 q 235 958 258 935 q 213 1015 213 982 q 242 1089 213 1058 q 313 1119 272 1119 q 371 1097 350 1119 q 392 1040 392 1074 q 363 965 390 996 q 290 935 335 935 z "},"ı":{"ha":439,"x_min":97,"x_max":363,"o":"m 251 110 q 258 84 251 93 q 274 75 264 75 q 305 84 289 75 q 344 115 321 93 l 363 79 q 299 18 342 50 q 197 -14 256 -14 q 123 8 149 -14 q 101 74 97 31 q 138 336 108 135 q 185 674 176 606 l 99 707 l 108 756 l 314 788 l 346 772 l 253 124 l 251 110 z "},"í":{"ha":439,"x_min":99,"x_max":515,"o":"m 251 110 q 258 84 251 93 q 274 75 264 75 q 305 84 289 75 q 344 115 321 93 l 363 79 q 299 18 342 50 q 197 -14 256 -14 q 123 8 149 -14 q 101 74 97 31 q 138 336 108 135 q 185 674 176 606 l 99 707 l 108 756 l 314 788 l 346 772 l 253 124 l 251 110 m 421 1218 l 515 1126 q 451 1053 501 1103 q 343 954 401 1003 q 246 886 285 906 l 201 929 l 421 1218 z "},"ĭ":{"ha":439,"x_min":81,"x_max":510,"o":"m 251 110 q 258 84 251 93 q 274 75 264 75 q 305 84 289 75 q 344 115 321 93 l 363 79 q 299 18 342 50 q 197 -14 256 -14 q 123 8 149 -14 q 101 74 97 31 q 138 336 108 135 q 185 674 176 606 l 99 707 l 108 756 l 314 788 l 346 772 l 253 124 l 251 110 m 279 890 q 135 950 189 890 q 81 1099 81 1010 q 83 1129 81 1113 l 163 1129 l 164 1104 q 201 1026 168 1058 q 290 994 233 994 q 432 1129 411 994 l 510 1129 l 510 1107 q 478 1003 506 1053 q 399 922 450 953 q 279 890 347 890 z "},"ǐ":{"ha":439,"x_min":90,"x_max":561,"o":"m 251 110 q 258 84 251 93 q 274 75 264 75 q 305 84 289 75 q 344 115 321 93 l 363 79 q 299 18 342 50 q 197 -14 256 -14 q 123 8 149 -14 q 101 74 97 31 q 138 336 108 135 q 185 674 176 606 l 99 707 l 108 756 l 314 788 l 346 772 l 253 124 l 251 110 m 147 1160 l 292 990 l 511 1160 l 561 1125 l 332 886 l 231 886 l 90 1125 l 147 1160 z "},"î":{"ha":439,"x_min":72,"x_max":482,"o":"m 251 110 q 258 84 251 93 q 274 75 264 75 q 305 84 289 75 q 344 115 321 93 l 363 79 q 299 18 342 50 q 197 -14 256 -14 q 123 8 149 -14 q 101 74 97 31 q 138 336 108 135 q 185 674 176 606 l 99 707 l 108 756 l 314 788 l 346 772 l 253 124 l 251 110 m 338 1161 l 460 1028 l 482 906 l 357 989 l 175 950 l 72 907 l 179 1056 l 338 1161 z "},"ï":{"ha":439,"x_min":64,"x_max":525,"o":"m 251 110 q 258 84 251 93 q 274 75 264 75 q 305 84 289 75 q 344 115 321 93 l 363 79 q 299 18 342 50 q 197 -14 256 -14 q 123 8 149 -14 q 101 74 97 31 q 138 336 108 135 q 185 674 176 606 l 99 707 l 108 756 l 314 788 l 346 772 l 253 124 l 251 110 m 136 917 q 86 941 108 917 q 64 997 64 965 q 90 1071 64 1040 q 157 1101 117 1101 q 213 1078 192 1101 q 233 1021 233 1054 q 206 947 232 976 q 136 917 179 917 m 429 917 q 378 941 400 917 q 357 997 357 965 q 383 1071 357 1040 q 449 1101 408 1101 q 504 1078 483 1101 q 525 1024 525 1056 q 499 947 525 978 q 429 917 472 917 z "},"ị":{"ha":439,"x_min":54,"x_max":392,"o":"m 251 110 q 258 84 251 93 q 274 75 264 75 q 305 84 289 75 q 344 115 321 93 l 363 79 q 299 18 342 50 q 197 -14 256 -14 q 123 8 149 -14 q 101 74 97 31 q 138 336 108 135 q 185 674 176 606 l 99 707 l 108 756 l 314 788 l 346 772 l 253 124 l 251 110 m 290 935 q 235 958 258 935 q 213 1015 213 982 q 242 1089 213 1058 q 313 1119 272 1119 q 371 1097 350 1119 q 392 1040 392 1074 q 363 965 390 996 q 290 935 335 935 m 131 -312 q 76 -290 97 -312 q 54 -231 54 -267 q 83 -156 54 -186 q 153 -125 113 -125 q 211 -147 190 -125 q 232 -204 232 -169 q 203 -281 232 -249 q 131 -312 175 -312 z "},"ì":{"ha":439,"x_min":57,"x_max":363,"o":"m 251 110 q 258 84 251 93 q 274 75 264 75 q 305 84 289 75 q 344 115 321 93 l 363 79 q 299 18 342 50 q 197 -14 256 -14 q 123 8 149 -14 q 101 74 97 31 q 138 336 108 135 q 185 674 176 606 l 99 707 l 108 756 l 314 788 l 346 772 l 253 124 l 251 110 m 310 890 q 171 999 258 919 q 57 1125 83 1078 l 157 1218 l 358 929 l 310 890 z "},"ỉ":{"ha":439,"x_min":99,"x_max":440,"o":"m 251 110 q 258 84 251 93 q 274 75 264 75 q 305 84 289 75 q 344 115 321 93 l 363 79 q 299 18 342 50 q 197 -14 256 -14 q 123 8 149 -14 q 101 74 97 31 q 138 336 108 135 q 185 674 176 606 l 99 707 l 108 756 l 314 788 l 346 772 l 253 124 l 251 110 m 231 863 q 217 892 222 874 q 213 922 211 910 q 228 949 217 939 q 264 974 240 960 q 301 999 289 990 q 319 1025 313 1008 l 319 1031 q 308 1072 324 1054 q 256 1092 293 1090 l 244 1092 q 210 1089 221 1092 l 225 1183 q 249 1190 228 1186 q 285 1193 269 1193 q 399 1163 357 1193 q 440 1078 440 1133 q 438 1046 440 1068 q 407 989 431 1011 q 343 942 383 967 l 315 925 q 297 902 303 914 q 292 871 290 890 l 231 863 z "},"ĳ":{"ha":879,"x_min":99,"x_max":829,"o":"m 251 110 q 258 84 251 93 q 274 75 264 75 q 305 84 289 75 q 344 115 321 93 l 363 79 q 299 18 342 50 q 197 -14 256 -14 q 123 8 149 -14 q 101 74 97 31 q 138 336 108 135 q 185 674 176 606 l 99 707 l 108 756 l 314 788 l 346 772 l 253 124 l 251 110 m 290 935 q 235 958 258 935 q 213 1015 213 982 q 242 1089 213 1058 q 313 1119 272 1119 q 371 1097 350 1119 q 392 1040 392 1074 q 363 965 390 996 q 290 935 335 935 m 700 1 q 599 -260 681 -167 q 397 -354 518 -354 q 330 -347 361 -354 q 286 -329 299 -340 l 308 -268 q 339 -275 321 -272 q 371 -278 357 -278 q 499 -194 458 -278 q 558 40 540 -110 l 631 679 l 529 708 l 540 756 l 761 788 l 792 772 l 700 1 m 728 935 q 673 958 696 935 q 650 1015 650 982 q 680 1089 650 1058 q 750 1119 710 1119 q 808 1097 788 1119 q 829 1040 829 1074 q 800 965 828 996 q 728 935 772 935 z "},"ī":{"ha":439,"x_min":99,"x_max":478,"o":"m 251 110 q 258 84 251 93 q 274 75 264 75 q 305 84 289 75 q 344 115 321 93 l 363 79 q 299 18 342 50 q 197 -14 256 -14 q 123 8 149 -14 q 101 74 97 31 q 138 336 108 135 q 185 674 176 606 l 99 707 l 108 756 l 314 788 l 346 772 l 253 124 l 251 110 m 478 1031 l 465 928 l 103 928 l 115 1031 l 478 1031 z "},"į":{"ha":439,"x_min":0,"x_max":388,"o":"m 306 1119 q 365 1097 342 1119 q 388 1040 388 1074 q 358 965 386 996 q 286 935 331 935 q 232 958 254 935 q 210 1015 210 982 q 238 1089 210 1058 q 306 1119 265 1119 m 251 110 q 258 84 251 93 q 274 75 264 75 q 305 84 289 75 q 344 115 321 93 l 363 79 q 329 42 351 64 q 279 7 307 21 q 172 -78 210 -40 q 133 -150 133 -115 q 144 -192 132 -178 q 179 -206 157 -206 q 285 -158 229 -206 l 303 -219 q 114 -297 219 -297 q 30 -269 60 -297 q 0 -199 0 -240 q 25 -119 0 -162 q 85 -56 53 -82 q 158 -10 118 -31 q 112 21 126 -1 q 101 83 97 43 q 136 326 106 132 l 185 674 l 99 707 l 108 756 l 314 788 l 346 772 l 253 124 l 251 110 z "},"ĩ":{"ha":439,"x_min":60,"x_max":528,"o":"m 251 110 q 258 84 251 93 q 274 75 264 75 q 305 84 289 75 q 344 115 321 93 l 363 79 q 299 18 342 50 q 197 -14 256 -14 q 123 8 149 -14 q 101 74 97 31 q 138 336 108 135 q 185 674 176 606 l 99 707 l 108 756 l 314 788 l 346 772 l 253 124 l 251 110 m 60 983 q 117 1051 79 1025 q 200 1078 154 1078 q 262 1065 238 1078 q 315 1028 286 1053 q 352 1001 336 1010 q 388 992 368 992 q 437 1004 419 992 q 465 1033 454 1017 q 481 1053 476 1049 l 528 996 q 472 921 513 950 q 378 892 431 892 q 317 904 340 892 q 268 940 293 917 q 229 969 246 960 q 189 978 213 978 q 140 967 158 978 q 99 929 122 956 l 60 983 z "},"j":{"ha":440,"x_min":-153,"x_max":390,"o":"m 261 1 q 160 -260 242 -167 q -42 -354 79 -354 q -109 -347 -78 -354 q -153 -329 -140 -340 l -131 -268 q -100 -275 -118 -272 q -68 -278 -82 -278 q 60 -194 19 -278 q 119 40 101 -110 l 192 679 l 90 708 l 101 756 l 322 788 l 353 772 l 261 1 m 289 935 q 234 958 257 935 q 211 1015 211 982 q 241 1089 211 1058 q 311 1119 271 1119 q 369 1097 349 1119 q 390 1040 390 1074 q 361 965 389 996 q 289 935 333 935 z "},"ȷ":{"ha":440,"x_min":-153,"x_max":353,"o":"m 261 1 q 160 -260 242 -167 q -42 -354 79 -354 q -109 -347 -78 -354 q -153 -329 -140 -340 l -131 -268 q -100 -275 -118 -272 q -68 -278 -82 -278 q 60 -194 19 -278 q 119 40 101 -110 l 192 679 l 90 708 l 101 756 l 322 788 l 353 772 l 261 1 z "},"ĵ":{"ha":440,"x_min":-153,"x_max":481,"o":"m 261 1 q 160 -260 242 -167 q -42 -354 79 -354 q -109 -347 -78 -354 q -153 -329 -140 -340 l -131 -268 q -100 -275 -118 -272 q -68 -278 -82 -278 q 60 -194 19 -278 q 119 40 101 -110 l 192 679 l 90 708 l 101 756 l 322 788 l 353 772 l 261 1 m 336 1161 l 458 1028 l 481 906 l 356 989 l 174 950 l 71 907 l 178 1056 l 336 1161 z "},"k":{"ha":744,"x_min":64,"x_max":746,"o":"m 356 1101 l 208 0 l 64 0 l 199 1019 l 118 1044 l 128 1094 l 325 1119 l 356 1101 m 276 414 q 342 456 285 419 q 444 524 403 492 q 521 603 485 556 q 558 710 553 644 q 587 765 561 746 q 643 783 613 783 q 692 763 674 783 q 710 711 710 742 q 678 622 710 668 q 572 526 639 569 q 404 428 506 483 l 578 149 q 617 104 596 121 q 656 88 639 88 q 722 118 688 88 l 746 76 q 678 15 724 43 q 578 -14 633 -14 q 458 63 497 -14 l 276 414 z "},"ķ":{"ha":744,"x_min":64,"x_max":746,"o":"m 356 1101 l 208 0 l 64 0 l 199 1019 l 118 1044 l 128 1094 l 325 1119 l 356 1101 m 276 414 q 342 456 285 419 q 444 524 403 492 q 521 603 485 556 q 558 710 553 644 q 587 765 561 746 q 643 783 613 783 q 692 763 674 783 q 710 711 710 742 q 678 622 710 668 q 572 526 639 569 q 404 428 506 483 l 578 149 q 617 104 596 121 q 656 88 639 88 q 722 118 688 88 l 746 76 q 678 15 724 43 q 578 -14 633 -14 q 458 63 497 -14 l 276 414 m 231 -339 q 263 -295 251 -324 q 274 -229 274 -267 q 260 -179 272 -201 q 229 -151 249 -157 l 229 -108 l 321 -60 q 380 -117 361 -76 q 399 -207 399 -158 q 363 -319 399 -272 q 289 -379 328 -367 l 231 -353 l 231 -339 z "},"ĸ":{"ha":758,"x_min":82,"x_max":764,"o":"m 322 767 l 224 0 l 82 0 l 169 676 l 96 704 l 107 754 l 292 783 l 322 767 m 582 146 q 617 103 597 121 q 654 86 638 86 q 717 108 679 86 l 738 69 q 672 14 715 40 q 578 -12 629 -12 q 507 6 533 -12 q 461 63 481 24 l 288 403 l 615 771 l 764 771 l 419 418 l 582 146 z "},"l":{"ha":418,"x_min":86,"x_max":369,"o":"m 235 124 q 233 108 233 118 q 256 75 233 75 q 326 115 282 75 l 344 79 q 285 17 325 49 q 183 -14 244 -14 q 113 7 139 -14 q 86 72 86 28 q 88 97 86 81 q 92 121 90 114 l 217 1019 l 131 1044 l 143 1094 l 340 1119 l 369 1101 l 235 124 z "},"ĺ":{"ha":418,"x_min":86,"x_max":504,"o":"m 235 124 q 233 108 233 118 q 256 75 233 75 q 326 115 282 75 l 344 79 q 285 17 325 49 q 183 -14 244 -14 q 113 7 139 -14 q 86 72 86 28 q 88 97 86 81 q 92 121 90 114 l 217 1019 l 131 1044 l 143 1094 l 340 1119 l 369 1101 l 235 124 m 418 1365 l 504 1289 q 397 1194 474 1246 q 267 1121 321 1143 l 210 1158 l 418 1365 z "},"ľ":{"ha":569,"x_min":86,"x_max":613,"o":"m 235 124 q 233 108 233 118 q 256 75 233 75 q 326 115 282 75 l 344 79 q 285 17 325 49 q 183 -14 244 -14 q 113 7 139 -14 q 86 72 86 28 q 88 97 86 81 q 92 121 90 114 l 217 1019 l 131 1044 l 143 1094 l 340 1119 l 369 1101 l 235 124 m 472 810 l 468 822 q 476 965 476 892 q 460 1088 476 1050 l 467 1114 l 600 1114 q 613 1010 613 1081 q 599 904 613 964 q 567 810 585 844 l 472 810 z "},"ļ":{"ha":418,"x_min":56,"x_max":369,"o":"m 235 124 q 233 108 233 118 q 256 75 233 75 q 326 115 282 75 l 344 79 q 285 17 325 49 q 183 -14 244 -14 q 113 7 139 -14 q 86 72 86 28 q 88 97 86 81 q 92 121 90 114 l 217 1019 l 131 1044 l 143 1094 l 340 1119 l 369 1101 l 235 124 m 57 -339 q 89 -295 78 -324 q 100 -229 100 -267 q 87 -179 99 -201 q 56 -151 75 -157 l 56 -108 l 147 -60 q 206 -117 188 -76 q 225 -207 225 -158 q 190 -319 225 -272 q 115 -379 154 -367 l 57 -353 l 57 -339 z "},"ŀ":{"ha":543,"x_min":86,"x_max":551,"o":"m 235 124 q 233 108 233 118 q 256 75 233 75 q 326 115 282 75 l 344 79 q 285 17 325 49 q 183 -14 244 -14 q 113 7 139 -14 q 86 72 86 28 q 88 97 86 81 q 92 121 90 114 l 217 1019 l 131 1044 l 143 1094 l 340 1119 l 369 1101 l 235 124 m 374 511 q 403 592 374 560 q 472 624 432 624 q 531 601 511 624 q 551 543 551 578 q 519 463 551 493 q 446 432 488 432 q 394 453 415 432 q 374 511 374 475 z "},"ḷ":{"ha":418,"x_min":40,"x_max":369,"o":"m 235 124 q 233 108 233 118 q 256 75 233 75 q 326 115 282 75 l 344 79 q 285 17 325 49 q 183 -14 244 -14 q 113 7 139 -14 q 86 72 86 28 q 88 97 86 81 q 92 121 90 114 l 217 1019 l 131 1044 l 143 1094 l 340 1119 l 369 1101 l 235 124 m 117 -321 q 62 -298 83 -321 q 40 -239 40 -275 q 69 -164 40 -194 q 139 -133 99 -133 q 197 -156 176 -133 q 218 -212 218 -178 q 190 -289 218 -257 q 117 -321 161 -321 z "},"ǉ":{"ha":858,"x_min":86,"x_max":808,"o":"m 235 124 q 233 108 233 118 q 256 75 233 75 q 326 115 282 75 l 344 79 q 285 17 325 49 q 183 -14 244 -14 q 113 7 139 -14 q 86 72 86 28 q 88 97 86 81 q 92 121 90 114 l 217 1019 l 131 1044 l 143 1094 l 340 1119 l 369 1101 l 235 124 m 679 1 q 578 -260 660 -167 q 376 -354 497 -354 q 309 -347 340 -354 q 265 -329 278 -340 l 288 -268 q 318 -275 300 -272 q 350 -278 336 -278 q 478 -194 438 -278 q 538 40 519 -110 l 610 679 l 508 708 l 519 756 l 740 788 l 771 772 l 679 1 m 707 935 q 652 958 675 935 q 629 1015 629 982 q 659 1089 629 1058 q 729 1119 689 1119 q 788 1097 767 1119 q 808 1040 808 1074 q 779 965 807 996 q 707 935 751 935 z "},"ł":{"ha":429,"x_min":56,"x_max":453,"o":"m 239 124 q 238 108 238 118 q 260 75 238 75 q 329 115 288 75 l 347 79 q 287 19 329 51 q 188 -14 244 -14 q 117 7 143 -14 q 90 72 90 28 q 92 97 90 81 q 96 121 94 114 l 160 568 l 56 528 l 56 608 l 171 656 l 219 1019 l 136 1044 l 149 1094 l 344 1119 l 374 1101 l 321 717 l 453 771 l 453 685 l 310 628 l 239 124 z "},"m":{"ha":1300,"x_min":79,"x_max":1229,"o":"m 304 610 q 435 738 360 688 q 588 789 510 789 q 703 747 663 789 q 750 614 744 706 q 873 741 801 693 q 1022 789 944 789 q 1143 740 1099 789 q 1188 586 1188 692 q 1163 394 1188 533 l 1154 343 q 1144 290 1147 304 q 1128 193 1136 243 q 1121 113 1121 143 q 1140 75 1121 75 q 1171 84 1154 75 q 1213 115 1188 93 l 1229 79 q 1167 19 1211 51 q 1063 -14 1122 -14 q 990 10 1011 -14 q 969 78 969 33 q 993 247 971 122 l 1003 308 q 1010 344 1004 319 q 1024 432 1013 358 q 1036 567 1036 506 q 1018 660 1036 635 q 958 685 1000 685 q 852 638 911 685 q 747 519 793 592 q 728 343 743 456 l 682 0 l 535 0 l 576 306 q 604 572 604 478 q 585 662 603 639 q 521 685 568 685 q 403 632 469 685 q 292 504 338 579 l 222 0 l 79 0 l 169 669 l 100 704 l 111 757 l 290 789 l 319 774 l 304 610 z "},"ḿ":{"ha":1300,"x_min":79,"x_max":1229,"o":"m 304 610 q 435 738 360 688 q 588 789 510 789 q 703 747 663 789 q 750 614 744 706 q 873 741 801 693 q 1022 789 944 789 q 1143 740 1099 789 q 1188 586 1188 692 q 1163 394 1188 533 l 1154 343 q 1144 290 1147 304 q 1128 193 1136 243 q 1121 113 1121 143 q 1140 75 1121 75 q 1171 84 1154 75 q 1213 115 1188 93 l 1229 79 q 1167 19 1211 51 q 1063 -14 1122 -14 q 990 10 1011 -14 q 969 78 969 33 q 993 247 971 122 l 1003 308 q 1010 344 1004 319 q 1024 432 1013 358 q 1036 567 1036 506 q 1018 660 1036 635 q 958 685 1000 685 q 852 638 911 685 q 747 519 793 592 q 728 343 743 456 l 682 0 l 535 0 l 576 306 q 604 572 604 478 q 585 662 603 639 q 521 685 568 685 q 403 632 469 685 q 292 504 338 579 l 222 0 l 79 0 l 169 669 l 100 704 l 111 757 l 290 789 l 319 774 l 304 610 m 889 1218 l 983 1126 q 919 1053 969 1103 q 811 954 869 1003 q 714 886 753 906 l 669 929 l 889 1218 z "},"ṁ":{"ha":1300,"x_min":79,"x_max":1229,"o":"m 304 610 q 435 738 360 688 q 588 789 510 789 q 703 747 663 789 q 750 614 744 706 q 873 741 801 693 q 1022 789 944 789 q 1143 740 1099 789 q 1188 586 1188 692 q 1163 394 1188 533 l 1154 343 q 1144 290 1147 304 q 1128 193 1136 243 q 1121 113 1121 143 q 1140 75 1121 75 q 1171 84 1154 75 q 1213 115 1188 93 l 1229 79 q 1167 19 1211 51 q 1063 -14 1122 -14 q 990 10 1011 -14 q 969 78 969 33 q 993 247 971 122 l 1003 308 q 1010 344 1004 319 q 1024 432 1013 358 q 1036 567 1036 506 q 1018 660 1036 635 q 958 685 1000 685 q 852 638 911 685 q 747 519 793 592 q 728 343 743 456 l 682 0 l 535 0 l 576 306 q 604 572 604 478 q 585 662 603 639 q 521 685 568 685 q 403 632 469 685 q 292 504 338 579 l 222 0 l 79 0 l 169 669 l 100 704 l 111 757 l 290 789 l 319 774 l 304 610 m 753 918 q 697 942 721 918 q 674 1003 674 965 q 701 1081 674 1050 q 775 1111 729 1111 q 835 1088 813 1111 q 858 1031 858 1064 q 829 947 857 976 q 753 918 801 918 z "},"n":{"ha":864,"x_min":81,"x_max":788,"o":"m 304 610 q 436 739 361 689 q 590 789 511 789 q 712 742 669 789 q 754 588 754 694 q 728 393 754 536 l 719 343 l 713 303 q 686 119 688 182 l 686 111 q 704 75 686 75 q 769 108 732 75 l 788 71 q 726 17 771 47 q 625 -14 682 -14 q 532 74 532 -14 q 558 254 532 117 l 568 306 l 574 339 q 604 574 604 501 q 585 661 603 638 q 522 685 567 685 q 403 631 469 685 q 290 500 338 578 l 224 0 l 81 0 l 169 669 l 100 704 l 111 757 l 292 789 l 321 774 l 304 610 z "},"ń":{"ha":864,"x_min":81,"x_max":788,"o":"m 304 610 q 436 739 361 689 q 590 789 511 789 q 712 742 669 789 q 754 588 754 694 q 728 393 754 536 l 719 343 l 713 303 q 686 119 688 182 l 686 111 q 704 75 686 75 q 769 108 732 75 l 788 71 q 726 17 771 47 q 625 -14 682 -14 q 532 74 532 -14 q 558 254 532 117 l 568 306 l 574 339 q 604 574 604 501 q 585 661 603 638 q 522 685 567 685 q 403 631 469 685 q 290 500 338 578 l 224 0 l 81 0 l 169 669 l 100 704 l 111 757 l 292 789 l 321 774 l 304 610 m 618 1218 l 713 1126 q 649 1053 699 1103 q 540 954 599 1003 q 443 886 482 906 l 399 929 l 618 1218 z "},"ň":{"ha":864,"x_min":81,"x_max":788,"o":"m 304 610 q 436 739 361 689 q 590 789 511 789 q 712 742 669 789 q 754 588 754 694 q 728 393 754 536 l 719 343 l 713 303 q 686 119 688 182 l 686 111 q 704 75 686 75 q 769 108 732 75 l 788 71 q 726 17 771 47 q 625 -14 682 -14 q 532 74 532 -14 q 558 254 532 117 l 568 306 l 574 339 q 604 574 604 501 q 585 661 603 638 q 522 685 567 685 q 403 631 469 685 q 290 500 338 578 l 224 0 l 81 0 l 169 669 l 100 704 l 111 757 l 292 789 l 321 774 l 304 610 m 344 1160 l 489 990 l 708 1160 l 758 1125 l 529 886 l 428 886 l 288 1125 l 344 1160 z "},"ņ":{"ha":864,"x_min":81,"x_max":788,"o":"m 304 610 q 436 739 361 689 q 590 789 511 789 q 712 742 669 789 q 754 588 754 694 q 728 393 754 536 l 719 343 l 713 303 q 686 119 688 182 l 686 111 q 704 75 686 75 q 769 108 732 75 l 788 71 q 726 17 771 47 q 625 -14 682 -14 q 532 74 532 -14 q 558 254 532 117 l 568 306 l 574 339 q 604 574 604 501 q 585 661 603 638 q 522 685 567 685 q 403 631 469 685 q 290 500 338 578 l 224 0 l 81 0 l 169 669 l 100 704 l 111 757 l 292 789 l 321 774 l 304 610 m 289 -339 q 321 -295 310 -324 q 332 -229 332 -267 q 319 -179 331 -201 q 288 -151 307 -157 l 288 -108 l 379 -60 q 438 -117 419 -76 q 457 -207 457 -158 q 422 -319 457 -272 q 347 -379 386 -367 l 289 -353 l 289 -339 z "},"ṅ":{"ha":864,"x_min":81,"x_max":788,"o":"m 304 610 q 436 739 361 689 q 590 789 511 789 q 712 742 669 789 q 754 588 754 694 q 728 393 754 536 l 719 343 l 713 303 q 686 119 688 182 l 686 111 q 704 75 686 75 q 769 108 732 75 l 788 71 q 726 17 771 47 q 625 -14 682 -14 q 532 74 532 -14 q 558 254 532 117 l 568 306 l 574 339 q 604 574 604 501 q 585 661 603 638 q 522 685 567 685 q 403 631 469 685 q 290 500 338 578 l 224 0 l 81 0 l 169 669 l 100 704 l 111 757 l 292 789 l 321 774 l 304 610 m 482 918 q 426 942 450 918 q 403 1003 403 965 q 431 1081 403 1050 q 504 1111 458 1111 q 565 1088 542 1111 q 588 1031 588 1064 q 558 947 586 976 q 482 918 531 918 z "},"ṇ":{"ha":864,"x_min":81,"x_max":788,"o":"m 304 610 q 436 739 361 689 q 590 789 511 789 q 712 742 669 789 q 754 588 754 694 q 728 393 754 536 l 719 343 l 713 303 q 686 119 688 182 l 686 111 q 704 75 686 75 q 769 108 732 75 l 788 71 q 726 17 771 47 q 625 -14 682 -14 q 532 74 532 -14 q 558 254 532 117 l 568 306 l 574 339 q 604 574 604 501 q 585 661 603 638 q 522 685 567 685 q 403 631 469 685 q 290 500 338 578 l 224 0 l 81 0 l 169 669 l 100 704 l 111 757 l 292 789 l 321 774 l 304 610 m 349 -321 q 294 -298 315 -321 q 272 -239 272 -275 q 301 -164 272 -194 q 371 -133 331 -133 q 429 -156 408 -133 q 450 -212 450 -178 q 422 -289 450 -257 q 349 -321 393 -321 z "},"ŋ":{"ha":863,"x_min":81,"x_max":764,"o":"m 304 610 q 433 738 358 688 q 590 788 508 788 q 754 583 764 788 q 726 275 744 429 q 683 0 708 121 q 570 -269 646 -187 q 365 -351 494 -351 q 303 -345 331 -351 q 264 -326 275 -339 l 285 -269 q 311 -276 294 -274 q 340 -279 328 -279 q 473 -200 428 -279 q 542 22 518 -121 q 575 271 554 97 q 604 572 596 444 q 588 658 607 632 q 524 685 568 685 q 405 632 471 685 q 290 497 339 579 l 224 0 l 81 0 l 168 663 l 100 697 l 110 750 l 290 782 l 319 767 l 304 610 z "},"ǌ":{"ha":1304,"x_min":81,"x_max":1254,"o":"m 304 610 q 436 739 361 689 q 590 789 511 789 q 712 742 669 789 q 754 588 754 694 q 728 393 754 536 l 719 343 l 713 303 q 686 119 688 182 l 686 111 q 704 75 686 75 q 769 108 732 75 l 788 71 q 726 17 771 47 q 625 -14 682 -14 q 532 74 532 -14 q 558 254 532 117 l 568 306 l 574 339 q 604 574 604 501 q 585 661 603 638 q 522 685 567 685 q 403 631 469 685 q 290 500 338 578 l 224 0 l 81 0 l 169 669 l 100 704 l 111 757 l 292 789 l 321 774 l 304 610 m 1125 1 q 1024 -260 1106 -167 q 822 -354 943 -354 q 755 -347 786 -354 q 711 -329 724 -340 l 733 -268 q 764 -275 746 -272 q 796 -278 782 -278 q 924 -194 883 -278 q 983 40 965 -110 l 1056 679 l 954 708 l 965 756 l 1186 788 l 1217 772 l 1125 1 m 1153 935 q 1098 958 1121 935 q 1075 1015 1075 982 q 1105 1089 1075 1058 q 1175 1119 1135 1119 q 1233 1097 1213 1119 q 1254 1040 1254 1074 q 1225 965 1253 996 q 1153 935 1197 935 z "},"ñ":{"ha":864,"x_min":81,"x_max":788,"o":"m 304 610 q 436 739 361 689 q 590 789 511 789 q 712 742 669 789 q 754 588 754 694 q 728 393 754 536 l 719 343 l 713 303 q 686 119 688 182 l 686 111 q 704 75 686 75 q 769 108 732 75 l 788 71 q 726 17 771 47 q 625 -14 682 -14 q 532 74 532 -14 q 558 254 532 117 l 568 306 l 574 339 q 604 574 604 501 q 585 661 603 638 q 522 685 567 685 q 403 631 469 685 q 290 500 338 578 l 224 0 l 81 0 l 169 669 l 100 704 l 111 757 l 292 789 l 321 774 l 304 610 m 257 983 q 314 1051 276 1025 q 397 1078 351 1078 q 459 1065 435 1078 q 513 1028 483 1053 q 549 1001 533 1010 q 585 992 565 992 q 634 1004 617 992 q 663 1033 651 1017 q 678 1053 674 1049 l 725 996 q 669 921 710 950 q 575 892 628 892 q 514 904 538 892 q 465 940 490 917 q 426 969 443 960 q 386 978 410 978 q 338 967 356 978 q 296 929 319 956 l 257 983 z "},"o":{"ha":797,"x_min":56,"x_max":743,"o":"m 458 789 q 669 706 596 789 q 743 468 743 622 q 692 231 743 342 q 549 52 642 119 q 340 -15 457 -15 q 129 68 203 -15 q 56 306 56 151 q 106 544 56 433 q 249 722 157 656 q 458 789 342 789 m 439 713 q 315 652 367 713 q 238 499 264 592 q 213 311 213 407 q 364 58 213 58 q 485 119 435 58 q 560 274 535 181 q 585 463 585 367 q 439 713 585 713 z "},"ó":{"ha":788,"x_min":56,"x_max":765,"o":"m 672 1213 l 765 1121 q 701 1047 751 1097 q 594 949 651 997 q 497 881 536 900 l 453 924 l 672 1213 m 458 789 q 669 706 596 789 q 743 468 743 622 q 692 231 743 342 q 549 52 642 119 q 340 -15 457 -15 q 129 68 203 -15 q 56 306 56 151 q 106 544 56 433 q 249 722 157 656 q 458 789 342 789 m 439 713 q 315 652 367 713 q 238 499 264 592 q 213 311 213 407 q 364 58 213 58 q 485 119 435 58 q 560 274 535 181 q 585 463 585 367 q 439 713 585 713 z "},"ŏ":{"ha":797,"x_min":56,"x_max":743,"o":"m 458 789 q 669 706 596 789 q 743 468 743 622 q 692 231 743 342 q 549 52 642 119 q 340 -15 457 -15 q 129 68 203 -15 q 56 306 56 151 q 106 544 56 433 q 249 722 157 656 q 458 789 342 789 m 439 713 q 315 652 367 713 q 238 499 264 592 q 213 311 213 407 q 364 58 213 58 q 485 119 435 58 q 560 274 535 181 q 585 463 585 367 q 439 713 585 713 m 476 896 q 332 956 386 896 q 278 1104 278 1015 q 281 1135 278 1118 l 360 1135 l 361 1110 q 398 1032 365 1064 q 488 1000 431 1000 q 629 1135 608 1000 l 707 1135 l 707 1113 q 675 1008 703 1058 q 596 927 647 958 q 476 896 544 896 z "},"ǒ":{"ha":797,"x_min":56,"x_max":758,"o":"m 458 789 q 669 706 596 789 q 743 468 743 622 q 692 231 743 342 q 549 52 642 119 q 340 -15 457 -15 q 129 68 203 -15 q 56 306 56 151 q 106 544 56 433 q 249 722 157 656 q 458 789 342 789 m 439 713 q 315 652 367 713 q 238 499 264 592 q 213 311 213 407 q 364 58 213 58 q 485 119 435 58 q 560 274 535 181 q 585 463 585 367 q 439 713 585 713 m 344 1165 l 489 996 l 708 1165 l 758 1131 l 529 892 l 428 892 l 288 1131 l 344 1165 z "},"ô":{"ha":797,"x_min":56,"x_max":743,"o":"m 458 789 q 669 706 596 789 q 743 468 743 622 q 692 231 743 342 q 549 52 642 119 q 340 -15 457 -15 q 129 68 203 -15 q 56 306 56 151 q 106 544 56 433 q 249 722 157 656 q 458 789 342 789 m 439 713 q 315 652 367 713 q 238 499 264 592 q 213 311 213 407 q 364 58 213 58 q 485 119 435 58 q 560 274 535 181 q 585 463 585 367 q 439 713 585 713 m 535 1167 l 657 1033 l 679 911 l 554 994 l 372 956 l 269 913 l 376 1061 l 535 1167 z "},"ố":{"ha":797,"x_min":56,"x_max":976,"o":"m 458 789 q 669 706 596 789 q 743 468 743 622 q 692 231 743 342 q 549 52 642 119 q 340 -15 457 -15 q 129 68 203 -15 q 56 306 56 151 q 106 544 56 433 q 249 722 157 656 q 458 789 342 789 m 439 713 q 315 652 367 713 q 238 499 264 592 q 213 311 213 407 q 364 58 213 58 q 485 119 435 58 q 560 274 535 181 q 585 463 585 367 q 439 713 585 713 m 678 1144 l 896 1367 l 976 1288 q 856 1181 944 1247 q 721 1094 768 1114 l 678 1144 m 568 1146 l 717 933 l 650 894 l 499 1040 l 292 894 l 244 931 l 464 1146 l 568 1146 z "},"ộ":{"ha":797,"x_min":56,"x_max":743,"o":"m 458 789 q 669 706 596 789 q 743 468 743 622 q 692 231 743 342 q 549 52 642 119 q 340 -15 457 -15 q 129 68 203 -15 q 56 306 56 151 q 106 544 56 433 q 249 722 157 656 q 458 789 342 789 m 439 713 q 315 652 367 713 q 238 499 264 592 q 213 311 213 407 q 364 58 213 58 q 485 119 435 58 q 560 274 535 181 q 585 463 585 367 q 439 713 585 713 m 294 -328 q 240 -305 261 -328 q 218 -246 218 -282 q 247 -171 218 -201 q 317 -140 276 -140 q 375 -162 354 -140 q 396 -219 396 -185 q 367 -296 396 -264 q 294 -328 339 -328 m 535 1167 l 657 1033 l 679 911 l 554 994 l 372 956 l 269 913 l 376 1061 l 535 1167 z "},"ồ":{"ha":797,"x_min":56,"x_max":851,"o":"m 458 789 q 669 706 596 789 q 743 468 743 622 q 692 231 743 342 q 549 52 642 119 q 340 -15 457 -15 q 129 68 203 -15 q 56 306 56 151 q 106 544 56 433 q 249 722 157 656 q 458 789 342 789 m 439 713 q 315 652 367 713 q 238 499 264 592 q 213 311 213 407 q 364 58 213 58 q 485 119 435 58 q 560 274 535 181 q 585 463 585 367 q 439 713 585 713 m 793 1125 q 702 1191 754 1142 q 617 1290 650 1240 l 724 1371 l 851 1174 l 793 1125 m 568 1146 l 717 933 l 651 894 l 499 1040 l 292 894 l 244 931 l 464 1146 l 568 1146 z "},"ổ":{"ha":797,"x_min":56,"x_max":921,"o":"m 458 789 q 669 706 596 789 q 743 468 743 622 q 692 231 743 342 q 549 52 642 119 q 340 -15 457 -15 q 129 68 203 -15 q 56 306 56 151 q 106 544 56 433 q 249 722 157 656 q 458 789 342 789 m 439 713 q 315 652 367 713 q 238 499 264 592 q 213 311 213 407 q 364 58 213 58 q 485 119 435 58 q 560 274 535 181 q 585 463 585 367 q 439 713 585 713 m 731 1018 q 719 1043 724 1028 q 717 1071 715 1058 q 733 1096 721 1086 q 764 1117 744 1106 q 797 1139 786 1131 q 814 1161 808 1147 l 814 1167 q 803 1204 815 1190 q 760 1219 792 1218 l 750 1219 q 719 1217 731 1219 l 735 1300 q 756 1306 738 1303 q 788 1308 774 1308 q 885 1283 850 1308 q 921 1211 921 1258 q 917 1179 921 1196 q 889 1131 910 1150 q 833 1090 868 1113 l 806 1072 q 782 1025 782 1056 l 731 1018 m 568 1146 l 717 933 l 651 894 l 499 1040 l 292 894 l 244 931 l 464 1146 l 568 1146 z "},"ỗ":{"ha":797,"x_min":56,"x_max":743,"o":"m 458 789 q 669 706 596 789 q 743 468 743 622 q 692 231 743 342 q 549 52 642 119 q 340 -15 457 -15 q 129 68 203 -15 q 56 306 56 151 q 106 544 56 433 q 249 722 157 656 q 458 789 342 789 m 439 713 q 315 652 367 713 q 238 499 264 592 q 213 311 213 407 q 364 58 213 58 q 485 119 435 58 q 560 274 535 181 q 585 463 585 367 q 439 713 585 713 m 319 1243 q 383 1331 342 1296 q 478 1365 425 1365 q 526 1355 507 1365 q 564 1325 544 1344 q 594 1301 583 1308 q 624 1294 606 1294 q 693 1343 665 1294 l 742 1318 q 679 1230 719 1264 q 588 1196 639 1196 q 542 1206 560 1196 q 501 1235 524 1215 q 471 1258 485 1250 q 439 1267 457 1267 q 401 1255 415 1267 q 368 1219 386 1243 l 319 1243 m 569 1146 l 718 933 l 653 894 l 500 1040 l 293 894 l 246 931 l 465 1146 l 569 1146 z "},"ö":{"ha":797,"x_min":56,"x_max":743,"o":"m 458 789 q 669 706 596 789 q 743 468 743 622 q 692 231 743 342 q 549 52 642 119 q 340 -15 457 -15 q 129 68 203 -15 q 56 306 56 151 q 106 544 56 433 q 249 722 157 656 q 458 789 342 789 m 439 713 q 315 652 367 713 q 238 499 264 592 q 213 311 213 407 q 364 58 213 58 q 485 119 435 58 q 560 274 535 181 q 585 463 585 367 q 439 713 585 713 m 333 922 q 283 947 306 922 q 261 1003 261 971 q 288 1076 261 1046 q 354 1107 314 1107 q 410 1083 389 1107 q 431 1026 431 1060 q 403 952 429 982 q 333 922 376 922 m 626 922 q 576 947 597 922 q 554 1003 554 971 q 580 1076 554 1046 q 646 1107 606 1107 q 701 1084 681 1107 q 722 1029 722 1061 q 696 953 722 983 q 626 922 669 922 z "},"ọ":{"ha":797,"x_min":56,"x_max":743,"o":"m 458 789 q 669 706 596 789 q 743 468 743 622 q 692 231 743 342 q 549 52 642 119 q 340 -15 457 -15 q 129 68 203 -15 q 56 306 56 151 q 106 544 56 433 q 249 722 157 656 q 458 789 342 789 m 439 713 q 315 652 367 713 q 238 499 264 592 q 213 311 213 407 q 364 58 213 58 q 485 119 435 58 q 560 274 535 181 q 585 463 585 367 q 439 713 585 713 m 294 -328 q 240 -305 261 -328 q 218 -246 218 -282 q 247 -171 218 -201 q 317 -140 276 -140 q 375 -162 354 -140 q 396 -219 396 -185 q 367 -296 396 -264 q 294 -328 339 -328 z "},"ò":{"ha":797,"x_min":56,"x_max":743,"o":"m 458 789 q 669 706 596 789 q 743 468 743 622 q 692 231 743 342 q 549 52 642 119 q 340 -15 457 -15 q 129 68 203 -15 q 56 306 56 151 q 106 544 56 433 q 249 722 157 656 q 458 789 342 789 m 439 713 q 315 652 367 713 q 238 499 264 592 q 213 311 213 407 q 364 58 213 58 q 485 119 435 58 q 560 274 535 181 q 585 463 585 367 q 439 713 585 713 m 507 896 q 368 1004 456 925 q 254 1131 281 1083 l 354 1224 l 556 935 l 507 896 z "}}}
